{
  "accessors": [
    {
      "bufferView": 2,
      "componentType": 5126,
      "count": 1777,
      "max": [
        2.179187059402466,
        0.46191900968551636,
        6.0152812004089355
      ],
      "min": [
        -0.9423620104789734,
        -0.4575960040092468,
        0.03501899912953377
      ],
      "type": "VEC3"
    },
    {
      "bufferView": 2,
      "byteOffset": 21324,
      "componentType": 5126,
      "count": 1777,
      "max": [
        0.999751627445221,
        0.9991474151611328,
        0.999436616897583
      ],
      "min": [
        -0.999509871006012,
        -0.999136209487915,
        -0.9989884495735168
      ],
      "type": "VEC3"
    },
    {
      "bufferView": 1,
      "componentType": 5126,
      "count": 1777,
      "max": [
        0.9921720027923584,
        0.9933850169181824
      ],
      "min": [
        0.008057000115513802,
        0.0038449999410659075
      ],
      "type": "VEC2"
    },
    {
      "bufferView": 0,
      "componentType": 5125,
      "count": 8448,
      "type": "SCALAR"
    },
    {
      "bufferView": 2,
      "byteOffset": 42648,
      "componentType": 5126,
      "count": 1999,
      "max": [
        2.0618770122528076,
        0.4623909890651703,
        5.366546154022217
      ],
      "min": [
        -2.069823980331421,
        -0.38741499185562134,
        3.2031610012054443
      ],
      "type": "VEC3"
    },
    {
      "bufferView": 2,
      "byteOffset": 66636,
      "componentType": 5126,
      "count": 1999,
      "max": [
        0.9950227737426758,
        0.9996731877326965,
        0.9991686344146729
      ],
      "min": [
        -0.9997438788414001,
        -0.9997358918190002,
        -0.999394416809082
      ],
      "type": "VEC3"
    },
    {
      "bufferView": 1,
      "byteOffset": 14216,
      "componentType": 5126,
      "count": 1999,
      "max": [
        0.9964900016784668,
        0.9960020184516907
      ],
      "min": [
        0.004592999815940857,
        0.0029140000697225332
      ],
      "type": "VEC2"
    },
    {
      "bufferView": 0,
      "byteOffset": 33792,
      "componentType": 5125,
      "count": 8283,
      "type": "SCALAR"
    },
    {
      "bufferView": 2,
      "byteOffset": 90624,
      "componentType": 5126,
      "count": 206,
      "max": [
        0.5803970098495483,
        0.4833509922027588,
        3.831027030944824
      ],
      "min": [
        -0.6601359844207764,
        -0.3340199887752533,
        3.067142963409424
      ],
      "type": "VEC3"
    },
    {
      "bufferView": 2,
      "byteOffset": 93096,
      "componentType": 5126,
      "count": 206,
      "max": [
        0.9923023581504822,
        0.9991547465324402,
        0.9995577931404114
      ],
      "min": [
        -0.9924781322479248,
        -0.9988817572593689,
        -0.9993538856506348
      ],
      "type": "VEC3"
    },
    {
      "bufferView": 1,
      "byteOffset": 30208,
      "componentType": 5126,
      "count": 206,
      "max": [
        0.9853670001029968,
        0.9910889863967896
      ],
      "min": [
        0.01683099940419197,
        0.007201999891549349
      ],
      "type": "VEC2"
    },
    {
      "bufferView": 0,
      "byteOffset": 66924,
      "componentType": 5125,
      "count": 792,
      "type": "SCALAR"
    },
    {
      "bufferView": 2,
      "byteOffset": 95568,
      "componentType": 5126,
      "count": 440,
      "max": [
        0.22068700194358826,
        0.27084600925445557,
        5.699212074279785
      ],
      "min": [
        -0.26620399951934814,
        -0.25874900817871094,
        5.509888172149658
      ],
      "type": "VEC3"
    },
    {
      "bufferView": 2,
      "byteOffset": 100848,
      "componentType": 5126,
      "count": 440,
      "max": [
        0.9999110698699951,
        0.9889760613441467,
        0.9984540343284607
      ],
      "min": [
        -0.9996965527534485,
        -0.9936635494232178,
        -0.9946523308753967
      ],
      "type": "VEC3"
    },
    {
      "bufferView": 1,
      "byteOffset": 31856,
      "componentType": 5126,
      "count": 440,
      "max": [
        0.9947199821472168,
        0.9843440055847168
      ],
      "min": [
        0.00891099963337183,
        0.010100999847054482
      ],
      "type": "VEC2"
    },
    {
      "bufferView": 0,
      "byteOffset": 70092,
      "componentType": 5125,
      "count": 1572,
      "type": "SCALAR"
    },
    {
      "bufferView": 2,
      "byteOffset": 106128,
      "componentType": 5126,
      "count": 2289,
      "max": [
        0.25732699036598206,
        0.44939300417900085,
        6.139438152313232
      ],
      "min": [
        -0.5274500250816345,
        -0.41751301288604736,
        4.623692035675049
      ],
      "type": "VEC3"
    },
    {
      "bufferView": 2,
      "byteOffset": 133596,
      "componentType": 5126,
      "count": 2289,
      "max": [
        0.999733030796051,
        0.9970458745956421,
        0.9984421133995056
      ],
      "min": [
        -0.9999868869781494,
        -0.9999878406524658,
        -0.9820227026939392
      ],
      "type": "VEC3"
    },
    {
      "bufferView": 1,
      "byteOffset": 35376,
      "componentType": 5126,
      "count": 2289,
      "max": [
        0.9972379803657532,
        0.9986270070075989
      ],
      "min": [
        0.012085000053048134,
        0.0047149998135864735
      ],
      "type": "VEC2"
    },
    {
      "bufferView": 0,
      "byteOffset": 76380,
      "componentType": 5125,
      "count": 7215,
      "type": "SCALAR"
    },
    {
      "bufferView": 2,
      "byteOffset": 161064,
      "componentType": 5126,
      "count": 220,
      "max": [
        0.2387389987707138,
        0.1887180060148239,
        5.519729137420654
      ],
      "min": [
        0.1543869972229004,
        -0.015049000270664692,
        5.269824981689453
      ],
      "type": "VEC3"
    },
    {
      "bufferView": 2,
      "byteOffset": 163704,
      "componentType": 5126,
      "count": 220,
      "max": [
        0.936590313911438,
        0.9993572235107422,
        0.9999877214431763
      ],
      "min": [
        -0.9343016743659973,
        -0.9996947646141052,
        -0.9999808073043823
      ],
      "type": "VEC3"
    },
    {
      "bufferView": 1,
      "byteOffset": 53688,
      "componentType": 5126,
      "count": 220,
      "max": [
        0.5426260232925415,
        0.9947199821472168
      ],
      "min": [
        0.08703699707984924,
        0.7260550260543823
      ],
      "type": "VEC2"
    },
    {
      "bufferView": 0,
      "byteOffset": 105240,
      "componentType": 5125,
      "count": 600,
      "type": "SCALAR"
    },
    {
      "bufferView": 2,
      "byteOffset": 166344,
      "componentType": 5126,
      "count": 506,
      "max": [
        0.7749770283699036,
        0.34217900037765503,
        0.7254049777984619
      ],
      "min": [
        -0.5893419981002808,
        -0.5009920001029968,
        -0.025474999099969864
      ],
      "type": "VEC3"
    },
    {
      "bufferView": 2,
      "byteOffset": 172416,
      "componentType": 5126,
      "count": 506,
      "max": [
        0.9997207522392273,
        0.9941035509109497,
        0.9989964365959167
      ],
      "min": [
        -0.999617874622345,
        -0.9986557364463806,
        -0.9999831914901733
      ],
      "type": "VEC3"
    },
    {
      "bufferView": 1,
      "byteOffset": 55448,
      "componentType": 5126,
      "count": 506,
      "max": [
        0.9902039766311646,
        0.9933170080184937
      ],
      "min": [
        0.0047610001638531685,
        0.00785799976438284
      ],
      "type": "VEC2"
    },
    {
      "bufferView": 0,
      "byteOffset": 107640,
      "componentType": 5125,
      "count": 1914,
      "type": "SCALAR"
    }
  ],
  "asset": {
    "extras": {
      "author": "PACE GAMING FF (https://sketchfab.com/MDARBAZ_.OR___-PACEGAMINGFF)",
      "license": "CC-BY-4.0 (http://creativecommons.org/licenses/by/4.0/)",
      "source": "https://sketchfab.com/3d-models/freefire-new-female-tpose-model-by-pace-gaming-a62a0cf0bc064240a047b21d4ebaff9e",
      "title": "freefire new female tpose model by pace gaming"
    },
    "generator": "Sketchfab-13.46.0",
    "version": "2.0"
  },
  "bufferViews": [
    {
      "buffer": 0,
      "byteLength": 115296,
      "name": "floatBufferViews",
      "target": 34963
    },
    {
      "buffer": 0,
      "byteLength": 59496,
      "byteOffset": 115296,
      "byteStride": 8,
      "name": "floatBufferViews",
      "target": 34962
    },
    {
      "buffer": 0,
      "byteLength": 178488,
      "byteOffset": 174792,
      "byteStride": 12,
      "name": "floatBufferViews",
      "target": 34962
    }
  ],
  "buffers": [
    {
      "byteLength": 353280,
      "uri": "scene.bin"
    }
  ],
  "images": [
    {
      "uri": "textures/Material.002_baseColor.png"
    },
    {
      "uri": "textures/Material.003_baseColor.png"
    },
    {
      "uri": "textures/Material.004_baseColor.png"
    },
    {
      "uri": "textures/Material.005_baseColor.png"
    },
    {
      "uri": "textures/Material.006_baseColor.png"
    },
    {
      "uri": "textures/Material.008_baseColor.png"
    }
  ],
  "materials": [
    {
      "doubleSided": true,
      "name": "Material.002",
      "pbrMetallicRoughness": {
        "baseColorTexture": {
          "index": 0
        },
        "metallicFactor": 0.0,
        "roughnessFactor": 0.8063508326896291
      }
    },
    {
      "doubleSided": true,
      "name": "Material.003",
      "pbrMetallicRoughness": {
        "baseColorTexture": {
          "index": 1
        },
        "metallicFactor": 0.0,
        "roughnessFactor": 0.8063508326896291
      }
    },
    {
      "doubleSided": true,
      "name": "Material.004",
      "pbrMetallicRoughness": {
        "baseColorTexture": {
          "index": 2
        },
        "metallicFactor": 0.0,
        "roughnessFactor": 0.8063508326896291
      }
    },
    {
      "doubleSided": true,
      "name": "Material.005",
      "pbrMetallicRoughness": {
        "baseColorTexture": {
          "index": 3
        },
        "metallicFactor": 0.0,
        "roughnessFactor": 0.8063508326896291
      }
    },
    {
      "doubleSided": true,
      "name": "Material.006",
      "pbrMetallicRoughness": {
        "baseColorTexture": {
          "index": 4
        },
        "metallicFactor": 0.0,
        "roughnessFactor": 0.8063508326896291
      }
    },
    {
      "doubleSided": true,
      "name": "Material.007",
      "pbrMetallicRoughness": {
        "baseColorTexture": {
          "index": 4
        },
        "metallicFactor": 0.0,
        "roughnessFactor": 0.8063508326896291
      }
    },
    {
      "doubleSided": true,
      "name": "Material.008",
      "pbrMetallicRoughness": {
        "baseColorTexture": {
          "index": 5
        },
        "metallicFactor": 0.0,
        "roughnessFactor": 0.8063508326896291
      }
    }
  ],
  "meshes": [
    {
      "name": "Object_0",
      "primitives": [
        {
          "attributes": {
            "NORMAL": 1,
            "POSITION": 0,
            "TEXCOORD_0": 2
          },
          "indices": 3,
          "material": 0,
          "mode": 4
        }
      ]
    },
    {
      "name": "Object_1",
      "primitives": [
        {
          "attributes": {
            "NORMAL": 5,
            "POSITION": 4,
            "TEXCOORD_0": 6
          },
          "indices": 7,
          "material": 1,
          "mode": 4
        }
      ]
    },
    {
      "name": "Object_2",
      "primitives": [
        {
          "attributes": {
            "NORMAL": 9,
            "POSITION": 8,
            "TEXCOORD_0": 10
          },
          "indices": 11,
          "material": 2,
          "mode": 4
        }
      ]
    },
    {
      "name": "Object_3",
      "primitives": [
        {
          "attributes": {
            "NORMAL": 13,
            "POSITION": 12,
            "TEXCOORD_0": 14
          },
          "indices": 15,
          "material": 3,
          "mode": 4
        }
      ]
    },
    {
      "name": "Object_4",
      "primitives": [
        {
          "attributes": {
            "NORMAL": 17,
            "POSITION": 16,
            "TEXCOORD_0": 18
          },
          "indices": 19,
          "material": 4,
          "mode": 4
        }
      ]
    },
    {
      "name": "Object_5",
      "primitives": [
        {
          "attributes": {
            "NORMAL": 21,
            "POSITION": 20,
            "TEXCOORD_0": 22
          },
          "indices": 23,
          "material": 5,
          "mode": 4
        }
      ]
    },
    {
      "name": "Object_6",
      "primitives": [
        {
          "attributes": {
            "NORMAL": 25,
            "POSITION": 24,
            "TEXCOORD_0": 26
          },
          "indices": 27,
          "material": 6,
          "mode": 4
        }
      ]
    }
  ],
  "nodes": [
    {
      "children": [
        1
      ],
      "matrix": [
        1.0,
        0.0,
        0.0,
        0.0,
        0.0,
        2.220446049250313e-16,
        -1.0,
        0.0,
        0.0,
        1.0,
        2.220446049250313e-16,
        0.0,
        0.0,
        0.0,
        0.0,
        1.0
      ],
      "name": "Sketchfab_model"
    },
    {
      "children": [
        2,
        3,
        4,
        5,
        6,
        7,
        8
      ],
      "name": "NEW GGIRL T POSE.obj.cleaner.materialmerger.gles"
    },
    {
      "mesh": 0,
      "name": "Object_2"
    },
    {
      "mesh": 1,
      "name": "Object_3"
    },
    {
      "mesh": 2,
      "name": "Object_4"
    },
    {
      "mesh": 3,
      "name": "Object_5"
    },
    {
      "mesh": 4,
      "name": "Object_6"
    },
    {
      "mesh": 5,
      "name": "Object_7"
    },
    {
      "mesh": 6,
      "name": "Object_8"
    }
  ],
  "samplers": [
    {
      "magFilter": 9729,
      "minFilter": 9987,
      "wrapS": 10497,
      "wrapT": 10497
    }
  ],
  "scene": 0,
  "scenes": [
    {
      "name": "Sketchfab_Scene",
      "nodes": [
        0
      ]
    }
  ],
  "textures": [
    {
      "sampler": 0,
      "source": 0
    },
    {
      "sampler": 0,
      "source": 1
    },
    {
      "sampler": 0,
      "source": 2
    },
    {
      "sampler": 0,
      "source": 3
    },
    {
      "sampler": 0,
      "source": 4
    },
    {
      "sampler": 0,
      "source": 5
    }
  ]
}
