{
  "accessors": [
    {
      "bufferView": 2,
      "componentType": 5126,
      "count": 1749,
      "max": [
        1.5407710075378418,
        0.29094600677490234,
        5.494406223297119
      ],
      "min": [
        -0.665103018283844,
        -0.38257700204849243,
        0.023646000772714615
      ],
      "type": "VEC3"
    },
    {
      "bufferView": 2,
      "byteOffset": 20988,
      "componentType": 5126,
      "count": 1749,
      "max": [
        0.9990991950035095,
        0.9996541142463684,
        0.9998894929885864
      ],
      "min": [
        -0.9999070167541504,
        -0.9999831914901733,
        -0.9990065693855286
      ],
      "type": "VEC3"
    },
    {
      "bufferView": 1,
      "componentType": 5126,
      "count": 1749,
      "max": [
        0.9921870231628418,
        0.9966049790382385
      ],
      "min": [
        0.008086999878287315,
        0.2519260048866272
      ],
      "type": "VEC2"
    },
    {
      "bufferView": 0,
      "componentType": 5125,
      "count": 8250,
      "type": "SCALAR"
    },
    {
      "bufferView": 2,
      "byteOffset": 41976,
      "componentType": 5126,
      "count": 238,
      "max": [
        0.726269006729126,
        0.2489279955625534,
        0.48486000299453735
      ],
      "min": [
        -0.7104989886283875,
        -0.511784017086029,
        0.00020700000459328294
      ],
      "type": "VEC3"
    },
    {
      "bufferView": 2,
      "byteOffset": 44832,
      "componentType": 5126,
      "count": 238,
      "max": [
        0.9972812533378601,
        0.9973298907279968,
        0.9267858862876892
      ],
      "min": [
        -0.9935381412506104,
        -0.8578550219535828,
        -0.8135154843330383
      ],
      "type": "VEC3"
    },
    {
      "bufferView": 1,
      "byteOffset": 13992,
      "componentType": 5126,
      "count": 238,
      "max": [
        0.9939879775047302,
        0.9848020076751709
      ],
      "min": [
        0.005187999922782183,
        0.0103150000795722
      ],
      "type": "VEC2"
    },
    {
      "bufferView": 0,
      "byteOffset": 33000,
      "componentType": 5125,
      "count": 852,
      "type": "SCALAR"
    },
    {
      "bufferView": 2,
      "byteOffset": 47688,
      "componentType": 5126,
      "count": 1486,
      "max": [
        0.605193018913269,
        0.40067601203918457,
        3.560628890991211
      ],
      "min": [
        -0.6056560277938843,
        -0.427280992269516,
        0.4393579959869385
      ],
      "type": "VEC3"
    },
    {
      "bufferView": 2,
      "byteOffset": 65520,
      "componentType": 5126,
      "count": 1486,
      "max": [
        0.9992275238037109,
        0.9985437989234924,
        0.9818089008331299
      ],
      "min": [
        -0.9995929598808289,
        -0.9999710321426392,
        -0.9882270097732544
      ],
      "type": "VEC3"
    },
    {
      "bufferView": 1,
      "byteOffset": 15896,
      "componentType": 5126,
      "count": 1486,
      "max": [
        0.9973909854888916,
        0.9971010088920593
      ],
      "min": [
        0.0028989999555051327,
        0.002609000075608492
      ],
      "type": "VEC2"
    },
    {
      "bufferView": 0,
      "byteOffset": 36408,
      "componentType": 5125,
      "count": 5550,
      "type": "SCALAR"
    },
    {
      "bufferView": 2,
      "byteOffset": 83352,
      "componentType": 5126,
      "count": 1589,
      "max": [
        1.5107849836349487,
        0.4826839864253998,
        4.565776824951172
      ],
      "min": [
        -1.5422489643096924,
        -0.4875729978084564,
        1.9485119581222534
      ],
      "type": "VEC3"
    },
    {
      "bufferView": 2,
      "byteOffset": 102420,
      "componentType": 5126,
      "count": 1589,
      "max": [
        0.999678909778595,
        0.9990869164466858,
        0.9997126460075378
      ],
      "min": [
        -0.9990379810333252,
        -0.9997058510780334,
        -0.9997618794441223
      ],
      "type": "VEC3"
    },
    {
      "bufferView": 1,
      "byteOffset": 27784,
      "componentType": 5126,
      "count": 1589,
      "max": [
        0.9959560036659241,
        0.9920960068702698
      ],
      "min": [
        0.005905000027269125,
        0.001449999981559813
      ],
      "type": "VEC2"
    },
    {
      "bufferView": 0,
      "byteOffset": 58608,
      "componentType": 5125,
      "count": 6888,
      "type": "SCALAR"
    },
    {
      "bufferView": 2,
      "byteOffset": 121488,
      "componentType": 5126,
      "count": 2713,
      "max": [
        0.34461700916290283,
        0.40619200468063354,
        5.589200019836426
      ],
      "min": [
        -0.3565729856491089,
        -0.39379701018333435,
        4.618517875671387
      ],
      "type": "VEC3"
    },
    {
      "bufferView": 2,
      "byteOffset": 154044,
      "componentType": 5126,
      "count": 2713,
      "max": [
        0.9992243051528931,
        0.9958854913711548,
        0.9981263875961304
      ],
      "min": [
        -0.9997181296348572,
        -0.9976056218147278,
        -0.9806236028671265
      ],
      "type": "VEC3"
    },
    {
      "bufferView": 1,
      "byteOffset": 40496,
      "componentType": 5126,
      "count": 2713,
      "max": [
        0.9897609949111938,
        0.9927210211753845
      ],
      "min": [
        0.01017799973487854,
        0.006378000136464834
      ],
      "type": "VEC2"
    },
    {
      "bufferView": 0,
      "byteOffset": 86160,
      "componentType": 5125,
      "count": 8385,
      "type": "SCALAR"
    }
  ],
  "asset": {
    "extras": {
      "author": "PACE GAMING FF (https://sketchfab.com/MDARBAZ_.OR___-PACEGAMINGFF)",
      "license": "CC-BY-4.0 (http://creativecommons.org/licenses/by/4.0/)",
      "source": "https://sketchfab.com/3d-models/free-fire-new-female-3d-model-by-pace-gaming-365d02e5f00f4b10b85fb0f636846bfa",
      "title": "free fire new female 3d model by pace gaming"
    },
    "generator": "Sketchfab-14.8.0",
    "version": "2.0"
  },
  "bufferViews": [
    {
      "buffer": 0,
      "byteLength": 119700,
      "name": "floatBufferViews",
      "target": 34963
    },
    {
      "buffer": 0,
      "byteLength": 62200,
      "byteOffset": 119700,
      "byteStride": 8,
      "name": "floatBufferViews",
      "target": 34962
    },
    {
      "buffer": 0,
      "byteLength": 186600,
      "byteOffset": 181900,
      "byteStride": 12,
      "name": "floatBufferViews",
      "target": 34962
    }
  ],
  "buffers": [
    {
      "byteLength": 368500,
      "uri": "scene.bin"
    }
  ],
  "images": [
    {
      "uri": "textures/mat0_baseColor.png"
    },
    {
      "uri": "textures/mat0.001_baseColor.png"
    },
    {
      "uri": "textures/mat0.002_baseColor.png"
    },
    {
      "uri": "textures/mat0.003_baseColor.png"
    },
    {
      "uri": "textures/mat0.005_baseColor.png"
    }
  ],
  "materials": [
    {
      "doubleSided": true,
      "name": "mat0",
      "pbrMetallicRoughness": {
        "baseColorTexture": {
          "index": 0
        },
        "metallicFactor": 0.0,
        "roughnessFactor": 0.6342256411356907
      }
    },
    {
      "doubleSided": true,
      "name": "mat0.001",
      "pbrMetallicRoughness": {
        "baseColorTexture": {
          "index": 1
        },
        "metallicFactor": 0.0,
        "roughnessFactor": 0.6342256411356907
      }
    },
    {
      "doubleSided": true,
      "name": "mat0.002",
      "pbrMetallicRoughness": {
        "baseColorTexture": {
          "index": 2
        },
        "metallicFactor": 0.0,
        "roughnessFactor": 0.6342256411356907
      }
    },
    {
      "doubleSided": true,
      "name": "mat0.003",
      "pbrMetallicRoughness": {
        "baseColorTexture": {
          "index": 3
        },
        "metallicFactor": 0.0,
        "roughnessFactor": 0.6342256411356907
      }
    },
    {
      "doubleSided": true,
      "name": "mat0.005",
      "pbrMetallicRoughness": {
        "baseColorTexture": {
          "index": 4
        },
        "metallicFactor": 0.0,
        "roughnessFactor": 0.6342256411356907
      }
    }
  ],
  "meshes": [
    {
      "name": "Object_0",
      "primitives": [
        {
          "attributes": {
            "NORMAL": 1,
            "POSITION": 0,
            "TEXCOORD_0": 2
          },
          "indices": 3,
          "material": 0,
          "mode": 4
        }
      ]
    },
    {
      "name": "Object_1",
      "primitives": [
        {
          "attributes": {
            "NORMAL": 5,
            "POSITION": 4,
            "TEXCOORD_0": 6
          },
          "indices": 7,
          "material": 1,
          "mode": 4
        }
      ]
    },
    {
      "name": "Object_2",
      "primitives": [
        {
          "attributes": {
            "NORMAL": 9,
            "POSITION": 8,
            "TEXCOORD_0": 10
          },
          "indices": 11,
          "material": 2,
          "mode": 4
        }
      ]
    },
    {
      "name": "Object_3",
      "primitives": [
        {
          "attributes": {
            "NORMAL": 13,
            "POSITION": 12,
            "TEXCOORD_0": 14
          },
          "indices": 15,
          "material": 3,
          "mode": 4
        }
      ]
    },
    {
      "name": "Object_4",
      "primitives": [
        {
          "attributes": {
            "NORMAL": 17,
            "POSITION": 16,
            "TEXCOORD_0": 18
          },
          "indices": 19,
          "material": 4,
          "mode": 4
        }
      ]
    }
  ],
  "nodes": [
    {
      "children": [
        1
      ],
      "matrix": [
        1.0,
        0.0,
        0.0,
        0.0,
        0.0,
        2.220446049250313e-16,
        -1.0,
        0.0,
        0.0,
        1.0,
        2.220446049250313e-16,
        0.0,
        0.0,
        0.0,
        0.0,
        1.0
      ],
      "name": "Sketchfab_model"
    },
    {
      "children": [
        2,
        3,
        4,
        5,
        6
      ],
      "name": "35 dvg.obj.cleaner.materialmerger.gles"
    },
    {
      "mesh": 0,
      "name": "Object_2"
    },
    {
      "mesh": 1,
      "name": "Object_3"
    },
    {
      "mesh": 2,
      "name": "Object_4"
    },
    {
      "mesh": 3,
      "name": "Object_5"
    },
    {
      "mesh": 4,
      "name": "Object_6"
    }
  ],
  "samplers": [
    {
      "magFilter": 9729,
      "minFilter": 9987,
      "wrapS": 10497,
      "wrapT": 10497
    }
  ],
  "scene": 0,
  "scenes": [
    {
      "name": "Sketchfab_Scene",
      "nodes": [
        0
      ]
    }
  ],
  "textures": [
    {
      "sampler": 0,
      "source": 0
    },
    {
      "sampler": 0,
      "source": 1
    },
    {
      "sampler": 0,
      "source": 2
    },
    {
      "sampler": 0,
      "source": 3
    },
    {
      "sampler": 0,
      "source": 4
    }
  ]
}
