{
  "accessors": [
    {
      "bufferView": 2,
      "componentType": 5126,
      "count": 684,
      "max": [
        1.1012150049209595,
        0.5334309935569763,
        0.6949099898338318
      ],
      "min": [
        -1.1390260457992554,
        -0.7804849743843079,
        -0.008678000420331955
      ],
      "type": "VEC3"
    },
    {
      "bufferView": 2,
      "byteOffset": 8208,
      "componentType": 5126,
      "count": 684,
      "max": [
        0.9992810487747192,
        0.9936826229095459,
        0.9948416948318481
      ],
      "min": [
        -0.9999200105667114,
        -0.9935707449913025,
        -0.9998000264167786
      ],
      "type": "VEC3"
    },
    {
      "bufferView": 1,
      "componentType": 5126,
      "count": 684,
      "max": [
        0.9842680096626282,
        0.9860680103302002
      ],
      "min": [
        0.013717999681830406,
        0.016692999750375748
      ],
      "type": "VEC2"
    },
    {
      "bufferView": 0,
      "componentType": 5125,
      "count": 2352,
      "type": "SCALAR"
    },
    {
      "bufferView": 2,
      "byteOffset": 16416,
      "componentType": 5126,
      "count": 631,
      "max": [
        0.9469720125198364,
        0.5764750242233276,
        4.426416873931885
      ],
      "min": [
        -0.9253069758415222,
        -0.5421239733695984,
        2.288094997406006
      ],
      "type": "VEC3"
    },
    {
      "bufferView": 2,
      "byteOffset": 23988,
      "componentType": 5126,
      "count": 631,
      "max": [
        0.9962309002876282,
        0.9984613060951233,
        0.9982280731201172
      ],
      "min": [
        -0.9999809265136719,
        -0.9999809265136719,
        -0.9966155290603638
      ],
      "type": "VEC3"
    },
    {
      "bufferView": 1,
      "byteOffset": 5472,
      "componentType": 5126,
      "count": 631,
      "max": [
        0.9907529950141907,
        0.9820709824562073
      ],
      "min": [
        0.034240998327732086,
        0.014999999664723873
      ],
      "type": "VEC2"
    },
    {
      "bufferView": 0,
      "byteOffset": 9408,
      "componentType": 5125,
      "count": 2748,
      "type": "SCALAR"
    },
    {
      "bufferView": 2,
      "byteOffset": 31560,
      "componentType": 5126,
      "count": 2405,
      "max": [
        2.5252459049224854,
        0.5402290225028992,
        7.410900115966797
      ],
      "min": [
        -2.5107131004333496,
        -0.6206920146942139,
        0.011132000014185905
      ],
      "type": "VEC3"
    },
    {
      "bufferView": 2,
      "byteOffset": 60420,
      "componentType": 5126,
      "count": 2405,
      "max": [
        0.9999862909317017,
        0.999985933303833,
        0.9968135356903076
      ],
      "min": [
        -0.9999809265136719,
        -0.9999130964279175,
        -0.99777752161026
      ],
      "type": "VEC3"
    },
    {
      "bufferView": 1,
      "byteOffset": 10520,
      "componentType": 5126,
      "count": 2405,
      "max": [
        0.998885989189148,
        0.9976770281791687
      ],
      "min": [
        0.002090000081807375,
        0.25198400020599365
      ],
      "type": "VEC2"
    },
    {
      "bufferView": 0,
      "byteOffset": 20400,
      "componentType": 5125,
      "count": 11652,
      "type": "SCALAR"
    },
    {
      "bufferView": 2,
      "byteOffset": 89280,
      "componentType": 5126,
      "count": 1489,
      "max": [
        2.452104091644287,
        0.7394180297851563,
        6.883385181427002
      ],
      "min": [
        -2.436378002166748,
        -0.7350630164146423,
        3.868978977203369
      ],
      "type": "VEC3"
    },
    {
      "bufferView": 2,
      "byteOffset": 107148,
      "componentType": 5126,
      "count": 1489,
      "max": [
        0.999985933303833,
        0.9999862909317017,
        0.9823486804962158
      ],
      "min": [
        -0.9986497759819031,
        -0.9999809265136719,
        -0.9992466568946838
      ],
      "type": "VEC3"
    },
    {
      "bufferView": 1,
      "byteOffset": 29760,
      "componentType": 5126,
      "count": 1489,
      "max": [
        0.995864987373352,
        0.9924929738044739
      ],
      "min": [
        0.0036319999489933252,
        0.002196999965235591
      ],
      "type": "VEC2"
    },
    {
      "bufferView": 0,
      "byteOffset": 67008,
      "componentType": 5125,
      "count": 6282,
      "type": "SCALAR"
    },
    {
      "bufferView": 2,
      "byteOffset": 125016,
      "componentType": 5126,
      "count": 435,
      "max": [
        0.32567501068115234,
        0.27000701427459717,
        6.994850158691406
      ],
      "min": [
        -0.3160719871520996,
        -0.43403300642967224,
        6.823145866394043
      ],
      "type": "VEC3"
    },
    {
      "bufferView": 2,
      "byteOffset": 130236,
      "componentType": 5126,
      "count": 435,
      "max": [
        0.999808132648468,
        0.9982786178588867,
        0.9999221563339233
      ],
      "min": [
        -0.9998194575309753,
        -0.9998194575309753,
        -0.9935882687568665
      ],
      "type": "VEC3"
    },
    {
      "bufferView": 1,
      "byteOffset": 41672,
      "componentType": 5126,
      "count": 435,
      "max": [
        0.9949340224266052,
        0.9282670021057129
      ],
      "min": [
        0.0028840000741183758,
        0.01281800027936697
      ],
      "type": "VEC2"
    },
    {
      "bufferView": 0,
      "byteOffset": 92136,
      "componentType": 5125,
      "count": 1212,
      "type": "SCALAR"
    },
    {
      "bufferView": 2,
      "byteOffset": 135456,
      "componentType": 5126,
      "count": 72,
      "max": [
        -0.29502400755882263,
        0.15877999365329742,
        6.884941101074219
      ],
      "min": [
        -0.36083298921585083,
        0.04041999951004982,
        6.736350059509277
      ],
      "type": "VEC3"
    },
    {
      "bufferView": 2,
      "byteOffset": 136320,
      "componentType": 5126,
      "count": 72,
      "max": [
        0.8898223638534546,
        0.3978102505207062,
        0.4359133541584015
      ],
      "min": [
        -0.8959274291992188,
        -0.40581515431404114,
        -0.4450913667678833
      ],
      "type": "VEC3"
    },
    {
      "bufferView": 1,
      "byteOffset": 45152,
      "componentType": 5126,
      "count": 72,
      "max": [
        0.8629279732704163,
        0.4205999970436096
      ],
      "min": [
        0.6071720123291016,
        0.11216899752616882
      ],
      "type": "VEC2"
    },
    {
      "bufferView": 0,
      "byteOffset": 96984,
      "componentType": 5125,
      "count": 216,
      "type": "SCALAR"
    },
    {
      "bufferView": 2,
      "byteOffset": 137184,
      "componentType": 5126,
      "count": 1418,
      "max": [
        0.375654011964798,
        0.6422420144081116,
        7.5392069816589355
      ],
      "min": [
        -0.3412739932537079,
        -0.3853580057621002,
        6.906167984008789
      ],
      "type": "VEC3"
    },
    {
      "bufferView": 2,
      "byteOffset": 154200,
      "componentType": 5126,
      "count": 1418,
      "max": [
        0.9996129870414734,
        0.9904105067253113,
        0.999921441078186
      ],
      "min": [
        -0.9939452409744263,
        -0.9999340772628784,
        -0.9601172804832458
      ],
      "type": "VEC3"
    },
    {
      "bufferView": 1,
      "byteOffset": 45728,
      "componentType": 5126,
      "count": 1418,
      "max": [
        0.9433889985084534,
        0.9809569716453552
      ],
      "min": [
        0.006591999903321266,
        0.013504000380635262
      ],
      "type": "VEC2"
    },
    {
      "bufferView": 0,
      "byteOffset": 97848,
      "componentType": 5125,
      "count": 4275,
      "type": "SCALAR"
    },
    {
      "bufferView": 2,
      "byteOffset": 171216,
      "componentType": 5126,
      "count": 48,
      "max": [
        0.23870599269866943,
        -0.3883039951324463,
        6.983057022094727
      ],
      "min": [
        -0.2830890119075775,
        -0.4292440116405487,
        6.830221176147461
      ],
      "type": "VEC3"
    },
    {
      "bufferView": 2,
      "byteOffset": 171792,
      "componentType": 5126,
      "count": 48,
      "max": [
        0.2788110673427582,
        0.9999862909317017,
        0.14630408585071564
      ],
      "min": [
        -0.2843993902206421,
        -0.9999879598617554,
        -0.16050514578819275
      ],
      "type": "VEC3"
    },
    {
      "bufferView": 1,
      "byteOffset": 57072,
      "componentType": 5126,
      "count": 48,
      "max": [
        0.8194090127944946,
        0.8632940053939819
      ],
      "min": [
        0.18615999817848206,
        0.4181729853153229
      ],
      "type": "VEC2"
    },
    {
      "bufferView": 0,
      "byteOffset": 114948,
      "componentType": 5125,
      "count": 144,
      "type": "SCALAR"
    }
  ],
  "asset": {
    "extras": {
      "author": "PACE GAMING FF (https://sketchfab.com/MDARBAZ_.OR___-PACEGAMINGFF)",
      "license": "CC-BY-4.0 (http://creativecommons.org/licenses/by/4.0/)",
      "source": "https://sketchfab.com/3d-models/freefire-new-3d-model-by-pace-gaming-a63a991c34c944668d71f49393707bd7",
      "title": "freefire new 3d model by pace gaming"
    },
    "generator": "Sketchfab-14.64.0",
    "version": "2.0"
  },
  "bufferViews": [
    {
      "buffer": 0,
      "byteLength": 115524,
      "name": "floatBufferViews",
      "target": 34963
    },
    {
      "buffer": 0,
      "byteLength": 57456,
      "byteOffset": 115524,
      "byteStride": 8,
      "name": "floatBufferViews",
      "target": 34962
    },
    {
      "buffer": 0,
      "byteLength": 172368,
      "byteOffset": 172980,
      "byteStride": 12,
      "name": "floatBufferViews",
      "target": 34962
    }
  ],
  "buffers": [
    {
      "byteLength": 345348,
      "uri": "scene.bin"
    }
  ],
  "images": [
    {
      "uri": "textures/mat0.021_baseColor.png"
    },
    {
      "uri": "textures/mat0.022_baseColor.png"
    },
    {
      "uri": "textures/mat0.023_baseColor.png"
    },
    {
      "uri": "textures/mat0.024_baseColor.png"
    },
    {
      "uri": "textures/mat0.025_baseColor.png"
    },
    {
      "uri": "textures/mat0.027_baseColor.png"
    }
  ],
  "materials": [
    {
      "doubleSided": true,
      "name": "mat0.021",
      "pbrMetallicRoughness": {
        "baseColorTexture": {
          "index": 0
        },
        "metallicFactor": 0.0,
        "roughnessFactor": 0.6342256411356907
      }
    },
    {
      "doubleSided": true,
      "name": "mat0.022",
      "pbrMetallicRoughness": {
        "baseColorTexture": {
          "index": 1
        },
        "metallicFactor": 0.0,
        "roughnessFactor": 0.6342256411356907
      }
    },
    {
      "doubleSided": true,
      "name": "mat0.023",
      "pbrMetallicRoughness": {
        "baseColorTexture": {
          "index": 2
        },
        "metallicFactor": 0.0,
        "roughnessFactor": 0.6342256411356907
      }
    },
    {
      "doubleSided": true,
      "name": "mat0.024",
      "pbrMetallicRoughness": {
        "baseColorTexture": {
          "index": 3
        },
        "metallicFactor": 0.0,
        "roughnessFactor": 0.6342256411356907
      }
    },
    {
      "doubleSided": true,
      "name": "mat0.025",
      "pbrMetallicRoughness": {
        "baseColorTexture": {
          "index": 4
        },
        "metallicFactor": 0.0,
        "roughnessFactor": 0.6342256411356907
      }
    },
    {
      "doubleSided": true,
      "name": "mat0.026",
      "pbrMetallicRoughness": {
        "baseColorFactor": [
          0.8,
          0.8,
          0.8,
          1.0
        ],
        "metallicFactor": 0.0,
        "roughnessFactor": 0.6342256411356907
      }
    },
    {
      "doubleSided": true,
      "name": "mat0.027",
      "pbrMetallicRoughness": {
        "baseColorTexture": {
          "index": 5
        },
        "metallicFactor": 0.0,
        "roughnessFactor": 0.6342256411356907
      }
    },
    {
      "doubleSided": true,
      "name": "mat0.028",
      "pbrMetallicRoughness": {
        "baseColorTexture": {
          "index": 4
        },
        "metallicFactor": 0.0,
        "roughnessFactor": 0.6342256411356907
      }
    }
  ],
  "meshes": [
    {
      "name": "Object_0",
      "primitives": [
        {
          "attributes": {
            "NORMAL": 1,
            "POSITION": 0,
            "TEXCOORD_0": 2
          },
          "indices": 3,
          "material": 0,
          "mode": 4
        }
      ]
    },
    {
      "name": "Object_1",
      "primitives": [
        {
          "attributes": {
            "NORMAL": 5,
            "POSITION": 4,
            "TEXCOORD_0": 6
          },
          "indices": 7,
          "material": 1,
          "mode": 4
        }
      ]
    },
    {
      "name": "Object_2",
      "primitives": [
        {
          "attributes": {
            "NORMAL": 9,
            "POSITION": 8,
            "TEXCOORD_0": 10
          },
          "indices": 11,
          "material": 2,
          "mode": 4
        }
      ]
    },
    {
      "name": "Object_3",
      "primitives": [
        {
          "attributes": {
            "NORMAL": 13,
            "POSITION": 12,
            "TEXCOORD_0": 14
          },
          "indices": 15,
          "material": 3,
          "mode": 4
        }
      ]
    },
    {
      "name": "Object_4",
      "primitives": [
        {
          "attributes": {
            "NORMAL": 17,
            "POSITION": 16,
            "TEXCOORD_0": 18
          },
          "indices": 19,
          "material": 4,
          "mode": 4
        }
      ]
    },
    {
      "name": "Object_5",
      "primitives": [
        {
          "attributes": {
            "NORMAL": 21,
            "POSITION": 20,
            "TEXCOORD_0": 22
          },
          "indices": 23,
          "material": 5,
          "mode": 4
        }
      ]
    },
    {
      "name": "Object_6",
      "primitives": [
        {
          "attributes": {
            "NORMAL": 25,
            "POSITION": 24,
            "TEXCOORD_0": 26
          },
          "indices": 27,
          "material": 6,
          "mode": 4
        }
      ]
    },
    {
      "name": "Object_7",
      "primitives": [
        {
          "attributes": {
            "NORMAL": 29,
            "POSITION": 28,
            "TEXCOORD_0": 30
          },
          "indices": 31,
          "material": 7,
          "mode": 4
        }
      ]
    }
  ],
  "nodes": [
    {
      "children": [
        1
      ],
      "matrix": [
        1.0,
        0.0,
        0.0,
        0.0,
        0.0,
        2.220446049250313e-16,
        -1.0,
        0.0,
        0.0,
        1.0,
        2.220446049250313e-16,
        0.0,
        0.0,
        0.0,
        0.0,
        1.0
      ],
      "name": "Sketchfab_model"
    },
    {
      "children": [
        2,
        3,
        4,
        5,
        6,
        7,
        8,
        9
      ],
      "name": "4.obj.cleaner.materialmerger.gles"
    },
    {
      "mesh": 0,
      "name": "Object_2"
    },
    {
      "mesh": 1,
      "name": "Object_3"
    },
    {
      "mesh": 2,
      "name": "Object_4"
    },
    {
      "mesh": 3,
      "name": "Object_5"
    },
    {
      "mesh": 4,
      "name": "Object_6"
    },
    {
      "mesh": 5,
      "name": "Object_7"
    },
    {
      "mesh": 6,
      "name": "Object_8"
    },
    {
      "mesh": 7,
      "name": "Object_9"
    }
  ],
  "samplers": [
    {
      "magFilter": 9729,
      "minFilter": 9987,
      "wrapS": 10497,
      "wrapT": 10497
    }
  ],
  "scene": 0,
  "scenes": [
    {
      "name": "Sketchfab_Scene",
      "nodes": [
        0
      ]
    }
  ],
  "textures": [
    {
      "sampler": 0,
      "source": 0
    },
    {
      "sampler": 0,
      "source": 1
    },
    {
      "sampler": 0,
      "source": 2
    },
    {
      "sampler": 0,
      "source": 3
    },
    {
      "sampler": 0,
      "source": 4
    },
    {
      "sampler": 0,
      "source": 5
    }
  ]
}
