{
  "accessors": [
    {
      "bufferView": 2,
      "componentType": 5126,
      "count": 1813,
      "max": [
        2.4435980319976807,
        0.5114330053329468,
        7.171164035797119
      ],
      "min": [
        -2.4344000816345215,
        -0.45413699746131897,
        1.035580039024353
      ],
      "type": "VEC3"
    },
    {
      "bufferView": 2,
      "byteOffset": 21756,
      "componentType": 5126,
      "count": 1813,
      "max": [
        0.9999922513961792,
        0.9999922513961792,
        0.9982385635375977
      ],
      "min": [
        -0.9999921321868896,
        -0.999881386756897,
        -0.999737560749054
      ],
      "type": "VEC3"
    },
    {
      "bufferView": 1,
      "componentType": 5126,
      "count": 1813,
      "max": [
        0.9935759902000427,
        0.9939650297164917
      ],
      "min": [
        0.008057000115513802,
        0.0038449999410659075
      ],
      "type": "VEC2"
    },
    {
      "bufferView": 0,
      "componentType": 5125,
      "count": 9009,
      "type": "SCALAR"
    },
    {
      "bufferView": 2,
      "byteOffset": 43512,
      "componentType": 5126,
      "count": 490,
      "max": [
        1.0378789901733398,
        0.5662549734115601,
        0.5667719841003418
      ],
      "min": [
        -1.0571550130844116,
        -0.6413480043411255,
        -0.03396200016140938
      ],
      "type": "VEC3"
    },
    {
      "bufferView": 2,
      "byteOffset": 49392,
      "componentType": 5126,
      "count": 490,
      "max": [
        0.9999642372131348,
        0.9865064024925232,
        0.9918317198753357
      ],
      "min": [
        -0.9991063475608826,
        -0.9958055019378662,
        -0.9999234676361084
      ],
      "type": "VEC3"
    },
    {
      "bufferView": 1,
      "byteOffset": 14504,
      "componentType": 5126,
      "count": 490,
      "max": [
        0.988677978515625,
        0.9899439811706543
      ],
      "min": [
        0.011017000302672386,
        0.009399999864399433
      ],
      "type": "VEC2"
    },
    {
      "bufferView": 0,
      "byteOffset": 36036,
      "componentType": 5125,
      "count": 2148,
      "type": "SCALAR"
    },
    {
      "bufferView": 2,
      "byteOffset": 55272,
      "componentType": 5126,
      "count": 781,
      "max": [
        1.0141170024871826,
        0.5615730285644531,
        4.392148971557617
      ],
      "min": [
        -1.0329539775848389,
        -0.5738779902458191,
        0.016248999163508415
      ],
      "type": "VEC3"
    },
    {
      "bufferView": 2,
      "byteOffset": 64644,
      "componentType": 5126,
      "count": 781,
      "max": [
        0.9991299510002136,
        0.9999923706054688,
        0.9925695061683655
      ],
      "min": [
        -0.9999921321868896,
        -0.999881386756897,
        -0.9982038140296936
      ],
      "type": "VEC3"
    },
    {
      "bufferView": 1,
      "byteOffset": 18424,
      "componentType": 5126,
      "count": 781,
      "max": [
        0.9920200109481812,
        0.9924160242080688
      ],
      "min": [
        0.010483000427484512,
        0.011826000176370144
      ],
      "type": "VEC2"
    },
    {
      "bufferView": 0,
      "byteOffset": 44628,
      "componentType": 5125,
      "count": 3624,
      "type": "SCALAR"
    },
    {
      "bufferView": 2,
      "byteOffset": 74016,
      "componentType": 5126,
      "count": 1066,
      "max": [
        1.3254640102386475,
        0.6021639704704285,
        6.343204975128174
      ],
      "min": [
        -2.118100881576538,
        -0.5177860260009766,
        3.811292886734009
      ],
      "type": "VEC3"
    },
    {
      "bufferView": 2,
      "byteOffset": 86808,
      "componentType": 5126,
      "count": 1066,
      "max": [
        0.9996375441551208,
        0.9998939037322998,
        0.9743161797523499
      ],
      "min": [
        -0.9979806542396545,
        -0.9999679327011108,
        -0.9996148943901062
      ],
      "type": "VEC3"
    },
    {
      "bufferView": 1,
      "byteOffset": 24672,
      "componentType": 5126,
      "count": 1066,
      "max": [
        0.9935759902000427,
        0.9937130212783813
      ],
      "min": [
        0.0072479997761547565,
        0.005462999921292067
      ],
      "type": "VEC2"
    },
    {
      "bufferView": 0,
      "byteOffset": 59124,
      "componentType": 5125,
      "count": 4476,
      "type": "SCALAR"
    },
    {
      "bufferView": 2,
      "byteOffset": 99600,
      "componentType": 5126,
      "count": 470,
      "max": [
        0.3102110028266907,
        0.2501769959926605,
        6.7822418212890625
      ],
      "min": [
        -0.30650898814201355,
        -0.4326789975166321,
        6.621102809906006
      ],
      "type": "VEC3"
    },
    {
      "bufferView": 2,
      "byteOffset": 105240,
      "componentType": 5126,
      "count": 470,
      "max": [
        0.999964714050293,
        0.9999918937683105,
        0.9997356534004211
      ],
      "min": [
        -0.9997346997261047,
        -0.9988239407539368,
        -0.9997394680976868
      ],
      "type": "VEC3"
    },
    {
      "bufferView": 1,
      "byteOffset": 33200,
      "componentType": 5126,
      "count": 470,
      "max": [
        0.9947969913482666,
        0.9924319982528687
      ],
      "min": [
        0.005493000149726868,
        0.009078999981284142
      ],
      "type": "VEC2"
    },
    {
      "bufferView": 0,
      "byteOffset": 77028,
      "componentType": 5125,
      "count": 1506,
      "type": "SCALAR"
    },
    {
      "bufferView": 2,
      "byteOffset": 110880,
      "componentType": 5126,
      "count": 1719,
      "max": [
        0.32079800963401794,
        0.41780900955200195,
        7.293859004974365
      ],
      "min": [
        -0.3033809959888458,
        -0.43650099635124207,
        6.919157981872559
      ],
      "type": "VEC3"
    },
    {
      "bufferView": 2,
      "byteOffset": 131508,
      "componentType": 5126,
      "count": 1719,
      "max": [
        0.999345600605011,
        0.998934268951416,
        0.9998251795768738
      ],
      "min": [
        -0.997353732585907,
        -0.999388575553894,
        -0.8493344783782959
      ],
      "type": "VEC3"
    },
    {
      "bufferView": 1,
      "byteOffset": 36960,
      "componentType": 5126,
      "count": 1719,
      "max": [
        0.9883419871330261,
        0.9929810166358948
      ],
      "min": [
        0.00021399999968707561,
        0.004852000158280134
      ],
      "type": "VEC2"
    },
    {
      "bufferView": 0,
      "byteOffset": 83052,
      "componentType": 5125,
      "count": 4938,
      "type": "SCALAR"
    },
    {
      "bufferView": 2,
      "byteOffset": 152136,
      "componentType": 5126,
      "count": 72,
      "max": [
        0.2556290030479431,
        -0.29990801215171814,
        6.753941059112549
      ],
      "min": [
        -0.27742499113082886,
        -0.41881901025772095,
        6.636621952056885
      ],
      "type": "VEC3"
    },
    {
      "bufferView": 2,
      "byteOffset": 153000,
      "componentType": 5126,
      "count": 72,
      "max": [
        0.8693990707397461,
        0.9933707118034363,
        0.17010004818439484
      ],
      "min": [
        -0.8317781686782837,
        -0.9858934283256531,
        -0.16069892048835754
      ],
      "type": "VEC3"
    },
    {
      "bufferView": 1,
      "byteOffset": 50712,
      "componentType": 5126,
      "count": 72,
      "max": [
        0.7693750262260437,
        0.8291749954223633
      ],
      "min": [
        0.29422399401664734,
        0.2471500039100647
      ],
      "type": "VEC2"
    },
    {
      "bufferView": 0,
      "byteOffset": 102804,
      "componentType": 5125,
      "count": 192,
      "type": "SCALAR"
    }
  ],
  "asset": {
    "extras": {
      "author": "PACE GAMING FF (https://sketchfab.com/MDARBAZ_.OR___-PACEGAMINGFF)",
      "license": "CC-BY-4.0 (http://creativecommons.org/licenses/by/4.0/)",
      "source": "https://sketchfab.com/3d-models/freefire-new-3d-model-by-pace-gaming-987f2326915443198c79a3db60d9dabe",
      "title": "freefire new 3d model by pace gaming"
    },
    "generator": "Sketchfab-13.85.0",
    "version": "2.0"
  },
  "bufferViews": [
    {
      "buffer": 0,
      "byteLength": 103572,
      "name": "floatBufferViews",
      "target": 34963
    },
    {
      "buffer": 0,
      "byteLength": 51288,
      "byteOffset": 103572,
      "byteStride": 8,
      "name": "floatBufferViews",
      "target": 34962
    },
    {
      "buffer": 0,
      "byteLength": 153864,
      "byteOffset": 154860,
      "byteStride": 12,
      "name": "floatBufferViews",
      "target": 34962
    }
  ],
  "buffers": [
    {
      "byteLength": 308724,
      "uri": "scene.bin"
    }
  ],
  "images": [
    {
      "uri": "textures/mat0_baseColor.png"
    },
    {
      "uri": "textures/mat0.001_baseColor.png"
    },
    {
      "uri": "textures/mat0.002_baseColor.png"
    },
    {
      "uri": "textures/mat0.003_baseColor.png"
    },
    {
      "uri": "textures/mat0.004_baseColor.png"
    },
    {
      "uri": "textures/mat0.005_baseColor.png"
    }
  ],
  "materials": [
    {
      "doubleSided": true,
      "name": "mat0",
      "pbrMetallicRoughness": {
        "baseColorTexture": {
          "index": 0
        },
        "metallicFactor": 0.0,
        "roughnessFactor": 0.6342256411356907
      }
    },
    {
      "doubleSided": true,
      "name": "mat0.001",
      "pbrMetallicRoughness": {
        "baseColorTexture": {
          "index": 1
        },
        "metallicFactor": 0.0,
        "roughnessFactor": 0.6342256411356907
      }
    },
    {
      "doubleSided": true,
      "name": "mat0.002",
      "pbrMetallicRoughness": {
        "baseColorTexture": {
          "index": 2
        },
        "metallicFactor": 0.0,
        "roughnessFactor": 0.6342256411356907
      }
    },
    {
      "doubleSided": true,
      "name": "mat0.003",
      "pbrMetallicRoughness": {
        "baseColorTexture": {
          "index": 3
        },
        "metallicFactor": 0.0,
        "roughnessFactor": 0.6342256411356907
      }
    },
    {
      "doubleSided": true,
      "name": "mat0.004",
      "pbrMetallicRoughness": {
        "baseColorTexture": {
          "index": 4
        },
        "metallicFactor": 0.0,
        "roughnessFactor": 0.6342256411356907
      }
    },
    {
      "doubleSided": true,
      "name": "mat0.005",
      "pbrMetallicRoughness": {
        "baseColorTexture": {
          "index": 5
        },
        "metallicFactor": 0.0,
        "roughnessFactor": 0.6342256411356907
      }
    },
    {
      "doubleSided": true,
      "name": "mat0.006",
      "pbrMetallicRoughness": {
        "baseColorTexture": {
          "index": 4
        },
        "metallicFactor": 0.0,
        "roughnessFactor": 0.6342256411356907
      }
    }
  ],
  "meshes": [
    {
      "name": "Object_0",
      "primitives": [
        {
          "attributes": {
            "NORMAL": 1,
            "POSITION": 0,
            "TEXCOORD_0": 2
          },
          "indices": 3,
          "material": 0,
          "mode": 4
        }
      ]
    },
    {
      "name": "Object_1",
      "primitives": [
        {
          "attributes": {
            "NORMAL": 5,
            "POSITION": 4,
            "TEXCOORD_0": 6
          },
          "indices": 7,
          "material": 1,
          "mode": 4
        }
      ]
    },
    {
      "name": "Object_2",
      "primitives": [
        {
          "attributes": {
            "NORMAL": 9,
            "POSITION": 8,
            "TEXCOORD_0": 10
          },
          "indices": 11,
          "material": 2,
          "mode": 4
        }
      ]
    },
    {
      "name": "Object_3",
      "primitives": [
        {
          "attributes": {
            "NORMAL": 13,
            "POSITION": 12,
            "TEXCOORD_0": 14
          },
          "indices": 15,
          "material": 3,
          "mode": 4
        }
      ]
    },
    {
      "name": "Object_4",
      "primitives": [
        {
          "attributes": {
            "NORMAL": 17,
            "POSITION": 16,
            "TEXCOORD_0": 18
          },
          "indices": 19,
          "material": 4,
          "mode": 4
        }
      ]
    },
    {
      "name": "Object_5",
      "primitives": [
        {
          "attributes": {
            "NORMAL": 21,
            "POSITION": 20,
            "TEXCOORD_0": 22
          },
          "indices": 23,
          "material": 5,
          "mode": 4
        }
      ]
    },
    {
      "name": "Object_6",
      "primitives": [
        {
          "attributes": {
            "NORMAL": 25,
            "POSITION": 24,
            "TEXCOORD_0": 26
          },
          "indices": 27,
          "material": 6,
          "mode": 4
        }
      ]
    }
  ],
  "nodes": [
    {
      "children": [
        1
      ],
      "matrix": [
        1.0,
        0.0,
        0.0,
        0.0,
        0.0,
        2.220446049250313e-16,
        -1.0,
        0.0,
        0.0,
        1.0,
        2.220446049250313e-16,
        0.0,
        0.0,
        0.0,
        0.0,
        1.0
      ],
      "name": "Sketchfab_model"
    },
    {
      "children": [
        2,
        3,
        4,
        5,
        6,
        7,
        8
      ],
      "name": "14 dvg.obj.cleaner.materialmerger.gles"
    },
    {
      "mesh": 0,
      "name": "Object_2"
    },
    {
      "mesh": 1,
      "name": "Object_3"
    },
    {
      "mesh": 2,
      "name": "Object_4"
    },
    {
      "mesh": 3,
      "name": "Object_5"
    },
    {
      "mesh": 4,
      "name": "Object_6"
    },
    {
      "mesh": 5,
      "name": "Object_7"
    },
    {
      "mesh": 6,
      "name": "Object_8"
    }
  ],
  "samplers": [
    {
      "magFilter": 9729,
      "minFilter": 9987,
      "wrapS": 10497,
      "wrapT": 10497
    }
  ],
  "scene": 0,
  "scenes": [
    {
      "name": "Sketchfab_Scene",
      "nodes": [
        0
      ]
    }
  ],
  "textures": [
    {
      "sampler": 0,
      "source": 0
    },
    {
      "sampler": 0,
      "source": 1
    },
    {
      "sampler": 0,
      "source": 2
    },
    {
      "sampler": 0,
      "source": 3
    },
    {
      "sampler": 0,
      "source": 4
    },
    {
      "sampler": 0,
      "source": 5
    }
  ]
}
