{
  "accessors": [
    {
      "bufferView": 2,
      "componentType": 5126,
      "count": 1660,
      "max": [
        18.64989471435547,
        2.8714540004730225,
        66.48343658447266
      ],
      "min": [
        -18.537817001342773,
        -4.809607982635498,
        0.28609800338745117
      ],
      "type": "VEC3"
    },
    {
      "bufferView": 2,
      "byteOffset": 19920,
      "componentType": 5126,
      "count": 1660,
      "max": [
        0.9995113015174866,
        0.9999005794525146,
        0.9998893737792969
      ],
      "min": [
        -0.9999890327453613,
        -0.9995996356010437,
        -0.9990037083625793
      ],
      "type": "VEC3"
    },
    {
      "bufferView": 1,
      "componentType": 5126,
      "count": 1660,
      "max": [
        0.9921870231628418,
        0.993071973323822
      ],
      "min": [
        0.008086999878287315,
        0.0038530000019818544
      ],
      "type": "VEC2"
    },
    {
      "bufferView": 0,
      "componentType": 5125,
      "count": 7566,
      "type": "SCALAR"
    },
    {
      "bufferView": 2,
      "byteOffset": 39840,
      "componentType": 5126,
      "count": 472,
      "max": [
        8.268906593322754,
        3.3110570907592773,
        8.185933113098145
      ],
      "min": [
        -8.055026054382324,
        -5.435135841369629,
        0.027506999671459198
      ],
      "type": "VEC3"
    },
    {
      "bufferView": 2,
      "byteOffset": 45504,
      "componentType": 5126,
      "count": 472,
      "max": [
        0.9998084902763367,
        0.9998177886009216,
        0.9990922808647156
      ],
      "min": [
        -0.9999890327453613,
        -0.9934663772583008,
        -0.9999779462814331
      ],
      "type": "VEC3"
    },
    {
      "bufferView": 1,
      "byteOffset": 13280,
      "componentType": 5126,
      "count": 472,
      "max": [
        0.9934080243110657,
        0.9964140057563782
      ],
      "min": [
        0.004561999812722206,
        0.002701000077649951
      ],
      "type": "VEC2"
    },
    {
      "bufferView": 0,
      "byteOffset": 30264,
      "componentType": 5125,
      "count": 1908,
      "type": "SCALAR"
    },
    {
      "bufferView": 2,
      "byteOffset": 51168,
      "componentType": 5126,
      "count": 1056,
      "max": [
        7.890120983123779,
        4.443497180938721,
        41.94142532348633
      ],
      "min": [
        -7.901411056518555,
        -4.556889057159424,
        5.656632900238037
      ],
      "type": "VEC3"
    },
    {
      "bufferView": 2,
      "byteOffset": 63840,
      "componentType": 5126,
      "count": 1056,
      "max": [
        0.9991859197616577,
        0.9998084902763367,
        0.9968099594116211
      ],
      "min": [
        -0.9999475479125977,
        -0.9999890327453613,
        -0.9601811170578003
      ],
      "type": "VEC3"
    },
    {
      "bufferView": 1,
      "byteOffset": 17056,
      "componentType": 5126,
      "count": 1056,
      "max": [
        0.9903870224952698,
        0.98614501953125
      ],
      "min": [
        0.008086999878287315,
        0.010575000196695328
      ],
      "type": "VEC2"
    },
    {
      "bufferView": 0,
      "byteOffset": 37896,
      "componentType": 5125,
      "count": 4647,
      "type": "SCALAR"
    },
    {
      "bufferView": 2,
      "byteOffset": 76512,
      "componentType": 5126,
      "count": 1769,
      "max": [
        18.143033981323242,
        6.102291107177734,
        59.526878356933594
      ],
      "min": [
        -18.525720596313477,
        -7.100348949432373,
        35.76608657836914
      ],
      "type": "VEC3"
    },
    {
      "bufferView": 2,
      "byteOffset": 97740,
      "componentType": 5126,
      "count": 1769,
      "max": [
        0.9994972348213196,
        0.9997238516807556,
        0.9990037083625793
      ],
      "min": [
        -0.998869776725769,
        -0.9995432496070862,
        -0.9959333539009094
      ],
      "type": "VEC3"
    },
    {
      "bufferView": 1,
      "byteOffset": 25504,
      "componentType": 5126,
      "count": 1769,
      "max": [
        0.9964600205421448,
        0.9926149845123291
      ],
      "min": [
        0.006500000134110451,
        0.004089000169187784
      ],
      "type": "VEC2"
    },
    {
      "bufferView": 0,
      "byteOffset": 56484,
      "componentType": 5125,
      "count": 7197,
      "type": "SCALAR"
    },
    {
      "bufferView": 2,
      "byteOffset": 118968,
      "componentType": 5126,
      "count": 163,
      "max": [
        2.8305130004882813,
        2.478039026260376,
        61.770259857177734
      ],
      "min": [
        -3.05326509475708,
        -4.933594226837158,
        52.2688102722168
      ],
      "type": "VEC3"
    },
    {
      "bufferView": 2,
      "byteOffset": 120924,
      "componentType": 5126,
      "count": 163,
      "max": [
        0.9935175180435181,
        0.97197425365448,
        0.9323895573616028
      ],
      "min": [
        -0.9910045862197876,
        -0.9914709329605103,
        -0.8232249021530151
      ],
      "type": "VEC3"
    },
    {
      "bufferView": 1,
      "byteOffset": 39656,
      "componentType": 5126,
      "count": 163,
      "max": [
        0.9830780029296875,
        0.815762996673584
      ],
      "min": [
        0.009689000435173512,
        0.0894939973950386
      ],
      "type": "VEC2"
    },
    {
      "bufferView": 0,
      "byteOffset": 85272,
      "componentType": 5125,
      "count": 672,
      "type": "SCALAR"
    },
    {
      "bufferView": 2,
      "byteOffset": 122880,
      "componentType": 5126,
      "count": 1507,
      "max": [
        3.132910966873169,
        6.900350093841553,
        67.19248962402344
      ],
      "min": [
        -2.977902889251709,
        -3.9031450748443604,
        59.73065185546875
      ],
      "type": "VEC3"
    },
    {
      "bufferView": 2,
      "byteOffset": 140964,
      "componentType": 5126,
      "count": 1507,
      "max": [
        0.9995856881141663,
        0.9992743730545044,
        0.9994466304779053
      ],
      "min": [
        -0.9993175268173218,
        -0.9981203079223633,
        -0.9821317195892334
      ],
      "type": "VEC3"
    },
    {
      "bufferView": 1,
      "byteOffset": 40960,
      "componentType": 5126,
      "count": 1507,
      "max": [
        0.996749997138977,
        0.9960939884185791
      ],
      "min": [
        0.007782000117003918,
        0.0032500000670552254
      ],
      "type": "VEC2"
    },
    {
      "bufferView": 0,
      "byteOffset": 87960,
      "componentType": 5125,
      "count": 4965,
      "type": "SCALAR"
    }
  ],
  "asset": {
    "extras": {
      "author": "PACE GAMING FF (https://sketchfab.com/MDARBAZ_.OR___-PACEGAMINGFF)",
      "license": "CC-BY-4.0 (http://creativecommons.org/licenses/by/4.0/)",
      "source": "https://sketchfab.com/3d-models/freefire-new-female-3d-model-by-pace-gaming-c1660269cbc4481ab76fbfdd65a917e6",
      "title": "freefire new  female 3d model by pace gaming"
    },
    "generator": "Sketchfab-14.8.0",
    "version": "2.0"
  },
  "bufferViews": [
    {
      "buffer": 0,
      "byteLength": 107820,
      "name": "floatBufferViews",
      "target": 34963
    },
    {
      "buffer": 0,
      "byteLength": 53016,
      "byteOffset": 107820,
      "byteStride": 8,
      "name": "floatBufferViews",
      "target": 34962
    },
    {
      "buffer": 0,
      "byteLength": 159048,
      "byteOffset": 160836,
      "byteStride": 12,
      "name": "floatBufferViews",
      "target": 34962
    }
  ],
  "buffers": [
    {
      "byteLength": 319884,
      "uri": "scene.bin"
    }
  ],
  "images": [
    {
      "uri": "textures/mat0.006_baseColor.png"
    },
    {
      "uri": "textures/mat0.007_baseColor.png"
    },
    {
      "uri": "textures/mat0.008_baseColor.png"
    },
    {
      "uri": "textures/mat0.009_baseColor.png"
    },
    {
      "uri": "textures/mat0.010_baseColor.png"
    },
    {
      "uri": "textures/mat0.011_baseColor.png"
    }
  ],
  "materials": [
    {
      "doubleSided": true,
      "name": "mat0.006",
      "pbrMetallicRoughness": {
        "baseColorTexture": {
          "index": 0
        },
        "metallicFactor": 0.0,
        "roughnessFactor": 0.6342256411356907
      }
    },
    {
      "doubleSided": true,
      "name": "mat0.007",
      "pbrMetallicRoughness": {
        "baseColorTexture": {
          "index": 1
        },
        "metallicFactor": 0.0,
        "roughnessFactor": 0.6342256411356907
      }
    },
    {
      "doubleSided": true,
      "name": "mat0.008",
      "pbrMetallicRoughness": {
        "baseColorTexture": {
          "index": 2
        },
        "metallicFactor": 0.0,
        "roughnessFactor": 0.6342256411356907
      }
    },
    {
      "doubleSided": true,
      "name": "mat0.009",
      "pbrMetallicRoughness": {
        "baseColorTexture": {
          "index": 3
        },
        "metallicFactor": 0.0,
        "roughnessFactor": 0.6342256411356907
      }
    },
    {
      "doubleSided": true,
      "name": "mat0.010",
      "pbrMetallicRoughness": {
        "baseColorTexture": {
          "index": 4
        },
        "metallicFactor": 0.0,
        "roughnessFactor": 0.6342256411356907
      }
    },
    {
      "doubleSided": true,
      "name": "mat0.011",
      "pbrMetallicRoughness": {
        "baseColorTexture": {
          "index": 5
        },
        "metallicFactor": 0.0,
        "roughnessFactor": 0.6342256411356907
      }
    }
  ],
  "meshes": [
    {
      "name": "Object_0",
      "primitives": [
        {
          "attributes": {
            "NORMAL": 1,
            "POSITION": 0,
            "TEXCOORD_0": 2
          },
          "indices": 3,
          "material": 0,
          "mode": 4
        }
      ]
    },
    {
      "name": "Object_1",
      "primitives": [
        {
          "attributes": {
            "NORMAL": 5,
            "POSITION": 4,
            "TEXCOORD_0": 6
          },
          "indices": 7,
          "material": 1,
          "mode": 4
        }
      ]
    },
    {
      "name": "Object_2",
      "primitives": [
        {
          "attributes": {
            "NORMAL": 9,
            "POSITION": 8,
            "TEXCOORD_0": 10
          },
          "indices": 11,
          "material": 2,
          "mode": 4
        }
      ]
    },
    {
      "name": "Object_3",
      "primitives": [
        {
          "attributes": {
            "NORMAL": 13,
            "POSITION": 12,
            "TEXCOORD_0": 14
          },
          "indices": 15,
          "material": 3,
          "mode": 4
        }
      ]
    },
    {
      "name": "Object_4",
      "primitives": [
        {
          "attributes": {
            "NORMAL": 17,
            "POSITION": 16,
            "TEXCOORD_0": 18
          },
          "indices": 19,
          "material": 4,
          "mode": 4
        }
      ]
    },
    {
      "name": "Object_5",
      "primitives": [
        {
          "attributes": {
            "NORMAL": 21,
            "POSITION": 20,
            "TEXCOORD_0": 22
          },
          "indices": 23,
          "material": 5,
          "mode": 4
        }
      ]
    }
  ],
  "nodes": [
    {
      "children": [
        1
      ],
      "matrix": [
        1.0,
        0.0,
        0.0,
        0.0,
        0.0,
        2.220446049250313e-16,
        -1.0,
        0.0,
        0.0,
        1.0,
        2.220446049250313e-16,
        0.0,
        0.0,
        0.0,
        0.0,
        1.0
      ],
      "name": "Sketchfab_model"
    },
    {
      "children": [
        2,
        3,
        4,
        5,
        6,
        7
      ],
      "name": "34 dvg.obj.cleaner.materialmerger.gles"
    },
    {
      "mesh": 0,
      "name": "Object_2"
    },
    {
      "mesh": 1,
      "name": "Object_3"
    },
    {
      "mesh": 2,
      "name": "Object_4"
    },
    {
      "mesh": 3,
      "name": "Object_5"
    },
    {
      "mesh": 4,
      "name": "Object_6"
    },
    {
      "mesh": 5,
      "name": "Object_7"
    }
  ],
  "samplers": [
    {
      "magFilter": 9729,
      "minFilter": 9987,
      "wrapS": 10497,
      "wrapT": 10497
    }
  ],
  "scene": 0,
  "scenes": [
    {
      "name": "Sketchfab_Scene",
      "nodes": [
        0
      ]
    }
  ],
  "textures": [
    {
      "sampler": 0,
      "source": 0
    },
    {
      "sampler": 0,
      "source": 1
    },
    {
      "sampler": 0,
      "source": 2
    },
    {
      "sampler": 0,
      "source": 3
    },
    {
      "sampler": 0,
      "source": 4
    },
    {
      "sampler": 0,
      "source": 5
    }
  ]
}
