{
  "accessors": [
    {
      "bufferView": 2,
      "componentType": 5126,
      "count": 1964,
      "max": [
        0.30539700388908386,
        0.14003899693489075,
        1.0626959800720215
      ],
      "min": [
        -0.2929750084877014,
        -0.14038099348545074,
        0.0009190000128000975
      ],
      "type": "VEC3"
    },
    {
      "bufferView": 2,
      "byteOffset": 23568,
      "componentType": 5126,
      "count": 1964,
      "max": [
        0.9998003840446472,
        0.9999216794967651,
        0.9997963309288025
      ],
      "min": [
        -0.9999212026596069,
        -0.9998607635498047,
        -0.9955075979232788
      ],
      "type": "VEC3"
    },
    {
      "bufferView": 1,
      "componentType": 5126,
      "count": 1964,
      "max": [
        0.9976649880409241,
        0.9974820017814636
      ],
      "min": [
        0.0044559999369084835,
        0.0023350000847131014
      ],
      "type": "VEC2"
    },
    {
      "bufferView": 0,
      "componentType": 5125,
      "count": 8241,
      "type": "SCALAR"
    },
    {
      "bufferView": 2,
      "byteOffset": 47136,
      "componentType": 5126,
      "count": 754,
      "max": [
        0.2992030084133148,
        0.13277199864387512,
        1.4268399477005005
      ],
      "min": [
        -0.29942700266838074,
        -0.03370099887251854,
        1.2643189430236816
      ],
      "type": "VEC3"
    },
    {
      "bufferView": 2,
      "byteOffset": 56184,
      "componentType": 5126,
      "count": 754,
      "max": [
        0.9999228715896606,
        0.9694533348083496,
        0.9997959733009338
      ],
      "min": [
        -0.9999212026596069,
        -0.9780144691467285,
        -0.9995561242103577
      ],
      "type": "VEC3"
    },
    {
      "bufferView": 1,
      "byteOffset": 15712,
      "componentType": 5126,
      "count": 754,
      "max": [
        0.654994010925293,
        0.41199401021003723
      ],
      "min": [
        0.1151600033044815,
        0.00076299998909235
      ],
      "type": "VEC2"
    },
    {
      "bufferView": 0,
      "byteOffset": 32964,
      "componentType": 5125,
      "count": 3708,
      "type": "SCALAR"
    },
    {
      "bufferView": 2,
      "byteOffset": 65232,
      "componentType": 5126,
      "count": 2311,
      "max": [
        0.5605059862136841,
        0.15467600524425507,
        1.5111440420150757
      ],
      "min": [
        -0.56072998046875,
        -0.10377400368452072,
        0.8799769878387451
      ],
      "type": "VEC3"
    },
    {
      "bufferView": 2,
      "byteOffset": 92964,
      "componentType": 5126,
      "count": 2311,
      "max": [
        0.9999228715896606,
        0.9999847412109375,
        0.997745156288147
      ],
      "min": [
        -0.9997959733009338,
        -0.9999239444732666,
        -0.9995549321174622
      ],
      "type": "VEC3"
    },
    {
      "bufferView": 1,
      "byteOffset": 21744,
      "componentType": 5126,
      "count": 2311,
      "max": [
        0.9983059763908386,
        0.9938809871673584
      ],
      "min": [
        0.004654000047594309,
        0.0041809999383986
      ],
      "type": "VEC2"
    },
    {
      "bufferView": 0,
      "byteOffset": 47796,
      "componentType": 5125,
      "count": 10023,
      "type": "SCALAR"
    },
    {
      "bufferView": 2,
      "byteOffset": 120696,
      "componentType": 5126,
      "count": 575,
      "max": [
        0.07390899956226349,
        0.02677600085735321,
        1.6325260400772095
      ],
      "min": [
        -0.07370500266551971,
        -0.1172579973936081,
        1.4560099840164185
      ],
      "type": "VEC3"
    },
    {
      "bufferView": 2,
      "byteOffset": 127596,
      "componentType": 5126,
      "count": 575,
      "max": [
        0.9905641078948975,
        0.9996114373207092,
        0.9993000030517578
      ],
      "min": [
        -0.9920822381973267,
        -0.9978995323181152,
        -0.9999228715896606
      ],
      "type": "VEC3"
    },
    {
      "bufferView": 1,
      "byteOffset": 40232,
      "componentType": 5126,
      "count": 575,
      "max": [
        0.995864987373352,
        0.9946439862251282
      ],
      "min": [
        0.0045779999345541,
        0.005675999913364649
      ],
      "type": "VEC2"
    },
    {
      "bufferView": 0,
      "byteOffset": 87888,
      "componentType": 5125,
      "count": 2292,
      "type": "SCALAR"
    },
    {
      "bufferView": 2,
      "byteOffset": 134496,
      "componentType": 5126,
      "count": 969,
      "max": [
        0.11509999632835388,
        0.1268949955701828,
        1.7031550407409668
      ],
      "min": [
        -0.11500199884176254,
        -0.11971600353717804,
        1.4045079946517944
      ],
      "type": "VEC3"
    },
    {
      "bufferView": 2,
      "byteOffset": 146124,
      "componentType": 5126,
      "count": 969,
      "max": [
        0.9994324445724487,
        0.9997959733009338,
        0.9933102130889893
      ],
      "min": [
        -0.9997959733009338,
        -0.9991846084594727,
        -0.9986351132392883
      ],
      "type": "VEC3"
    },
    {
      "bufferView": 1,
      "byteOffset": 44832,
      "componentType": 5126,
      "count": 969,
      "max": [
        0.9888910055160522,
        0.9859920144081116
      ],
      "min": [
        0.011109000071883202,
        0.01014699973165989
      ],
      "type": "VEC2"
    },
    {
      "bufferView": 0,
      "byteOffset": 97056,
      "componentType": 5125,
      "count": 4002,
      "type": "SCALAR"
    },
    {
      "bufferView": 2,
      "byteOffset": 157752,
      "componentType": 5126,
      "count": 2218,
      "max": [
        0.5733810067176819,
        0.11522600054740906,
        1.6785789728164673
      ],
      "min": [
        -0.573606014251709,
        -0.10772699862718582,
        0.8289030194282532
      ],
      "type": "VEC3"
    },
    {
      "bufferView": 2,
      "byteOffset": 184368,
      "componentType": 5126,
      "count": 2218,
      "max": [
        0.9999239444732666,
        0.9999847412109375,
        0.9982384443283081
      ],
      "min": [
        -0.9999840259552002,
        -0.9999847412109375,
        -0.9997382760047913
      ],
      "type": "VEC3"
    },
    {
      "bufferView": 1,
      "byteOffset": 52584,
      "componentType": 5126,
      "count": 2218,
      "max": [
        0.9953309893608093,
        0.9962080121040344
      ],
      "min": [
        0.008057000115513802,
        0.0038449999410659075
      ],
      "type": "VEC2"
    },
    {
      "bufferView": 0,
      "byteOffset": 113064,
      "componentType": 5125,
      "count": 10320,
      "type": "SCALAR"
    },
    {
      "bufferView": 2,
      "byteOffset": 210984,
      "componentType": 5126,
      "count": 848,
      "max": [
        0.2559809982776642,
        0.13939699530601501,
        0.1895110011100769
      ],
      "min": [
        -0.2562069892883301,
        -0.16213500499725342,
        -0.005812999792397022
      ],
      "type": "VEC3"
    },
    {
      "bufferView": 2,
      "byteOffset": 221160,
      "componentType": 5126,
      "count": 848,
      "max": [
        0.9996158480644226,
        0.9844840168952942,
        0.9997959733009338
      ],
      "min": [
        -0.9996098875999451,
        -0.9982681274414063,
        -0.999984860420227
      ],
      "type": "VEC3"
    },
    {
      "bufferView": 1,
      "byteOffset": 70328,
      "componentType": 5126,
      "count": 848,
      "max": [
        0.9935449957847595,
        0.990218997001648
      ],
      "min": [
        0.0012969999806955457,
        0.006455000024288893
      ],
      "type": "VEC2"
    },
    {
      "bufferView": 0,
      "byteOffset": 154344,
      "componentType": 5125,
      "count": 2928,
      "type": "SCALAR"
    }
  ],
  "asset": {
    "extras": {
      "author": "FFXN (https://sketchfab.com/FFXN-FF)",
      "license": "CC-BY-4.0 (http://creativecommons.org/licenses/by/4.0/)",
      "source": "https://sketchfab.com/3d-models/booyah-pass-s03-project-azure-bundle-by-ffxn-d0976dd2279f4920bb725e8b8306fefb",
      "title": "BOOYAH PASS S03 PROJECT AZURE BUNDLE BY FFXN"
    },
    "generator": "Sketchfab-15.8.0",
    "version": "2.0"
  },
  "bufferViews": [
    {
      "buffer": 0,
      "byteLength": 166056,
      "name": "floatBufferViews",
      "target": 34963
    },
    {
      "buffer": 0,
      "byteLength": 77112,
      "byteOffset": 166056,
      "byteStride": 8,
      "name": "floatBufferViews",
      "target": 34962
    },
    {
      "buffer": 0,
      "byteLength": 231336,
      "byteOffset": 243168,
      "byteStride": 12,
      "name": "floatBufferViews",
      "target": 34962
    }
  ],
  "buffers": [
    {
      "byteLength": 474504,
      "uri": "scene.bin"
    }
  ],
  "extensionsUsed": [
    "KHR_materials_specular"
  ],
  "images": [
    {
      "uri": "textures/mat0.008_baseColor.png"
    },
    {
      "uri": "textures/mat0.009_baseColor.png"
    },
    {
      "uri": "textures/mat0.010_baseColor.png"
    },
    {
      "uri": "textures/mat0.011_baseColor.png"
    },
    {
      "uri": "textures/mat0.012_baseColor.png"
    },
    {
      "uri": "textures/mat0.013_baseColor.png"
    },
    {
      "uri": "textures/mat0.014_baseColor.png"
    }
  ],
  "materials": [
    {
      "doubleSided": true,
      "extensions": {
        "KHR_materials_specular": {
          "specularColorFactor": [
            1.0,
            1.0,
            1.0
          ],
          "specularFactor": 0.0
        }
      },
      "name": "mat0.008",
      "pbrMetallicRoughness": {
        "baseColorTexture": {
          "index": 0
        },
        "metallicFactor": 0.0,
        "roughnessFactor": 0.6
      }
    },
    {
      "doubleSided": true,
      "extensions": {
        "KHR_materials_specular": {
          "specularColorFactor": [
            1.0,
            1.0,
            1.0
          ],
          "specularFactor": 0.0
        }
      },
      "name": "mat0.009",
      "pbrMetallicRoughness": {
        "baseColorTexture": {
          "index": 1
        },
        "metallicFactor": 0.0,
        "roughnessFactor": 0.6
      }
    },
    {
      "doubleSided": true,
      "extensions": {
        "KHR_materials_specular": {
          "specularColorFactor": [
            1.0,
            1.0,
            1.0
          ],
          "specularFactor": 0.0
        }
      },
      "name": "mat0.010",
      "pbrMetallicRoughness": {
        "baseColorTexture": {
          "index": 2
        },
        "metallicFactor": 0.0,
        "roughnessFactor": 0.6
      }
    },
    {
      "doubleSided": true,
      "extensions": {
        "KHR_materials_specular": {
          "specularColorFactor": [
            1.0,
            1.0,
            1.0
          ],
          "specularFactor": 0.0
        }
      },
      "name": "mat0.011",
      "pbrMetallicRoughness": {
        "baseColorTexture": {
          "index": 3
        },
        "metallicFactor": 0.0,
        "roughnessFactor": 0.6
      }
    },
    {
      "doubleSided": true,
      "extensions": {
        "KHR_materials_specular": {
          "specularColorFactor": [
            1.0,
            1.0,
            1.0
          ],
          "specularFactor": 0.0
        }
      },
      "name": "mat0.012",
      "pbrMetallicRoughness": {
        "baseColorTexture": {
          "index": 4
        },
        "metallicFactor": 0.0,
        "roughnessFactor": 0.6
      }
    },
    {
      "doubleSided": true,
      "extensions": {
        "KHR_materials_specular": {
          "specularColorFactor": [
            1.0,
            1.0,
            1.0
          ],
          "specularFactor": 0.0
        }
      },
      "name": "mat0.013",
      "pbrMetallicRoughness": {
        "baseColorTexture": {
          "index": 5
        },
        "metallicFactor": 0.0,
        "roughnessFactor": 0.6
      }
    },
    {
      "doubleSided": true,
      "extensions": {
        "KHR_materials_specular": {
          "specularColorFactor": [
            1.0,
            1.0,
            1.0
          ],
          "specularFactor": 0.0
        }
      },
      "name": "mat0.014",
      "pbrMetallicRoughness": {
        "baseColorTexture": {
          "index": 6
        },
        "metallicFactor": 0.0,
        "roughnessFactor": 0.6
      }
    }
  ],
  "meshes": [
    {
      "name": "Object_0",
      "primitives": [
        {
          "attributes": {
            "NORMAL": 1,
            "POSITION": 0,
            "TEXCOORD_0": 2
          },
          "indices": 3,
          "material": 0,
          "mode": 4
        }
      ]
    },
    {
      "name": "Object_1",
      "primitives": [
        {
          "attributes": {
            "NORMAL": 5,
            "POSITION": 4,
            "TEXCOORD_0": 6
          },
          "indices": 7,
          "material": 1,
          "mode": 4
        }
      ]
    },
    {
      "name": "Object_2",
      "primitives": [
        {
          "attributes": {
            "NORMAL": 9,
            "POSITION": 8,
            "TEXCOORD_0": 10
          },
          "indices": 11,
          "material": 2,
          "mode": 4
        }
      ]
    },
    {
      "name": "Object_3",
      "primitives": [
        {
          "attributes": {
            "NORMAL": 13,
            "POSITION": 12,
            "TEXCOORD_0": 14
          },
          "indices": 15,
          "material": 3,
          "mode": 4
        }
      ]
    },
    {
      "name": "Object_4",
      "primitives": [
        {
          "attributes": {
            "NORMAL": 17,
            "POSITION": 16,
            "TEXCOORD_0": 18
          },
          "indices": 19,
          "material": 4,
          "mode": 4
        }
      ]
    },
    {
      "name": "Object_5",
      "primitives": [
        {
          "attributes": {
            "NORMAL": 21,
            "POSITION": 20,
            "TEXCOORD_0": 22
          },
          "indices": 23,
          "material": 5,
          "mode": 4
        }
      ]
    },
    {
      "name": "Object_6",
      "primitives": [
        {
          "attributes": {
            "NORMAL": 25,
            "POSITION": 24,
            "TEXCOORD_0": 26
          },
          "indices": 27,
          "material": 6,
          "mode": 4
        }
      ]
    }
  ],
  "nodes": [
    {
      "children": [
        1
      ],
      "matrix": [
        1.0,
        0.0,
        0.0,
        0.0,
        0.0,
        2.220446049250313e-16,
        -1.0,
        0.0,
        0.0,
        1.0,
        2.220446049250313e-16,
        0.0,
        0.0,
        0.0,
        0.0,
        1.0
      ],
      "name": "Sketchfab_model"
    },
    {
      "children": [
        2,
        3,
        4,
        5,
        6,
        7,
        8
      ],
      "name": "BOOYAH PASS 3D MODEL BY FFXN.obj.cleaner.materialmerger.gles"
    },
    {
      "mesh": 0,
      "name": "Object_2"
    },
    {
      "mesh": 1,
      "name": "Object_3"
    },
    {
      "mesh": 2,
      "name": "Object_4"
    },
    {
      "mesh": 3,
      "name": "Object_5"
    },
    {
      "mesh": 4,
      "name": "Object_6"
    },
    {
      "mesh": 5,
      "name": "Object_7"
    },
    {
      "mesh": 6,
      "name": "Object_8"
    }
  ],
  "samplers": [
    {
      "magFilter": 9729,
      "minFilter": 9987,
      "wrapS": 10497,
      "wrapT": 10497
    }
  ],
  "scene": 0,
  "scenes": [
    {
      "name": "Sketchfab_Scene",
      "nodes": [
        0
      ]
    }
  ],
  "textures": [
    {
      "sampler": 0,
      "source": 0
    },
    {
      "sampler": 0,
      "source": 1
    },
    {
      "sampler": 0,
      "source": 2
    },
    {
      "sampler": 0,
      "source": 3
    },
    {
      "sampler": 0,
      "source": 4
    },
    {
      "sampler": 0,
      "source": 5
    },
    {
      "sampler": 0,
      "source": 6
    }
  ]
}
