{
  "accessors": [
    {
      "bufferView": 2,
      "componentType": 5126,
      "count": 1653,
      "max": [
        4.786592960357666,
        0.9229570031166077,
        14.036727905273438
      ],
      "min": [
        -4.7884039878845215,
        -0.6339150071144104,
        6.948324203491211
      ],
      "type": "VEC3"
    },
    {
      "bufferView": 2,
      "byteOffset": 19836,
      "componentType": 5126,
      "count": 1653,
      "max": [
        0.9997000098228455,
        0.9998157620429993,
        0.9991260170936584
      ],
      "min": [
        -0.9987568855285645,
        -0.9990026354789734,
        -0.9974758625030518
      ],
      "type": "VEC3"
    },
    {
      "bufferView": 1,
      "componentType": 5126,
      "count": 1653,
      "max": [
        0.9989010095596313,
        0.8908519744873047
      ],
      "min": [
        0.0021210000850260258,
        0.0038530000019818544
      ],
      "type": "VEC2"
    },
    {
      "bufferView": 0,
      "componentType": 5125,
      "count": 8139,
      "type": "SCALAR"
    },
    {
      "bufferView": 2,
      "byteOffset": 39672,
      "componentType": 5126,
      "count": 502,
      "max": [
        2.1019320487976074,
        1.1602849960327148,
        2.9909589290618896
      ],
      "min": [
        -2.0797030925750732,
        -1.0228049755096436,
        -0.23338200151920319
      ],
      "type": "VEC3"
    },
    {
      "bufferView": 2,
      "byteOffset": 45696,
      "componentType": 5126,
      "count": 502,
      "max": [
        0.9999784231185913,
        0.9942490458488464,
        0.9964229464530945
      ],
      "min": [
        -0.999823272228241,
        -0.9967033267021179,
        -0.9999339580535889
      ],
      "type": "VEC3"
    },
    {
      "bufferView": 1,
      "byteOffset": 13224,
      "componentType": 5126,
      "count": 502,
      "max": [
        0.989333987236023,
        0.9897310137748718
      ],
      "min": [
        0.008545000106096268,
        0.013504000380635262
      ],
      "type": "VEC2"
    },
    {
      "bufferView": 0,
      "byteOffset": 32556,
      "componentType": 5125,
      "count": 2232,
      "type": "SCALAR"
    },
    {
      "bufferView": 2,
      "byteOffset": 51720,
      "componentType": 5126,
      "count": 2690,
      "max": [
        4.687644958496094,
        1.4593030214309692,
        14.355772018432617
      ],
      "min": [
        -4.689468860626221,
        -0.8605160117149353,
        2.1892659664154053
      ],
      "type": "VEC3"
    },
    {
      "bufferView": 2,
      "byteOffset": 84000,
      "componentType": 5126,
      "count": 2690,
      "max": [
        0.9993579387664795,
        0.9998714923858643,
        0.9996516108512878
      ],
      "min": [
        -0.9999967813491821,
        -0.9999854564666748,
        -0.9998962879180908
      ],
      "type": "VEC3"
    },
    {
      "bufferView": 1,
      "byteOffset": 17240,
      "componentType": 5126,
      "count": 2690,
      "max": [
        0.995635986328125,
        0.9994509816169739
      ],
      "min": [
        0.0024870000779628754,
        0.0016169999726116657
      ],
      "type": "VEC2"
    },
    {
      "bufferView": 0,
      "byteOffset": 41484,
      "componentType": 5125,
      "count": 11994,
      "type": "SCALAR"
    },
    {
      "bufferView": 2,
      "byteOffset": 116280,
      "componentType": 5126,
      "count": 2405,
      "max": [
        0.6415879726409912,
        1.0229740142822266,
        14.276247024536133
      ],
      "min": [
        -0.6858680248260498,
        -0.5031480193138123,
        12.569791793823242
      ],
      "type": "VEC3"
    },
    {
      "bufferView": 2,
      "byteOffset": 145140,
      "componentType": 5126,
      "count": 2405,
      "max": [
        0.9999556541442871,
        0.9994582533836365,
        0.9998322129249573
      ],
      "min": [
        -0.9995043873786926,
        -0.9998453259468079,
        -0.9745237231254578
      ],
      "type": "VEC3"
    },
    {
      "bufferView": 1,
      "byteOffset": 38760,
      "componentType": 5126,
      "count": 2405,
      "max": [
        0.7338979840278625,
        1.0
      ],
      "min": [
        0.0011899999808520079,
        0.0
      ],
      "type": "VEC2"
    },
    {
      "bufferView": 0,
      "byteOffset": 89460,
      "componentType": 5125,
      "count": 7548,
      "type": "SCALAR"
    },
    {
      "bufferView": 2,
      "byteOffset": 174000,
      "componentType": 5126,
      "count": 344,
      "max": [
        0.5791900157928467,
        -0.10581400245428085,
        13.906563758850098
      ],
      "min": [
        -0.5771710276603699,
        -1.0008490085601807,
        12.166964530944824
      ],
      "type": "VEC3"
    },
    {
      "bufferView": 2,
      "byteOffset": 178128,
      "componentType": 5126,
      "count": 344,
      "max": [
        0.9839745759963989,
        0.9979380965232849,
        0.9843177199363708
      ],
      "min": [
        -0.9762247800827026,
        -0.999933123588562,
        -0.9976420998573303
      ],
      "type": "VEC3"
    },
    {
      "bufferView": 1,
      "byteOffset": 58000,
      "componentType": 5126,
      "count": 344,
      "max": [
        0.9887850284576416,
        0.987883985042572
      ],
      "min": [
        0.013473999686539173,
        0.028717000037431717
      ],
      "type": "VEC2"
    },
    {
      "bufferView": 0,
      "byteOffset": 119652,
      "componentType": 5125,
      "count": 1776,
      "type": "SCALAR"
    }
  ],
  "asset": {
    "extras": {
      "author": "FFXN (https://sketchfab.com/FFXN-FF)",
      "license": "CC-BY-4.0 (http://creativecommons.org/licenses/by/4.0/)",
      "source": "https://sketchfab.com/3d-models/neon-criminal-bundle-free-fire-3d-model-by-ffxn-93b3ff8b11a34334902dfcb0012eeb8f",
      "title": "NEON CRIMINAL BUNDLE FREE FIRE 3D MODEL BY FFXN"
    },
    "generator": "Sketchfab-15.5.0",
    "version": "2.0"
  },
  "bufferViews": [
    {
      "buffer": 0,
      "byteLength": 126756,
      "name": "floatBufferViews",
      "target": 34963
    },
    {
      "buffer": 0,
      "byteLength": 60752,
      "byteOffset": 126756,
      "byteStride": 8,
      "name": "floatBufferViews",
      "target": 34962
    },
    {
      "buffer": 0,
      "byteLength": 182256,
      "byteOffset": 187508,
      "byteStride": 12,
      "name": "floatBufferViews",
      "target": 34962
    }
  ],
  "buffers": [
    {
      "byteLength": 369764,
      "uri": "scene.bin"
    }
  ],
  "extensionsUsed": [
    "KHR_materials_specular"
  ],
  "images": [
    {
      "uri": "textures/mat0.002_baseColor.png"
    },
    {
      "uri": "textures/mat0.003_baseColor.png"
    },
    {
      "uri": "textures/mat0.004_baseColor.png"
    },
    {
      "uri": "textures/mat0.011_baseColor.png"
    },
    {
      "uri": "textures/mat0.012_baseColor.png"
    }
  ],
  "materials": [
    {
      "doubleSided": true,
      "extensions": {
        "KHR_materials_specular": {
          "specularColorFactor": [
            1.0,
            1.0,
            1.0
          ],
          "specularFactor": 0.0
        }
      },
      "name": "mat0.002",
      "pbrMetallicRoughness": {
        "baseColorTexture": {
          "index": 0
        },
        "metallicFactor": 0.0,
        "roughnessFactor": 0.6
      }
    },
    {
      "doubleSided": true,
      "extensions": {
        "KHR_materials_specular": {
          "specularColorFactor": [
            1.0,
            1.0,
            1.0
          ],
          "specularFactor": 0.0
        }
      },
      "name": "mat0.003",
      "pbrMetallicRoughness": {
        "baseColorTexture": {
          "index": 1
        },
        "metallicFactor": 0.0,
        "roughnessFactor": 0.6
      }
    },
    {
      "doubleSided": true,
      "extensions": {
        "KHR_materials_specular": {
          "specularColorFactor": [
            1.0,
            1.0,
            1.0
          ],
          "specularFactor": 0.0
        }
      },
      "name": "mat0.004",
      "pbrMetallicRoughness": {
        "baseColorTexture": {
          "index": 2
        },
        "metallicFactor": 0.0,
        "roughnessFactor": 0.6
      }
    },
    {
      "doubleSided": true,
      "extensions": {
        "KHR_materials_specular": {
          "specularColorFactor": [
            1.0,
            1.0,
            1.0
          ],
          "specularFactor": 0.0
        }
      },
      "name": "mat0.011",
      "pbrMetallicRoughness": {
        "baseColorTexture": {
          "index": 3
        },
        "metallicFactor": 0.0,
        "roughnessFactor": 0.6
      }
    },
    {
      "doubleSided": true,
      "extensions": {
        "KHR_materials_specular": {
          "specularColorFactor": [
            1.0,
            1.0,
            1.0
          ],
          "specularFactor": 0.0
        }
      },
      "name": "mat0.012",
      "pbrMetallicRoughness": {
        "baseColorTexture": {
          "index": 4
        },
        "metallicFactor": 0.0,
        "roughnessFactor": 0.6
      }
    }
  ],
  "meshes": [
    {
      "name": "Object_0",
      "primitives": [
        {
          "attributes": {
            "NORMAL": 1,
            "POSITION": 0,
            "TEXCOORD_0": 2
          },
          "indices": 3,
          "material": 0,
          "mode": 4
        }
      ]
    },
    {
      "name": "Object_1",
      "primitives": [
        {
          "attributes": {
            "NORMAL": 5,
            "POSITION": 4,
            "TEXCOORD_0": 6
          },
          "indices": 7,
          "material": 1,
          "mode": 4
        }
      ]
    },
    {
      "name": "Object_2",
      "primitives": [
        {
          "attributes": {
            "NORMAL": 9,
            "POSITION": 8,
            "TEXCOORD_0": 10
          },
          "indices": 11,
          "material": 2,
          "mode": 4
        }
      ]
    },
    {
      "name": "Object_3",
      "primitives": [
        {
          "attributes": {
            "NORMAL": 13,
            "POSITION": 12,
            "TEXCOORD_0": 14
          },
          "indices": 15,
          "material": 3,
          "mode": 4
        }
      ]
    },
    {
      "name": "Object_4",
      "primitives": [
        {
          "attributes": {
            "NORMAL": 17,
            "POSITION": 16,
            "TEXCOORD_0": 18
          },
          "indices": 19,
          "material": 4,
          "mode": 4
        }
      ]
    }
  ],
  "nodes": [
    {
      "children": [
        1
      ],
      "matrix": [
        1.0,
        0.0,
        0.0,
        0.0,
        0.0,
        2.220446049250313e-16,
        -1.0,
        0.0,
        0.0,
        1.0,
        2.220446049250313e-16,
        0.0,
        0.0,
        0.0,
        0.0,
        1.0
      ],
      "name": "Sketchfab_model"
    },
    {
      "children": [
        2,
        3,
        4,
        5,
        6
      ],
      "name": "CRIMINAL BUNDLE FREEFIRE.obj.cleaner.materialmerger.gles"
    },
    {
      "mesh": 0,
      "name": "Object_2"
    },
    {
      "mesh": 1,
      "name": "Object_3"
    },
    {
      "mesh": 2,
      "name": "Object_4"
    },
    {
      "mesh": 3,
      "name": "Object_5"
    },
    {
      "mesh": 4,
      "name": "Object_6"
    }
  ],
  "samplers": [
    {
      "magFilter": 9729,
      "minFilter": 9987,
      "wrapS": 10497,
      "wrapT": 10497
    }
  ],
  "scene": 0,
  "scenes": [
    {
      "name": "Sketchfab_Scene",
      "nodes": [
        0
      ]
    }
  ],
  "textures": [
    {
      "sampler": 0,
      "source": 0
    },
    {
      "sampler": 0,
      "source": 1
    },
    {
      "sampler": 0,
      "source": 2
    },
    {
      "sampler": 0,
      "source": 3
    },
    {
      "sampler": 0,
      "source": 4
    }
  ]
}
