{
  "accessors": [
    {
      "bufferView": 2,
      "componentType": 5126,
      "count": 538,
      "max": [
        0.7074429988861084,
        0.3368789851665497,
        0.4644230008125305
      ],
      "min": [
        -0.9452630281448364,
        -0.599416971206665,
        -0.0020759999752044678
      ],
      "type": "VEC3"
    },
    {
      "bufferView": 2,
      "byteOffset": 6456,
      "componentType": 5126,
      "count": 538,
      "max": [
        0.9992228746414185,
        0.9962374567985535,
        0.9999330043792725
      ],
      "min": [
        -0.9986127614974976,
        -0.9926332831382751,
        -0.9999837875366211
      ],
      "type": "VEC3"
    },
    {
      "bufferView": 1,
      "componentType": 5126,
      "count": 538,
      "max": [
        0.988968014717102,
        0.9874569773674011
      ],
      "min": [
        0.01922599971294403,
        0.013900999911129475
      ],
      "type": "VEC2"
    },
    {
      "bufferView": 0,
      "componentType": 5125,
      "count": 2004,
      "type": "SCALAR"
    },
    {
      "bufferView": 2,
      "byteOffset": 12912,
      "componentType": 5126,
      "count": 1276,
      "max": [
        1.4267569780349731,
        0.49549400806427,
        4.2741780281066895
      ],
      "min": [
        -1.6584160327911377,
        -0.4139629900455475,
        2.559257984161377
      ],
      "type": "VEC3"
    },
    {
      "bufferView": 2,
      "byteOffset": 28224,
      "componentType": 5126,
      "count": 1276,
      "max": [
        0.9997395873069763,
        0.9999945163726807,
        0.9462557435035706
      ],
      "min": [
        -0.9998983144760132,
        -0.9992595911026001,
        -0.9999674558639526
      ],
      "type": "VEC3"
    },
    {
      "bufferView": 1,
      "byteOffset": 4304,
      "componentType": 5126,
      "count": 1276,
      "max": [
        0.9934229850769043,
        0.9885560274124146
      ],
      "min": [
        0.004668999928981066,
        0.00559999980032444
      ],
      "type": "VEC2"
    },
    {
      "bufferView": 0,
      "byteOffset": 8016,
      "componentType": 5125,
      "count": 5589,
      "type": "SCALAR"
    },
    {
      "bufferView": 2,
      "byteOffset": 43536,
      "componentType": 5126,
      "count": 820,
      "max": [
        0.22207699716091156,
        -0.02278199978172779,
        5.035975933074951
      ],
      "min": [
        -0.528784990310669,
        -0.3987489938735962,
        4.07665491104126
      ],
      "type": "VEC3"
    },
    {
      "bufferView": 2,
      "byteOffset": 53376,
      "componentType": 5126,
      "count": 820,
      "max": [
        0.9999094009399414,
        0.9927451610565186,
        0.9656150937080383
      ],
      "min": [
        -0.999119222164154,
        -0.9980941414833069,
        -0.9891194105148315
      ],
      "type": "VEC3"
    },
    {
      "bufferView": 1,
      "byteOffset": 14512,
      "componentType": 5126,
      "count": 820,
      "max": [
        0.9813230037689209,
        0.9971619844436646
      ],
      "min": [
        0.012497000396251678,
        0.009979000315070152
      ],
      "type": "VEC2"
    },
    {
      "bufferView": 0,
      "byteOffset": 30372,
      "componentType": 5125,
      "count": 3786,
      "type": "SCALAR"
    },
    {
      "bufferView": 2,
      "byteOffset": 63216,
      "componentType": 5126,
      "count": 1128,
      "max": [
        0.10645800083875656,
        0.5835970044136047,
        5.14595890045166
      ],
      "min": [
        -0.37299299240112305,
        -0.31315699219703674,
        4.12625789642334
      ],
      "type": "VEC3"
    },
    {
      "bufferView": 2,
      "byteOffset": 76752,
      "componentType": 5126,
      "count": 1128,
      "max": [
        0.9910675287246704,
        0.9994972348213196,
        0.9993301630020142
      ],
      "min": [
        -0.9990120530128479,
        -0.9948880076408386,
        -0.9994257688522339
      ],
      "type": "VEC3"
    },
    {
      "bufferView": 1,
      "byteOffset": 21072,
      "componentType": 5126,
      "count": 1128,
      "max": [
        0.9890440106391907,
        0.9933009743690491
      ],
      "min": [
        0.014419999904930592,
        0.021561000496149063
      ],
      "type": "VEC2"
    },
    {
      "bufferView": 0,
      "byteOffset": 45516,
      "componentType": 5125,
      "count": 2982,
      "type": "SCALAR"
    },
    {
      "bufferView": 2,
      "byteOffset": 90288,
      "componentType": 5126,
      "count": 975,
      "max": [
        0.6626240015029907,
        0.38639599084854126,
        2.8439950942993164
      ],
      "min": [
        -0.933568000793457,
        -0.44468799233436584,
        0.3331179916858673
      ],
      "type": "VEC3"
    },
    {
      "bufferView": 2,
      "byteOffset": 101988,
      "componentType": 5126,
      "count": 975,
      "max": [
        0.998897135257721,
        0.9982876181602478,
        0.99458909034729
      ],
      "min": [
        -0.9995625615119934,
        -0.9984576106071472,
        -0.9999860525131226
      ],
      "type": "VEC3"
    },
    {
      "bufferView": 1,
      "byteOffset": 30096,
      "componentType": 5126,
      "count": 975,
      "max": [
        0.9939119815826416,
        0.9944760203361511
      ],
      "min": [
        0.008407999761402607,
        0.005127000156790018
      ],
      "type": "VEC2"
    },
    {
      "bufferView": 0,
      "byteOffset": 57444,
      "componentType": 5125,
      "count": 4236,
      "type": "SCALAR"
    },
    {
      "bufferView": 2,
      "byteOffset": 113688,
      "componentType": 5126,
      "count": 1747,
      "max": [
        1.4370399713516235,
        0.3723840117454529,
        4.7756028175354
      ],
      "min": [
        -1.6749379634857178,
        -0.5492550134658813,
        0.04711399972438812
      ],
      "type": "VEC3"
    },
    {
      "bufferView": 2,
      "byteOffset": 134652,
      "componentType": 5126,
      "count": 1747,
      "max": [
        0.9996554255485535,
        0.9997814297676086,
        0.9977585077285767
      ],
      "min": [
        -0.9997413754463196,
        -0.9999724626541138,
        -0.9995355010032654
      ],
      "type": "VEC3"
    },
    {
      "bufferView": 1,
      "byteOffset": 37896,
      "componentType": 5126,
      "count": 1747,
      "max": [
        0.9934229850769043,
        0.9953150153160095
      ],
      "min": [
        0.008086999878287315,
        0.0038530000019818544
      ],
      "type": "VEC2"
    },
    {
      "bufferView": 0,
      "byteOffset": 74388,
      "componentType": 5125,
      "count": 8382,
      "type": "SCALAR"
    }
  ],
  "asset": {
    "extras": {
      "author": "PACE GAMING FF (https://sketchfab.com/MDARBAZ_.OR___-PACEGAMINGFF)",
      "license": "CC-BY-4.0 (http://creativecommons.org/licenses/by/4.0/)",
      "source": "https://sketchfab.com/3d-models/freefire-new-golden-elite-pass-season-1-4c1f6b0667f04f2793571b8271e43e4b",
      "title": "freefire new GOLDEN ELITE PASS SEASON 1"
    },
    "generator": "Sketchfab-14.64.0",
    "version": "2.0"
  },
  "bufferViews": [
    {
      "buffer": 0,
      "byteLength": 107916,
      "name": "floatBufferViews",
      "target": 34963
    },
    {
      "buffer": 0,
      "byteLength": 51872,
      "byteOffset": 107916,
      "byteStride": 8,
      "name": "floatBufferViews",
      "target": 34962
    },
    {
      "buffer": 0,
      "byteLength": 155616,
      "byteOffset": 159788,
      "byteStride": 12,
      "name": "floatBufferViews",
      "target": 34962
    }
  ],
  "buffers": [
    {
      "byteLength": 315404,
      "uri": "scene.bin"
    }
  ],
  "images": [
    {
      "uri": "textures/mat0.018_baseColor.png"
    },
    {
      "uri": "textures/mat0.019_baseColor.png"
    },
    {
      "uri": "textures/mat0.020_baseColor.png"
    },
    {
      "uri": "textures/mat0.021_baseColor.png"
    },
    {
      "uri": "textures/mat0.022_baseColor.png"
    },
    {
      "uri": "textures/mat0.023_baseColor.png"
    }
  ],
  "materials": [
    {
      "doubleSided": true,
      "name": "mat0.018",
      "pbrMetallicRoughness": {
        "baseColorTexture": {
          "index": 0
        },
        "metallicFactor": 0.0,
        "roughnessFactor": 0.6342256411356907
      }
    },
    {
      "doubleSided": true,
      "name": "mat0.019",
      "pbrMetallicRoughness": {
        "baseColorTexture": {
          "index": 1
        },
        "metallicFactor": 0.0,
        "roughnessFactor": 0.6342256411356907
      }
    },
    {
      "doubleSided": true,
      "name": "mat0.020",
      "pbrMetallicRoughness": {
        "baseColorTexture": {
          "index": 2
        },
        "metallicFactor": 0.0,
        "roughnessFactor": 0.6342256411356907
      }
    },
    {
      "doubleSided": true,
      "name": "mat0.021",
      "pbrMetallicRoughness": {
        "baseColorTexture": {
          "index": 3
        },
        "metallicFactor": 0.0,
        "roughnessFactor": 0.6342256411356907
      }
    },
    {
      "doubleSided": true,
      "name": "mat0.022",
      "pbrMetallicRoughness": {
        "baseColorTexture": {
          "index": 4
        },
        "metallicFactor": 0.0,
        "roughnessFactor": 0.6342256411356907
      }
    },
    {
      "doubleSided": true,
      "name": "mat0.023",
      "pbrMetallicRoughness": {
        "baseColorTexture": {
          "index": 5
        },
        "metallicFactor": 0.0,
        "roughnessFactor": 0.6342256411356907
      }
    }
  ],
  "meshes": [
    {
      "name": "Object_0",
      "primitives": [
        {
          "attributes": {
            "NORMAL": 1,
            "POSITION": 0,
            "TEXCOORD_0": 2
          },
          "indices": 3,
          "material": 0,
          "mode": 4
        }
      ]
    },
    {
      "name": "Object_1",
      "primitives": [
        {
          "attributes": {
            "NORMAL": 5,
            "POSITION": 4,
            "TEXCOORD_0": 6
          },
          "indices": 7,
          "material": 1,
          "mode": 4
        }
      ]
    },
    {
      "name": "Object_2",
      "primitives": [
        {
          "attributes": {
            "NORMAL": 9,
            "POSITION": 8,
            "TEXCOORD_0": 10
          },
          "indices": 11,
          "material": 2,
          "mode": 4
        }
      ]
    },
    {
      "name": "Object_3",
      "primitives": [
        {
          "attributes": {
            "NORMAL": 13,
            "POSITION": 12,
            "TEXCOORD_0": 14
          },
          "indices": 15,
          "material": 3,
          "mode": 4
        }
      ]
    },
    {
      "name": "Object_4",
      "primitives": [
        {
          "attributes": {
            "NORMAL": 17,
            "POSITION": 16,
            "TEXCOORD_0": 18
          },
          "indices": 19,
          "material": 4,
          "mode": 4
        }
      ]
    },
    {
      "name": "Object_5",
      "primitives": [
        {
          "attributes": {
            "NORMAL": 21,
            "POSITION": 20,
            "TEXCOORD_0": 22
          },
          "indices": 23,
          "material": 5,
          "mode": 4
        }
      ]
    }
  ],
  "nodes": [
    {
      "children": [
        1
      ],
      "matrix": [
        1.0,
        0.0,
        0.0,
        0.0,
        0.0,
        2.220446049250313e-16,
        -1.0,
        0.0,
        0.0,
        1.0,
        2.220446049250313e-16,
        0.0,
        0.0,
        0.0,
        0.0,
        1.0
      ],
      "name": "Sketchfab_model"
    },
    {
      "children": [
        2,
        3,
        4,
        5,
        6,
        7
      ],
      "name": "S 1.obj.cleaner.materialmerger.gles"
    },
    {
      "mesh": 0,
      "name": "Object_2"
    },
    {
      "mesh": 1,
      "name": "Object_3"
    },
    {
      "mesh": 2,
      "name": "Object_4"
    },
    {
      "mesh": 3,
      "name": "Object_5"
    },
    {
      "mesh": 4,
      "name": "Object_6"
    },
    {
      "mesh": 5,
      "name": "Object_7"
    }
  ],
  "samplers": [
    {
      "magFilter": 9729,
      "minFilter": 9987,
      "wrapS": 10497,
      "wrapT": 10497
    }
  ],
  "scene": 0,
  "scenes": [
    {
      "name": "Sketchfab_Scene",
      "nodes": [
        0
      ]
    }
  ],
  "textures": [
    {
      "sampler": 0,
      "source": 0
    },
    {
      "sampler": 0,
      "source": 1
    },
    {
      "sampler": 0,
      "source": 2
    },
    {
      "sampler": 0,
      "source": 3
    },
    {
      "sampler": 0,
      "source": 4
    },
    {
      "sampler": 0,
      "source": 5
    }
  ]
}
