{
  "accessors": [
    {
      "bufferView": 2,
      "componentType": 5126,
      "count": 1640,
      "max": [
        0.1489659994840622,
        0.3236770033836365,
        4.339293956756592
      ],
      "min": [
        -0.45779600739479065,
        -0.3142629861831665,
        3.738379955291748
      ],
      "type": "VEC3"
    },
    {
      "bufferView": 2,
      "byteOffset": 19680,
      "componentType": 5126,
      "count": 1640,
      "max": [
        0.9983169436454773,
        0.9943671822547913,
        0.9998631477355957
      ],
      "min": [
        -0.9997645020484924,
        -0.9989451169967651,
        -0.6030163168907166
      ],
      "type": "VEC3"
    },
    {
      "bufferView": 1,
      "componentType": 5126,
      "count": 1640,
      "max": [
        0.9941859841346741,
        0.9938049912452698
      ],
      "min": [
        0.04589900001883507,
        0.006912000011652708
      ],
      "type": "VEC2"
    },
    {
      "bufferView": 0,
      "componentType": 5125,
      "count": 4644,
      "type": "SCALAR"
    },
    {
      "bufferView": 2,
      "byteOffset": 39360,
      "componentType": 5126,
      "count": 316,
      "max": [
        0.017123999074101448,
        0.18305900692939758,
        4.380512237548828
      ],
      "min": [
        -0.5249360203742981,
        -0.3845910131931305,
        3.925676107406616
      ],
      "type": "VEC3"
    },
    {
      "bufferView": 2,
      "byteOffset": 43152,
      "componentType": 5126,
      "count": 316,
      "max": [
        0.9727698564529419,
        0.9557756185531616,
        0.9683892726898193
      ],
      "min": [
        -0.9965457320213318,
        -0.9847232699394226,
        -0.9631860852241516
      ],
      "type": "VEC3"
    },
    {
      "bufferView": 1,
      "byteOffset": 13120,
      "componentType": 5126,
      "count": 316,
      "max": [
        0.9861909747123718,
        0.9950100183486938
      ],
      "min": [
        0.005096999928355217,
        0.01090999972075224
      ],
      "type": "VEC2"
    },
    {
      "bufferView": 0,
      "byteOffset": 18576,
      "componentType": 5125,
      "count": 1464,
      "type": "SCALAR"
    },
    {
      "bufferView": 2,
      "byteOffset": 46944,
      "componentType": 5126,
      "count": 1573,
      "max": [
        0.7781199812889099,
        0.3006359934806824,
        3.743993043899536
      ],
      "min": [
        -1.0334579944610596,
        -0.40237700939178467,
        2.19030499458313
      ],
      "type": "VEC3"
    },
    {
      "bufferView": 2,
      "byteOffset": 65820,
      "componentType": 5126,
      "count": 1573,
      "max": [
        0.9984918832778931,
        0.9995960593223572,
        0.9975173473358154
      ],
      "min": [
        -0.9960710406303406,
        -0.9984567761421204,
        -0.9990678429603577
      ],
      "type": "VEC3"
    },
    {
      "bufferView": 1,
      "byteOffset": 15648,
      "componentType": 5126,
      "count": 1573,
      "max": [
        0.993270993232727,
        0.9946140050888062
      ],
      "min": [
        0.007567999884486198,
        0.006500000134110451
      ],
      "type": "VEC2"
    },
    {
      "bufferView": 0,
      "byteOffset": 24432,
      "componentType": 5125,
      "count": 6762,
      "type": "SCALAR"
    },
    {
      "bufferView": 2,
      "byteOffset": 84696,
      "componentType": 5126,
      "count": 1817,
      "max": [
        0.4722929894924164,
        0.3123149871826172,
        2.7991740703582764
      ],
      "min": [
        -0.915099024772644,
        -0.3804050087928772,
        0.36459100246429443
      ],
      "type": "VEC3"
    },
    {
      "bufferView": 2,
      "byteOffset": 106500,
      "componentType": 5126,
      "count": 1817,
      "max": [
        0.9998782873153687,
        0.9994845986366272,
        0.9999865293502808
      ],
      "min": [
        -0.9999983310699463,
        -0.9999713897705078,
        -0.9989584684371948
      ],
      "type": "VEC3"
    },
    {
      "bufferView": 1,
      "byteOffset": 28232,
      "componentType": 5126,
      "count": 1817,
      "max": [
        0.993133008480072,
        0.9941099882125854
      ],
      "min": [
        0.01133699994534254,
        0.0057830000296235085
      ],
      "type": "VEC2"
    },
    {
      "bufferView": 0,
      "byteOffset": 51480,
      "componentType": 5125,
      "count": 7764,
      "type": "SCALAR"
    },
    {
      "bufferView": 2,
      "byteOffset": 128304,
      "componentType": 5126,
      "count": 790,
      "max": [
        0.5609009861946106,
        0.25570398569107056,
        0.38604500889778137
      ],
      "min": [
        -0.41669899225234985,
        -0.3996889889240265,
        -0.011614000424742699
      ],
      "type": "VEC3"
    },
    {
      "bufferView": 2,
      "byteOffset": 137784,
      "componentType": 5126,
      "count": 790,
      "max": [
        0.999501645565033,
        0.9902098774909973,
        0.9999231100082397
      ],
      "min": [
        -0.9998281598091125,
        -0.9949888586997986,
        -0.9999955892562866
      ],
      "type": "VEC3"
    },
    {
      "bufferView": 1,
      "byteOffset": 42768,
      "componentType": 5126,
      "count": 790,
      "max": [
        0.9887239933013916,
        0.9893800020217896
      ],
      "min": [
        0.011063000187277794,
        0.012954999692738056
      ],
      "type": "VEC2"
    },
    {
      "bufferView": 0,
      "byteOffset": 82536,
      "componentType": 5125,
      "count": 2256,
      "type": "SCALAR"
    },
    {
      "bufferView": 2,
      "byteOffset": 147264,
      "componentType": 5126,
      "count": 1872,
      "max": [
        0.7812619805335999,
        0.2407509982585907,
        4.268336772918701
      ],
      "min": [
        -1.0322589874267578,
        -0.3398889899253845,
        0.0024659999180585146
      ],
      "type": "VEC3"
    },
    {
      "bufferView": 2,
      "byteOffset": 169728,
      "componentType": 5126,
      "count": 1872,
      "max": [
        0.9988792538642883,
        0.9998753070831299,
        0.9945949912071228
      ],
      "min": [
        -0.9984734654426575,
        -0.9996927380561829,
        -0.9992040395736694
      ],
      "type": "VEC3"
    },
    {
      "bufferView": 1,
      "byteOffset": 49088,
      "componentType": 5126,
      "count": 1872,
      "max": [
        0.9921870231628418,
        0.9933009743690491
      ],
      "min": [
        0.008086999878287315,
        0.0038530000019818544
      ],
      "type": "VEC2"
    },
    {
      "bufferView": 0,
      "byteOffset": 91560,
      "componentType": 5125,
      "count": 8862,
      "type": "SCALAR"
    }
  ],
  "asset": {
    "extras": {
      "author": "Phoenix... (https://sketchfab.com/projectend0005)",
      "license": "CC-BY-4.0 (http://creativecommons.org/licenses/by/4.0/)",
      "source": "https://sketchfab.com/3d-models/burmuda-kunoichi-free-fire-85c510b3f75244a4a7bbf342591b0fce",
      "title": "Burmuda Kunoichi free fire"
    },
    "generator": "Sketchfab-12.64.0",
    "version": "2.0"
  },
  "bufferViews": [
    {
      "buffer": 0,
      "byteLength": 127008,
      "name": "floatBufferViews",
      "target": 34963
    },
    {
      "buffer": 0,
      "byteLength": 64064,
      "byteOffset": 127008,
      "byteStride": 8,
      "name": "floatBufferViews",
      "target": 34962
    },
    {
      "buffer": 0,
      "byteLength": 192192,
      "byteOffset": 191072,
      "byteStride": 12,
      "name": "floatBufferViews",
      "target": 34962
    }
  ],
  "buffers": [
    {
      "byteLength": 383264,
      "uri": "scene.bin"
    }
  ],
  "images": [
    {
      "uri": "textures/mat0_baseColor.png"
    },
    {
      "uri": "textures/mat0.001_baseColor.png"
    },
    {
      "uri": "textures/mat0.002_baseColor.png"
    },
    {
      "uri": "textures/mat0.003_baseColor.png"
    },
    {
      "uri": "textures/mat0.004_baseColor.png"
    },
    {
      "uri": "textures/mat0.005_baseColor.png"
    }
  ],
  "materials": [
    {
      "doubleSided": true,
      "name": "mat0",
      "pbrMetallicRoughness": {
        "baseColorTexture": {
          "index": 0
        },
        "metallicFactor": 0.0,
        "roughnessFactor": 0.6
      }
    },
    {
      "doubleSided": true,
      "name": "mat0.001",
      "pbrMetallicRoughness": {
        "baseColorTexture": {
          "index": 1
        },
        "metallicFactor": 0.0,
        "roughnessFactor": 0.6
      }
    },
    {
      "doubleSided": true,
      "name": "mat0.002",
      "pbrMetallicRoughness": {
        "baseColorTexture": {
          "index": 2
        },
        "metallicFactor": 0.0,
        "roughnessFactor": 0.6
      }
    },
    {
      "doubleSided": true,
      "name": "mat0.003",
      "pbrMetallicRoughness": {
        "baseColorTexture": {
          "index": 3
        },
        "metallicFactor": 0.0,
        "roughnessFactor": 0.6
      }
    },
    {
      "doubleSided": true,
      "name": "mat0.004",
      "pbrMetallicRoughness": {
        "baseColorTexture": {
          "index": 4
        },
        "metallicFactor": 0.0,
        "roughnessFactor": 0.6
      }
    },
    {
      "doubleSided": true,
      "name": "mat0.005",
      "pbrMetallicRoughness": {
        "baseColorTexture": {
          "index": 5
        },
        "metallicFactor": 0.0,
        "roughnessFactor": 0.6
      }
    }
  ],
  "meshes": [
    {
      "name": "Object_0",
      "primitives": [
        {
          "attributes": {
            "NORMAL": 1,
            "POSITION": 0,
            "TEXCOORD_0": 2
          },
          "indices": 3,
          "material": 0,
          "mode": 4
        }
      ]
    },
    {
      "name": "Object_1",
      "primitives": [
        {
          "attributes": {
            "NORMAL": 5,
            "POSITION": 4,
            "TEXCOORD_0": 6
          },
          "indices": 7,
          "material": 1,
          "mode": 4
        }
      ]
    },
    {
      "name": "Object_2",
      "primitives": [
        {
          "attributes": {
            "NORMAL": 9,
            "POSITION": 8,
            "TEXCOORD_0": 10
          },
          "indices": 11,
          "material": 2,
          "mode": 4
        }
      ]
    },
    {
      "name": "Object_3",
      "primitives": [
        {
          "attributes": {
            "NORMAL": 13,
            "POSITION": 12,
            "TEXCOORD_0": 14
          },
          "indices": 15,
          "material": 3,
          "mode": 4
        }
      ]
    },
    {
      "name": "Object_4",
      "primitives": [
        {
          "attributes": {
            "NORMAL": 17,
            "POSITION": 16,
            "TEXCOORD_0": 18
          },
          "indices": 19,
          "material": 4,
          "mode": 4
        }
      ]
    },
    {
      "name": "Object_5",
      "primitives": [
        {
          "attributes": {
            "NORMAL": 21,
            "POSITION": 20,
            "TEXCOORD_0": 22
          },
          "indices": 23,
          "material": 5,
          "mode": 4
        }
      ]
    }
  ],
  "nodes": [
    {
      "children": [
        1
      ],
      "matrix": [
        1.0,
        0.0,
        0.0,
        0.0,
        0.0,
        2.220446049250313e-16,
        -1.0,
        0.0,
        0.0,
        1.0,
        2.220446049250313e-16,
        0.0,
        0.0,
        0.0,
        0.0,
        1.0
      ],
      "name": "Sketchfab_model"
    },
    {
      "children": [
        2,
        3,
        4,
        5,
        6,
        7
      ],
      "name": "burmuda_kunoich.obj.cleaner.materialmerger.gles"
    },
    {
      "mesh": 0,
      "name": "Object_2"
    },
    {
      "mesh": 1,
      "name": "Object_3"
    },
    {
      "mesh": 2,
      "name": "Object_4"
    },
    {
      "mesh": 3,
      "name": "Object_5"
    },
    {
      "mesh": 4,
      "name": "Object_6"
    },
    {
      "mesh": 5,
      "name": "Object_7"
    }
  ],
  "samplers": [
    {
      "magFilter": 9729,
      "minFilter": 9987,
      "wrapS": 10497,
      "wrapT": 10497
    }
  ],
  "scene": 0,
  "scenes": [
    {
      "name": "Sketchfab_Scene",
      "nodes": [
        0
      ]
    }
  ],
  "textures": [
    {
      "sampler": 0,
      "source": 0
    },
    {
      "sampler": 0,
      "source": 1
    },
    {
      "sampler": 0,
      "source": 2
    },
    {
      "sampler": 0,
      "source": 3
    },
    {
      "sampler": 0,
      "source": 4
    },
    {
      "sampler": 0,
      "source": 5
    }
  ]
}
