{
  "accessors": [
    {
      "bufferView": 2,
      "componentType": 5126,
      "count": 314,
      "max": [
        0.5823709964752197,
        0.5616620182991028,
        5.987325191497803
      ],
      "min": [
        -0.5198929905891418,
        -0.567779004573822,
        5.44091796875
      ],
      "type": "VEC3"
    },
    {
      "bufferView": 2,
      "byteOffset": 3768,
      "componentType": 5126,
      "count": 314,
      "max": [
        0.9920468330383301,
        0.9940283298492432,
        0.9975585341453552
      ],
      "min": [
        -0.9945628643035889,
        -0.9931089878082275,
        -0.9934028387069702
      ],
      "type": "VEC3"
    },
    {
      "bufferView": 1,
      "componentType": 5126,
      "count": 314,
      "max": [
        0.9953309893608093,
        0.9891200065612793
      ],
      "min": [
        0.007385000120848417,
        0.006668000016361475
      ],
      "type": "VEC2"
    },
    {
      "bufferView": 0,
      "componentType": 5125,
      "count": 1278,
      "type": "SCALAR"
    },
    {
      "bufferView": 2,
      "byteOffset": 7536,
      "componentType": 5126,
      "count": 4725,
      "max": [
        1.9818830490112305,
        0.3735649883747101,
        5.807785987854004
      ],
      "min": [
        -1.9842040538787842,
        -0.463113009929657,
        0.006157000083476305
      ],
      "type": "VEC3"
    },
    {
      "bufferView": 2,
      "byteOffset": 64236,
      "componentType": 5126,
      "count": 4725,
      "max": [
        0.9999285936355591,
        0.9999818801879883,
        0.9997971653938293
      ],
      "min": [
        -0.9999862909317017,
        -0.9999862909317017,
        -0.9998607635498047
      ],
      "type": "VEC3"
    },
    {
      "bufferView": 1,
      "byteOffset": 2512,
      "componentType": 5126,
      "count": 4725,
      "max": [
        0.9996950030326843,
        0.995406985282898
      ],
      "min": [
        0.0007929999846965075,
        0.0037609999999403954
      ],
      "type": "VEC2"
    },
    {
      "bufferView": 0,
      "byteOffset": 5112,
      "componentType": 5125,
      "count": 25035,
      "type": "SCALAR"
    },
    {
      "bufferView": 2,
      "byteOffset": 120936,
      "componentType": 5126,
      "count": 462,
      "max": [
        0.8772349953651428,
        0.428396999835968,
        0.4550060033798218
      ],
      "min": [
        -0.8699129819869995,
        -0.5341100096702576,
        -0.018695000559091568
      ],
      "type": "VEC3"
    },
    {
      "bufferView": 2,
      "byteOffset": 126480,
      "componentType": 5126,
      "count": 462,
      "max": [
        0.9999285936355591,
        0.9999151229858398,
        0.9997971653938293
      ],
      "min": [
        -0.9999862909317017,
        -0.9720258712768555,
        -0.999984860420227
      ],
      "type": "VEC3"
    },
    {
      "bufferView": 1,
      "byteOffset": 40312,
      "componentType": 5126,
      "count": 462,
      "max": [
        0.9907839894294739,
        0.9930880069732666
      ],
      "min": [
        0.006912000011652708,
        0.008255000226199627
      ],
      "type": "VEC2"
    },
    {
      "bufferView": 0,
      "byteOffset": 105252,
      "componentType": 5125,
      "count": 1836,
      "type": "SCALAR"
    },
    {
      "bufferView": 2,
      "byteOffset": 132024,
      "componentType": 5126,
      "count": 1765,
      "max": [
        0.8324790000915527,
        0.5021610260009766,
        3.487135887145996
      ],
      "min": [
        -0.7640320062637329,
        -0.39330101013183594,
        0.44647300243377686
      ],
      "type": "VEC3"
    },
    {
      "bufferView": 2,
      "byteOffset": 153204,
      "componentType": 5126,
      "count": 1765,
      "max": [
        0.9999285936355591,
        0.999915599822998,
        0.9997966885566711
      ],
      "min": [
        -0.9999862909317017,
        -0.9999862909317017,
        -0.999984860420227
      ],
      "type": "VEC3"
    },
    {
      "bufferView": 1,
      "byteOffset": 44008,
      "componentType": 5126,
      "count": 1765,
      "max": [
        0.9970549941062927,
        0.9966430068016052
      ],
      "min": [
        0.004333999939262867,
        0.002945000072941184
      ],
      "type": "VEC2"
    },
    {
      "bufferView": 0,
      "byteOffset": 112596,
      "componentType": 5125,
      "count": 7032,
      "type": "SCALAR"
    },
    {
      "bufferView": 2,
      "byteOffset": 174384,
      "componentType": 5126,
      "count": 2194,
      "max": [
        1.745216965675354,
        0.5506759881973267,
        5.107247829437256
      ],
      "min": [
        -1.2431559562683105,
        -0.46595498919487,
        2.952455997467041
      ],
      "type": "VEC3"
    },
    {
      "bufferView": 2,
      "byteOffset": 200712,
      "componentType": 5126,
      "count": 2194,
      "max": [
        0.9997401833534241,
        0.9999818801879883,
        0.9986140727996826
      ],
      "min": [
        -0.999808132648468,
        -0.9999862909317017,
        -0.9997990727424622
      ],
      "type": "VEC3"
    },
    {
      "bufferView": 1,
      "byteOffset": 58128,
      "componentType": 5126,
      "count": 2194,
      "max": [
        0.9978790283203125,
        0.9967039823532104
      ],
      "min": [
        0.0023350000847131014,
        0.00407399982213974
      ],
      "type": "VEC2"
    },
    {
      "bufferView": 0,
      "byteOffset": 140724,
      "componentType": 5125,
      "count": 8682,
      "type": "SCALAR"
    },
    {
      "bufferView": 2,
      "byteOffset": 227040,
      "componentType": 5126,
      "count": 2891,
      "max": [
        0.35219499468803406,
        0.5516870021820068,
        5.768095016479492
      ],
      "min": [
        -0.37070098519325256,
        -0.3158619999885559,
        4.80659818649292
      ],
      "type": "VEC3"
    },
    {
      "bufferView": 2,
      "byteOffset": 261732,
      "componentType": 5126,
      "count": 2891,
      "max": [
        0.9999818801879883,
        0.9999282360076904,
        0.960293173789978
      ],
      "min": [
        -0.9999862909317017,
        -0.9916192293167114,
        -0.7665181159973145
      ],
      "type": "VEC3"
    },
    {
      "bufferView": 1,
      "byteOffset": 75680,
      "componentType": 5126,
      "count": 2891,
      "max": [
        0.9923400282859802,
        0.9946140050888062
      ],
      "min": [
        0.005386000033468008,
        0.007172000128775835
      ],
      "type": "VEC2"
    },
    {
      "bufferView": 0,
      "byteOffset": 175452,
      "componentType": 5125,
      "count": 8037,
      "type": "SCALAR"
    },
    {
      "bufferView": 2,
      "byteOffset": 296424,
      "componentType": 5126,
      "count": 432,
      "max": [
        0.24494899809360504,
        0.1250610053539276,
        5.516221046447754
      ],
      "min": [
        -0.24606099724769592,
        -0.3287689983844757,
        5.3611650466918945
      ],
      "type": "VEC3"
    },
    {
      "bufferView": 2,
      "byteOffset": 301608,
      "componentType": 5126,
      "count": 432,
      "max": [
        0.999919056892395,
        0.9999866485595703,
        0.9977402687072754
      ],
      "min": [
        -0.9994374513626099,
        -0.9999223947525024,
        -0.9977812170982361
      ],
      "type": "VEC3"
    },
    {
      "bufferView": 1,
      "byteOffset": 98808,
      "componentType": 5126,
      "count": 432,
      "max": [
        0.9937440156936646,
        0.9939730167388916
      ],
      "min": [
        0.005051000043749809,
        0.01785299926996231
      ],
      "type": "VEC2"
    },
    {
      "bufferView": 0,
      "byteOffset": 207600,
      "componentType": 5125,
      "count": 1512,
      "type": "SCALAR"
    }
  ],
  "asset": {
    "extras": {
      "author": "PACE GAMING FF (https://sketchfab.com/MDARBAZ_.OR___-PACEGAMINGFF)",
      "license": "CC-BY-4.0 (http://creativecommons.org/licenses/by/4.0/)",
      "source": "https://sketchfab.com/3d-models/freefire-new-male-3d-model-by-pace-gaming-947b52e9c8554a77b521fefa06cc5dfb",
      "title": "freefire new male 3d model by pace gaming"
    },
    "generator": "Sketchfab-14.87.0",
    "version": "2.0"
  },
  "bufferViews": [
    {
      "buffer": 0,
      "byteLength": 213648,
      "name": "floatBufferViews",
      "target": 34963
    },
    {
      "buffer": 0,
      "byteLength": 102264,
      "byteOffset": 213648,
      "byteStride": 8,
      "name": "floatBufferViews",
      "target": 34962
    },
    {
      "buffer": 0,
      "byteLength": 306792,
      "byteOffset": 315912,
      "byteStride": 12,
      "name": "floatBufferViews",
      "target": 34962
    }
  ],
  "buffers": [
    {
      "byteLength": 622704,
      "uri": "scene.bin"
    }
  ],
  "images": [
    {
      "uri": "textures/mat0_baseColor.png"
    },
    {
      "uri": "textures/mat0.001_baseColor.png"
    },
    {
      "uri": "textures/mat0.002_baseColor.png"
    },
    {
      "uri": "textures/mat0.003_baseColor.png"
    },
    {
      "uri": "textures/mat0.004_baseColor.png"
    },
    {
      "uri": "textures/mat0.005_baseColor.png"
    }
  ],
  "materials": [
    {
      "doubleSided": true,
      "name": "mat0",
      "pbrMetallicRoughness": {
        "baseColorTexture": {
          "index": 0
        },
        "metallicFactor": 0.0,
        "roughnessFactor": 0.6342256411356907
      }
    },
    {
      "doubleSided": true,
      "name": "mat0.001",
      "pbrMetallicRoughness": {
        "baseColorTexture": {
          "index": 1
        },
        "metallicFactor": 0.0,
        "roughnessFactor": 0.6342256411356907
      }
    },
    {
      "doubleSided": true,
      "name": "mat0.002",
      "pbrMetallicRoughness": {
        "baseColorTexture": {
          "index": 2
        },
        "metallicFactor": 0.0,
        "roughnessFactor": 0.6342256411356907
      }
    },
    {
      "doubleSided": true,
      "name": "mat0.003",
      "pbrMetallicRoughness": {
        "baseColorTexture": {
          "index": 3
        },
        "metallicFactor": 0.0,
        "roughnessFactor": 0.6342256411356907
      }
    },
    {
      "doubleSided": true,
      "name": "mat0.004",
      "pbrMetallicRoughness": {
        "baseColorTexture": {
          "index": 4
        },
        "metallicFactor": 0.0,
        "roughnessFactor": 0.6342256411356907
      }
    },
    {
      "doubleSided": true,
      "name": "mat0.005",
      "pbrMetallicRoughness": {
        "baseColorTexture": {
          "index": 5
        },
        "metallicFactor": 0.0,
        "roughnessFactor": 0.6342256411356907
      }
    },
    {
      "doubleSided": true,
      "name": "mat0.006",
      "pbrMetallicRoughness": {
        "baseColorTexture": {
          "index": 5
        },
        "metallicFactor": 0.0,
        "roughnessFactor": 0.6342256411356907
      }
    }
  ],
  "meshes": [
    {
      "name": "Object_0",
      "primitives": [
        {
          "attributes": {
            "NORMAL": 1,
            "POSITION": 0,
            "TEXCOORD_0": 2
          },
          "indices": 3,
          "material": 0,
          "mode": 4
        }
      ]
    },
    {
      "name": "Object_1",
      "primitives": [
        {
          "attributes": {
            "NORMAL": 5,
            "POSITION": 4,
            "TEXCOORD_0": 6
          },
          "indices": 7,
          "material": 1,
          "mode": 4
        }
      ]
    },
    {
      "name": "Object_2",
      "primitives": [
        {
          "attributes": {
            "NORMAL": 9,
            "POSITION": 8,
            "TEXCOORD_0": 10
          },
          "indices": 11,
          "material": 2,
          "mode": 4
        }
      ]
    },
    {
      "name": "Object_3",
      "primitives": [
        {
          "attributes": {
            "NORMAL": 13,
            "POSITION": 12,
            "TEXCOORD_0": 14
          },
          "indices": 15,
          "material": 3,
          "mode": 4
        }
      ]
    },
    {
      "name": "Object_4",
      "primitives": [
        {
          "attributes": {
            "NORMAL": 17,
            "POSITION": 16,
            "TEXCOORD_0": 18
          },
          "indices": 19,
          "material": 4,
          "mode": 4
        }
      ]
    },
    {
      "name": "Object_5",
      "primitives": [
        {
          "attributes": {
            "NORMAL": 21,
            "POSITION": 20,
            "TEXCOORD_0": 22
          },
          "indices": 23,
          "material": 5,
          "mode": 4
        }
      ]
    },
    {
      "name": "Object_6",
      "primitives": [
        {
          "attributes": {
            "NORMAL": 25,
            "POSITION": 24,
            "TEXCOORD_0": 26
          },
          "indices": 27,
          "material": 6,
          "mode": 4
        }
      ]
    }
  ],
  "nodes": [
    {
      "children": [
        1
      ],
      "matrix": [
        1.0,
        0.0,
        0.0,
        0.0,
        0.0,
        2.220446049250313e-16,
        -1.0,
        0.0,
        0.0,
        1.0,
        2.220446049250313e-16,
        0.0,
        0.0,
        0.0,
        0.0,
        1.0
      ],
      "name": "Sketchfab_model"
    },
    {
      "children": [
        2,
        3,
        4,
        5,
        6,
        7,
        8
      ],
      "name": "9.obj.cleaner.materialmerger.gles"
    },
    {
      "mesh": 0,
      "name": "Object_2"
    },
    {
      "mesh": 1,
      "name": "Object_3"
    },
    {
      "mesh": 2,
      "name": "Object_4"
    },
    {
      "mesh": 3,
      "name": "Object_5"
    },
    {
      "mesh": 4,
      "name": "Object_6"
    },
    {
      "mesh": 5,
      "name": "Object_7"
    },
    {
      "mesh": 6,
      "name": "Object_8"
    }
  ],
  "samplers": [
    {
      "magFilter": 9729,
      "minFilter": 9987,
      "wrapS": 10497,
      "wrapT": 10497
    }
  ],
  "scene": 0,
  "scenes": [
    {
      "name": "Sketchfab_Scene",
      "nodes": [
        0
      ]
    }
  ],
  "textures": [
    {
      "sampler": 0,
      "source": 0
    },
    {
      "sampler": 0,
      "source": 1
    },
    {
      "sampler": 0,
      "source": 2
    },
    {
      "sampler": 0,
      "source": 3
    },
    {
      "sampler": 0,
      "source": 4
    },
    {
      "sampler": 0,
      "source": 5
    }
  ]
}
