{
  "accessors": [
    {
      "bufferView": 2,
      "componentType": 5126,
      "count": 1943,
      "max": [
        0.2558949887752533,
        0.16762299835681915,
        1.0153100490570068
      ],
      "min": [
        -0.2398180067539215,
        -0.171751007437706,
        0.6128739714622498
      ],
      "type": "VEC3"
    },
    {
      "bufferView": 2,
      "byteOffset": 23316,
      "componentType": 5126,
      "count": 1943,
      "max": [
        0.9995362162590027,
        0.9994492530822754,
        0.999161422252655
      ],
      "min": [
        -0.9999314546585083,
        -0.9994509816169739,
        -0.9999175071716309
      ],
      "type": "VEC3"
    },
    {
      "bufferView": 1,
      "componentType": 5126,
      "count": 1943,
      "max": [
        0.9965059757232666,
        0.9957429766654968
      ],
      "min": [
        0.003295999951660633,
        0.00447099981829524
      ],
      "type": "VEC2"
    },
    {
      "bufferView": 0,
      "componentType": 5125,
      "count": 7884,
      "type": "SCALAR"
    },
    {
      "bufferView": 2,
      "byteOffset": 46632,
      "componentType": 5126,
      "count": 1430,
      "max": [
        0.24005800485610962,
        0.07516100257635117,
        1.1500550508499146
      ],
      "min": [
        -0.22262699902057648,
        -0.07304999977350235,
        0.5203589797019958
      ],
      "type": "VEC3"
    },
    {
      "bufferView": 2,
      "byteOffset": 63792,
      "componentType": 5126,
      "count": 1430,
      "max": [
        0.9979366660118103,
        0.9970440864562988,
        0.9891021251678467
      ],
      "min": [
        -0.9994012117385864,
        -0.9990102648735046,
        -0.9980891346931458
      ],
      "type": "VEC3"
    },
    {
      "bufferView": 1,
      "byteOffset": 15544,
      "componentType": 5126,
      "count": 1430,
      "max": [
        0.9935910105705261,
        0.8910729885101318
      ],
      "min": [
        0.004044000059366226,
        0.2519260048866272
      ],
      "type": "VEC2"
    },
    {
      "bufferView": 0,
      "byteOffset": 31536,
      "componentType": 5125,
      "count": 7224,
      "type": "SCALAR"
    },
    {
      "bufferView": 2,
      "byteOffset": 80952,
      "componentType": 5126,
      "count": 578,
      "max": [
        0.24812999367713928,
        0.09053999930620193,
        0.10330100357532501
      ],
      "min": [
        -0.2432669997215271,
        -0.0879409983754158,
        0.006266999989748001
      ],
      "type": "VEC3"
    },
    {
      "bufferView": 2,
      "byteOffset": 87888,
      "componentType": 5126,
      "count": 578,
      "max": [
        0.9873932600021362,
        0.9993743896484375,
        0.9963516592979431
      ],
      "min": [
        -0.9956233501434326,
        -0.998999297618866,
        -0.9998188614845276
      ],
      "type": "VEC3"
    },
    {
      "bufferView": 1,
      "byteOffset": 26984,
      "componentType": 5126,
      "count": 578,
      "max": [
        0.9845269918441772,
        0.9859009981155396
      ],
      "min": [
        0.020736999809741974,
        0.016419000923633575
      ],
      "type": "VEC2"
    },
    {
      "bufferView": 0,
      "byteOffset": 60432,
      "componentType": 5125,
      "count": 2202,
      "type": "SCALAR"
    },
    {
      "bufferView": 2,
      "byteOffset": 94824,
      "componentType": 5126,
      "count": 1470,
      "max": [
        0.1663230061531067,
        0.09123700112104416,
        0.6848120093345642
      ],
      "min": [
        -0.1816519945859909,
        -0.08836700022220612,
        0.07432100176811218
      ],
      "type": "VEC3"
    },
    {
      "bufferView": 2,
      "byteOffset": 112464,
      "componentType": 5126,
      "count": 1470,
      "max": [
        0.9999914169311523,
        0.9994967579841614,
        0.9994726777076721
      ],
      "min": [
        -0.99985671043396,
        -0.9994456768035889,
        -0.999677836894989
      ],
      "type": "VEC3"
    },
    {
      "bufferView": 1,
      "byteOffset": 31608,
      "componentType": 5126,
      "count": 1470,
      "max": [
        0.9947199821472168,
        0.9929500222206116
      ],
      "min": [
        0.017105000093579292,
        0.014298000372946262
      ],
      "type": "VEC2"
    },
    {
      "bufferView": 0,
      "byteOffset": 69240,
      "componentType": 5125,
      "count": 5208,
      "type": "SCALAR"
    },
    {
      "bufferView": 2,
      "byteOffset": 130104,
      "componentType": 5126,
      "count": 203,
      "max": [
        0.054030001163482666,
        0.06424400210380554,
        1.0569369792938232
      ],
      "min": [
        -0.05217299982905388,
        -0.0778139978647232,
        0.8737499713897705
      ],
      "type": "VEC3"
    },
    {
      "bufferView": 2,
      "byteOffset": 132540,
      "componentType": 5126,
      "count": 203,
      "max": [
        0.9956573843955994,
        0.9867460131645203,
        0.7535042762756348
      ],
      "min": [
        -0.9998902082443237,
        -0.9881136417388916,
        -0.961435854434967
      ],
      "type": "VEC3"
    },
    {
      "bufferView": 1,
      "byteOffset": 43368,
      "componentType": 5126,
      "count": 203,
      "max": [
        0.9879000186920166,
        0.8302590250968933
      ],
      "min": [
        0.007934999652206898,
        0.0890209972858429
      ],
      "type": "VEC2"
    },
    {
      "bufferView": 0,
      "byteOffset": 90072,
      "componentType": 5125,
      "count": 864,
      "type": "SCALAR"
    },
    {
      "bufferView": 2,
      "byteOffset": 134976,
      "componentType": 5126,
      "count": 1765,
      "max": [
        0.07382100075483322,
        0.06818400323390961,
        1.1859259605407715
      ],
      "min": [
        -0.05719200149178505,
        -0.08887600153684616,
        1.0355730056762695
      ],
      "type": "VEC3"
    },
    {
      "bufferView": 2,
      "byteOffset": 156156,
      "componentType": 5126,
      "count": 1765,
      "max": [
        0.9996020197868347,
        0.999925971031189,
        0.9986871480941772
      ],
      "min": [
        -0.9995320439338684,
        -0.9998160004615784,
        -0.8495446443557739
      ],
      "type": "VEC3"
    },
    {
      "bufferView": 1,
      "byteOffset": 44992,
      "componentType": 5126,
      "count": 1765,
      "max": [
        0.9925230145454407,
        0.8229039907455444
      ],
      "min": [
        0.005692000035196543,
        0.0036009999457746744
      ],
      "type": "VEC2"
    },
    {
      "bufferView": 0,
      "byteOffset": 93528,
      "componentType": 5125,
      "count": 5178,
      "type": "SCALAR"
    }
  ],
  "asset": {
    "extras": {
      "author": "PACE GAMING FF (https://sketchfab.com/MDARBAZ_.OR___-PACEGAMINGFF)",
      "license": "CC-BY-4.0 (http://creativecommons.org/licenses/by/4.0/)",
      "source": "https://sketchfab.com/3d-models/freefire-cool-boy-3d-model-by-pacegaming-ff-8eed81b5a9e54ee6a183e1168936a8c2",
      "title": "freefire cool boy 3d model by pacegaming ff"
    },
    "generator": "Sketchfab-12.56.0",
    "version": "2.0"
  },
  "bufferViews": [
    {
      "buffer": 0,
      "byteLength": 114240,
      "name": "floatBufferViews",
      "target": 34963
    },
    {
      "buffer": 0,
      "byteLength": 59112,
      "byteOffset": 114240,
      "byteStride": 8,
      "name": "floatBufferViews",
      "target": 34962
    },
    {
      "buffer": 0,
      "byteLength": 177336,
      "byteOffset": 173352,
      "byteStride": 12,
      "name": "floatBufferViews",
      "target": 34962
    }
  ],
  "buffers": [
    {
      "byteLength": 350688,
      "uri": "scene.bin"
    }
  ],
  "images": [
    {
      "uri": "textures/mat0.006_baseColor.png"
    },
    {
      "uri": "textures/mat0.026_baseColor.png"
    },
    {
      "uri": "textures/mat0.027_baseColor.png"
    },
    {
      "uri": "textures/mat0.028_baseColor.png"
    },
    {
      "uri": "textures/mat0.030_baseColor.png"
    },
    {
      "uri": "textures/mat0.036_baseColor.png"
    }
  ],
  "materials": [
    {
      "doubleSided": true,
      "name": "mat0.006",
      "pbrMetallicRoughness": {
        "baseColorTexture": {
          "index": 0
        },
        "metallicFactor": 0.0,
        "roughnessFactor": 0.6342256411356907
      }
    },
    {
      "doubleSided": true,
      "name": "mat0.026",
      "pbrMetallicRoughness": {
        "baseColorTexture": {
          "index": 1
        },
        "metallicFactor": 0.0,
        "roughnessFactor": 0.6342256411356907
      }
    },
    {
      "doubleSided": true,
      "name": "mat0.027",
      "pbrMetallicRoughness": {
        "baseColorTexture": {
          "index": 2
        },
        "metallicFactor": 0.0,
        "roughnessFactor": 0.6342256411356907
      }
    },
    {
      "doubleSided": true,
      "name": "mat0.028",
      "pbrMetallicRoughness": {
        "baseColorTexture": {
          "index": 3
        },
        "metallicFactor": 0.0,
        "roughnessFactor": 0.6342256411356907
      }
    },
    {
      "doubleSided": true,
      "name": "mat0.030",
      "pbrMetallicRoughness": {
        "baseColorTexture": {
          "index": 4
        },
        "metallicFactor": 0.0,
        "roughnessFactor": 0.6342256411356907
      }
    },
    {
      "doubleSided": true,
      "name": "mat0.036",
      "pbrMetallicRoughness": {
        "baseColorTexture": {
          "index": 5
        },
        "metallicFactor": 0.0,
        "roughnessFactor": 0.6342256411356907
      }
    }
  ],
  "meshes": [
    {
      "name": "Object_0",
      "primitives": [
        {
          "attributes": {
            "NORMAL": 1,
            "POSITION": 0,
            "TEXCOORD_0": 2
          },
          "indices": 3,
          "material": 0,
          "mode": 4
        }
      ]
    },
    {
      "name": "Object_1",
      "primitives": [
        {
          "attributes": {
            "NORMAL": 5,
            "POSITION": 4,
            "TEXCOORD_0": 6
          },
          "indices": 7,
          "material": 1,
          "mode": 4
        }
      ]
    },
    {
      "name": "Object_2",
      "primitives": [
        {
          "attributes": {
            "NORMAL": 9,
            "POSITION": 8,
            "TEXCOORD_0": 10
          },
          "indices": 11,
          "material": 2,
          "mode": 4
        }
      ]
    },
    {
      "name": "Object_3",
      "primitives": [
        {
          "attributes": {
            "NORMAL": 13,
            "POSITION": 12,
            "TEXCOORD_0": 14
          },
          "indices": 15,
          "material": 3,
          "mode": 4
        }
      ]
    },
    {
      "name": "Object_4",
      "primitives": [
        {
          "attributes": {
            "NORMAL": 17,
            "POSITION": 16,
            "TEXCOORD_0": 18
          },
          "indices": 19,
          "material": 4,
          "mode": 4
        }
      ]
    },
    {
      "name": "Object_5",
      "primitives": [
        {
          "attributes": {
            "NORMAL": 21,
            "POSITION": 20,
            "TEXCOORD_0": 22
          },
          "indices": 23,
          "material": 5,
          "mode": 4
        }
      ]
    }
  ],
  "nodes": [
    {
      "children": [
        1
      ],
      "matrix": [
        1.0,
        0.0,
        0.0,
        0.0,
        0.0,
        2.220446049250313e-16,
        -1.0,
        0.0,
        0.0,
        1.0,
        2.220446049250313e-16,
        0.0,
        0.0,
        0.0,
        0.0,
        1.0
      ],
      "name": "Sketchfab_model"
    },
    {
      "children": [
        2,
        3,
        4,
        5,
        6,
        7
      ],
      "name": "cool boy.obj.cleaner.materialmerger.gles"
    },
    {
      "mesh": 0,
      "name": "Object_2"
    },
    {
      "mesh": 1,
      "name": "Object_3"
    },
    {
      "mesh": 2,
      "name": "Object_4"
    },
    {
      "mesh": 3,
      "name": "Object_5"
    },
    {
      "mesh": 4,
      "name": "Object_6"
    },
    {
      "mesh": 5,
      "name": "Object_7"
    }
  ],
  "samplers": [
    {
      "magFilter": 9729,
      "minFilter": 9987,
      "wrapS": 10497,
      "wrapT": 10497
    }
  ],
  "scene": 0,
  "scenes": [
    {
      "name": "Sketchfab_Scene",
      "nodes": [
        0
      ]
    }
  ],
  "textures": [
    {
      "sampler": 0,
      "source": 0
    },
    {
      "sampler": 0,
      "source": 1
    },
    {
      "sampler": 0,
      "source": 2
    },
    {
      "sampler": 0,
      "source": 3
    },
    {
      "sampler": 0,
      "source": 4
    },
    {
      "sampler": 0,
      "source": 5
    }
  ]
}
