{
  "accessors": [
    {
      "bufferView": 2,
      "componentType": 5126,
      "count": 1348,
      "max": [
        0.06972520053386688,
        0.4565255641937256,
        0.09057360887527466
      ],
      "min": [
        -0.05127407982945442,
        -0.004304056987166405,
        -0.03238745033740997
      ],
      "type": "VEC3"
    },
    {
      "bufferView": 2,
      "byteOffset": 16176,
      "componentType": 5126,
      "count": 1348,
      "max": [
        0.9998908638954163,
        0.9994160532951355,
        0.9977898597717285
      ],
      "min": [
        -0.999910295009613,
        -0.9957622289657593,
        -0.9998823404312134
      ],
      "type": "VEC3"
    },
    {
      "bufferView": 1,
      "componentType": 5126,
      "count": 1348,
      "max": [
        0.992172122001648,
        0.9934004545211792
      ],
      "min": [
        0.005584802012890577,
        0.0038452744483947754
      ],
      "type": "VEC2"
    },
    {
      "bufferView": 0,
      "componentType": 5125,
      "count": 6864,
      "type": "SCALAR"
    },
    {
      "bufferView": 2,
      "byteOffset": 32352,
      "componentType": 5126,
      "count": 247,
      "max": [
        0.054499514400959015,
        0.41111811995506287,
        0.08769726753234863
      ],
      "min": [
        -0.053899601101875305,
        0.2989855408668518,
        0.033782877027988434
      ],
      "type": "VEC3"
    },
    {
      "bufferView": 2,
      "byteOffset": 35316,
      "componentType": 5126,
      "count": 247,
      "max": [
        0.9994083046913147,
        0.8537830114364624,
        0.9892910718917847
      ],
      "min": [
        -0.9917440414428711,
        -0.6297093629837036,
        -0.9977594614028931
      ],
      "type": "VEC3"
    },
    {
      "bufferView": 1,
      "byteOffset": 10784,
      "componentType": 5126,
      "count": 247,
      "max": [
        0.8547341227531433,
        0.6396582126617432
      ],
      "min": [
        0.04306095838546753,
        0.027512013912200928
      ],
      "type": "VEC2"
    },
    {
      "bufferView": 0,
      "byteOffset": 27456,
      "componentType": 5125,
      "count": 915,
      "type": "SCALAR"
    },
    {
      "bufferView": 2,
      "byteOffset": 38280,
      "componentType": 5126,
      "count": 3540,
      "max": [
        0.14338232576847076,
        0.406825453042984,
        0.11278943717479706
      ],
      "min": [
        -0.09491033107042313,
        0.2230730652809143,
        -0.054813120514154434
      ],
      "type": "VEC3"
    },
    {
      "bufferView": 2,
      "byteOffset": 80760,
      "componentType": 5126,
      "count": 3540,
      "max": [
        0.999782145023346,
        0.999168872833252,
        0.9995413422584534
      ],
      "min": [
        -0.9976192712783813,
        -0.9997669458389282,
        -0.999311625957489
      ],
      "type": "VEC3"
    },
    {
      "bufferView": 1,
      "byteOffset": 12760,
      "componentType": 5126,
      "count": 3540,
      "max": [
        0.9968261122703552,
        0.9968413710594177
      ],
      "min": [
        0.002197299152612686,
        0.0022125840187072754
      ],
      "type": "VEC2"
    },
    {
      "bufferView": 0,
      "byteOffset": 31116,
      "componentType": 5125,
      "count": 14541,
      "type": "SCALAR"
    },
    {
      "bufferView": 2,
      "byteOffset": 123240,
      "componentType": 5126,
      "count": 318,
      "max": [
        0.06151632219552994,
        0.47787338495254517,
        0.08076520264148712
      ],
      "min": [
        0.003075560089200735,
        0.4168585240840912,
        0.0456395223736763
      ],
      "type": "VEC3"
    },
    {
      "bufferView": 2,
      "byteOffset": 127056,
      "componentType": 5126,
      "count": 318,
      "max": [
        0.9923240542411804,
        0.9991280436515808,
        0.9930703043937683
      ],
      "min": [
        -0.9723972678184509,
        -0.9998910427093506,
        -0.9606186151504517
      ],
      "type": "VEC3"
    },
    {
      "bufferView": 1,
      "byteOffset": 41080,
      "componentType": 5126,
      "count": 318,
      "max": [
        0.991500735282898,
        0.9928282499313354
      ],
      "min": [
        0.006210422143340111,
        0.005584776401519775
      ],
      "type": "VEC2"
    },
    {
      "bufferView": 0,
      "byteOffset": 89280,
      "componentType": 5125,
      "count": 1014,
      "type": "SCALAR"
    },
    {
      "bufferView": 2,
      "byteOffset": 130872,
      "componentType": 5126,
      "count": 702,
      "max": [
        0.05553381145000458,
        0.4304451644420624,
        0.09484268724918365
      ],
      "min": [
        0.010905873030424118,
        0.4157893657684326,
        0.05225106328725815
      ],
      "type": "VEC3"
    },
    {
      "bufferView": 2,
      "byteOffset": 139296,
      "componentType": 5126,
      "count": 702,
      "max": [
        0.9980247020721436,
        0.955306351184845,
        0.9965334534645081
      ],
      "min": [
        -0.9925248026847839,
        -0.999722421169281,
        -0.9887290596961975
      ],
      "type": "VEC3"
    },
    {
      "bufferView": 1,
      "byteOffset": 43624,
      "componentType": 5126,
      "count": 702,
      "max": [
        0.9910277128219604,
        0.9887388348579407
      ],
      "min": [
        0.01120012253522873,
        0.009826838970184326
      ],
      "type": "VEC2"
    },
    {
      "bufferView": 0,
      "byteOffset": 93336,
      "componentType": 5125,
      "count": 2352,
      "type": "SCALAR"
    },
    {
      "bufferView": 2,
      "byteOffset": 147720,
      "componentType": 5126,
      "count": 1476,
      "max": [
        0.05483315885066986,
        0.463793009519577,
        0.09292677044868469
      ],
      "min": [
        -0.013315008953213692,
        0.35810694098472595,
        0.011874722316861153
      ],
      "type": "VEC3"
    },
    {
      "bufferView": 2,
      "byteOffset": 165432,
      "componentType": 5126,
      "count": 1476,
      "max": [
        0.9994678497314453,
        0.9998242855072021,
        0.9991564750671387
      ],
      "min": [
        -0.9981427788734436,
        -0.6824567317962646,
        -0.9983376264572144
      ],
      "type": "VEC3"
    },
    {
      "bufferView": 1,
      "byteOffset": 49240,
      "componentType": 5126,
      "count": 1476,
      "max": [
        0.964354932308197,
        0.9588769674301147
      ],
      "min": [
        0.024628061801195145,
        0.001708984375
      ],
      "type": "VEC2"
    },
    {
      "bufferView": 0,
      "byteOffset": 102744,
      "componentType": 5125,
      "count": 4635,
      "type": "SCALAR"
    },
    {
      "bufferView": 2,
      "byteOffset": 183144,
      "componentType": 5126,
      "count": 352,
      "max": [
        0.06817208975553513,
        0.2941875755786896,
        0.07468217611312866
      ],
      "min": [
        -0.031027618795633316,
        0.21525384485721588,
        -0.003457397688180208
      ],
      "type": "VEC3"
    },
    {
      "bufferView": 2,
      "byteOffset": 187368,
      "componentType": 5126,
      "count": 352,
      "max": [
        0.9909318089485168,
        0.9689159393310547,
        0.997383177280426
      ],
      "min": [
        -0.9913414716720581,
        -0.5853608846664429,
        -0.9978088736534119
      ],
      "type": "VEC3"
    },
    {
      "bufferView": 1,
      "byteOffset": 61048,
      "componentType": 5126,
      "count": 352,
      "max": [
        0.9711909890174866,
        0.9703364372253418
      ],
      "min": [
        0.024200808256864548,
        0.047470808029174805
      ],
      "type": "VEC2"
    },
    {
      "bufferView": 0,
      "byteOffset": 121284,
      "componentType": 5125,
      "count": 1548,
      "type": "SCALAR"
    },
    {
      "bufferView": 2,
      "byteOffset": 191592,
      "componentType": 5126,
      "count": 1070,
      "max": [
        0.07304670661687851,
        0.04480865225195885,
        0.05671684071421623
      ],
      "min": [
        -0.053457923233509064,
        -0.006776580587029457,
        -0.03496740385890007
      ],
      "type": "VEC3"
    },
    {
      "bufferView": 2,
      "byteOffset": 204432,
      "componentType": 5126,
      "count": 1070,
      "max": [
        0.9999054074287415,
        0.9923319220542908,
        0.9998044967651367
      ],
      "min": [
        -0.9995591044425964,
        -0.9975117444992065,
        -0.9866156578063965
      ],
      "type": "VEC3"
    },
    {
      "bufferView": 1,
      "byteOffset": 63864,
      "componentType": 5126,
      "count": 1070,
      "max": [
        0.9898527264595032,
        0.9841001033782959
      ],
      "min": [
        0.013031205162405968,
        0.011093318462371826
      ],
      "type": "VEC2"
    },
    {
      "bufferView": 0,
      "byteOffset": 127476,
      "componentType": 5125,
      "count": 3996,
      "type": "SCALAR"
    }
  ],
  "asset": {
    "extras": {
      "author": "Windows_Vista (https://sketchfab.com/Windows_Vista)",
      "license": "CC-BY-4.0 (http://creativecommons.org/licenses/by/4.0/)",
      "source": "https://sketchfab.com/3d-models/cewe-rok-putih-3e6ef7735ff1462381989e7119d8cbb4",
      "title": "Cewe Rok Putih"
    },
    "generator": "Sketchfab-13.24.0",
    "version": "2.0"
  },
  "bufferViews": [
    {
      "buffer": 0,
      "byteLength": 143460,
      "name": "floatBufferViews",
      "target": 34963
    },
    {
      "buffer": 0,
      "byteLength": 72424,
      "byteOffset": 143460,
      "byteStride": 8,
      "name": "floatBufferViews",
      "target": 34962
    },
    {
      "buffer": 0,
      "byteLength": 217272,
      "byteOffset": 215884,
      "byteStride": 12,
      "name": "floatBufferViews",
      "target": 34962
    }
  ],
  "buffers": [
    {
      "byteLength": 433156,
      "uri": "scene.bin"
    }
  ],
  "images": [
    {
      "uri": "textures/Material.002_baseColor.png"
    },
    {
      "uri": "textures/Material.006_baseColor.png"
    },
    {
      "uri": "textures/Material.005_baseColor.png"
    },
    {
      "uri": "textures/Material.004_baseColor.png"
    },
    {
      "uri": "textures/Material.003_baseColor.png"
    },
    {
      "uri": "textures/Material.001_baseColor.png"
    },
    {
      "uri": "textures/Material.007_baseColor.png"
    },
    {
      "uri": "textures/Material.008_baseColor.png"
    }
  ],
  "materials": [
    {
      "doubleSided": true,
      "name": "Material.002",
      "pbrMetallicRoughness": {
        "baseColorTexture": {
          "index": 0
        },
        "metallicFactor": 0.0,
        "roughnessFactor": 0.5
      }
    },
    {
      "doubleSided": true,
      "name": "Material.006",
      "pbrMetallicRoughness": {
        "baseColorTexture": {
          "index": 1
        },
        "metallicFactor": 0.0,
        "roughnessFactor": 0.5
      }
    },
    {
      "doubleSided": true,
      "name": "Material.005",
      "pbrMetallicRoughness": {
        "baseColorTexture": {
          "index": 2
        },
        "metallicFactor": 0.0,
        "roughnessFactor": 0.5
      }
    },
    {
      "doubleSided": true,
      "name": "Material.004",
      "pbrMetallicRoughness": {
        "baseColorTexture": {
          "index": 3
        },
        "metallicFactor": 0.0,
        "roughnessFactor": 0.5
      }
    },
    {
      "doubleSided": true,
      "name": "Material.003",
      "pbrMetallicRoughness": {
        "baseColorTexture": {
          "index": 4
        },
        "metallicFactor": 0.0,
        "roughnessFactor": 0.5
      }
    },
    {
      "doubleSided": true,
      "name": "Material.001",
      "pbrMetallicRoughness": {
        "baseColorTexture": {
          "index": 5
        },
        "metallicFactor": 0.0,
        "roughnessFactor": 0.5
      }
    },
    {
      "doubleSided": true,
      "name": "Material.007",
      "pbrMetallicRoughness": {
        "baseColorTexture": {
          "index": 6
        },
        "metallicFactor": 0.0,
        "roughnessFactor": 0.5
      }
    },
    {
      "doubleSided": true,
      "name": "Material.008",
      "pbrMetallicRoughness": {
        "baseColorTexture": {
          "index": 7
        },
        "metallicFactor": 0.0,
        "roughnessFactor": 0.5
      }
    }
  ],
  "meshes": [
    {
      "name": "Object_0",
      "primitives": [
        {
          "attributes": {
            "NORMAL": 1,
            "POSITION": 0,
            "TEXCOORD_0": 2
          },
          "indices": 3,
          "material": 0,
          "mode": 4
        }
      ]
    },
    {
      "name": "Object_1",
      "primitives": [
        {
          "attributes": {
            "NORMAL": 5,
            "POSITION": 4,
            "TEXCOORD_0": 6
          },
          "indices": 7,
          "material": 1,
          "mode": 4
        }
      ]
    },
    {
      "name": "Object_2",
      "primitives": [
        {
          "attributes": {
            "NORMAL": 9,
            "POSITION": 8,
            "TEXCOORD_0": 10
          },
          "indices": 11,
          "material": 2,
          "mode": 4
        }
      ]
    },
    {
      "name": "Object_3",
      "primitives": [
        {
          "attributes": {
            "NORMAL": 13,
            "POSITION": 12,
            "TEXCOORD_0": 14
          },
          "indices": 15,
          "material": 3,
          "mode": 4
        }
      ]
    },
    {
      "name": "Object_4",
      "primitives": [
        {
          "attributes": {
            "NORMAL": 17,
            "POSITION": 16,
            "TEXCOORD_0": 18
          },
          "indices": 19,
          "material": 4,
          "mode": 4
        }
      ]
    },
    {
      "name": "Object_5",
      "primitives": [
        {
          "attributes": {
            "NORMAL": 21,
            "POSITION": 20,
            "TEXCOORD_0": 22
          },
          "indices": 23,
          "material": 5,
          "mode": 4
        }
      ]
    },
    {
      "name": "Object_6",
      "primitives": [
        {
          "attributes": {
            "NORMAL": 25,
            "POSITION": 24,
            "TEXCOORD_0": 26
          },
          "indices": 27,
          "material": 6,
          "mode": 4
        }
      ]
    },
    {
      "name": "Object_7",
      "primitives": [
        {
          "attributes": {
            "NORMAL": 29,
            "POSITION": 28,
            "TEXCOORD_0": 30
          },
          "indices": 31,
          "material": 7,
          "mode": 4
        }
      ]
    }
  ],
  "nodes": [
    {
      "children": [
        1
      ],
      "matrix": [
        1.0,
        0.0,
        0.0,
        0.0,
        0.0,
        2.220446049250313e-16,
        -1.0,
        0.0,
        0.0,
        1.0,
        2.220446049250313e-16,
        0.0,
        0.0,
        0.0,
        0.0,
        1.0
      ],
      "name": "Sketchfab_model"
    },
    {
      "children": [
        2
      ],
      "name": "root"
    },
    {
      "children": [
        3,
        5,
        7,
        9,
        11,
        13,
        15,
        17
      ],
      "matrix": [
        1.0,
        0.0,
        0.0,
        0.0,
        0.0,
        2.220446049250313e-16,
        1.0,
        0.0,
        0.0,
        -1.0,
        2.220446049250313e-16,
        0.0,
        0.0,
        0.0,
        0.0,
        1.0
      ],
      "name": "GLTF_SceneRootNode"
    },
    {
      "children": [
        4
      ],
      "matrix": [
        -121.73531238166464,
        9.375630096374552,
        60.54892164156572,
        -0.0,
        -0.48112494304309544,
        134.5294027538045,
        -21.798370255957785,
        0.0,
        61.26861244103454,
        19.684968562906036,
        120.13417404947558,
        0.0,
        0.0,
        0.0,
        0.0,
        1.0
      ],
      "name": "Badan_0"
    },
    {
      "mesh": 0,
      "name": "Object_4"
    },
    {
      "children": [
        6
      ],
      "matrix": [
        -121.73531238166464,
        9.375630096374552,
        60.54892164156572,
        -0.0,
        -0.48112494304309544,
        134.5294027538045,
        -21.798370255957785,
        0.0,
        61.26861244103454,
        19.684968562906036,
        120.13417404947558,
        0.0,
        0.0,
        0.0,
        0.0,
        1.0
      ],
      "name": "Badan2_1"
    },
    {
      "mesh": 1,
      "name": "Object_6"
    },
    {
      "children": [
        8
      ],
      "matrix": [
        -121.73531238166464,
        9.375630096374552,
        60.54892164156572,
        -0.0,
        -0.48112494304309544,
        134.5294027538045,
        -21.798370255957785,
        0.0,
        61.26861244103454,
        19.684968562906036,
        120.13417404947558,
        0.0,
        0.0,
        0.0,
        0.0,
        1.0
      ],
      "name": "Baju_2"
    },
    {
      "mesh": 2,
      "name": "Object_8"
    },
    {
      "children": [
        10
      ],
      "matrix": [
        -121.73531238166464,
        9.375630096374552,
        60.54892164156572,
        -0.0,
        -0.48112494304309544,
        134.5294027538045,
        -21.798370255957785,
        0.0,
        61.26861244103454,
        19.684968562906036,
        120.13417404947558,
        0.0,
        0.0,
        0.0,
        0.0,
        1.0
      ],
      "name": "Headseat_3"
    },
    {
      "mesh": 3,
      "name": "Object_10"
    },
    {
      "children": [
        12
      ],
      "matrix": [
        -121.73531238166464,
        9.375630096374552,
        60.54892164156572,
        -0.0,
        -0.48112494304309544,
        134.5294027538045,
        -21.798370255957785,
        0.0,
        61.26861244103454,
        19.684968562906036,
        120.13417404947558,
        0.0,
        0.0,
        0.0,
        0.0,
        1.0
      ],
      "name": "Kacamata_4"
    },
    {
      "mesh": 4,
      "name": "Object_12"
    },
    {
      "children": [
        14
      ],
      "matrix": [
        -121.73531238166464,
        9.375630096374552,
        60.54892164156572,
        -0.0,
        -0.48112494304309544,
        134.5294027538045,
        -21.798370255957785,
        0.0,
        61.26861244103454,
        19.684968562906036,
        120.13417404947558,
        0.0,
        0.0,
        0.0,
        0.0,
        1.0
      ],
      "name": "Rambut_5"
    },
    {
      "mesh": 5,
      "name": "Object_14"
    },
    {
      "children": [
        16
      ],
      "matrix": [
        -121.73531238166464,
        9.375630096374552,
        60.54892164156572,
        -0.0,
        -0.48112494304309544,
        134.5294027538045,
        -21.798370255957785,
        0.0,
        61.26861244103454,
        19.684968562906036,
        120.13417404947558,
        0.0,
        0.0,
        0.0,
        0.0,
        1.0
      ],
      "name": "Rok_6"
    },
    {
      "mesh": 6,
      "name": "Object_16"
    },
    {
      "children": [
        18
      ],
      "matrix": [
        -121.73531238166464,
        9.375630096374552,
        60.54892164156572,
        -0.0,
        -0.48112494304309544,
        134.5294027538045,
        -21.798370255957785,
        0.0,
        61.26861244103454,
        19.684968562906036,
        120.13417404947558,
        0.0,
        0.0,
        0.0,
        0.0,
        1.0
      ],
      "name": "Sendal_7"
    },
    {
      "mesh": 7,
      "name": "Object_18"
    }
  ],
  "samplers": [
    {
      "magFilter": 9729,
      "minFilter": 9987,
      "wrapS": 10497,
      "wrapT": 10497
    }
  ],
  "scene": 0,
  "scenes": [
    {
      "name": "Sketchfab_Scene",
      "nodes": [
        0
      ]
    }
  ],
  "textures": [
    {
      "sampler": 0,
      "source": 0
    },
    {
      "sampler": 0,
      "source": 1
    },
    {
      "sampler": 0,
      "source": 2
    },
    {
      "sampler": 0,
      "source": 3
    },
    {
      "sampler": 0,
      "source": 4
    },
    {
      "sampler": 0,
      "source": 5
    },
    {
      "sampler": 0,
      "source": 6
    },
    {
      "sampler": 0,
      "source": 7
    }
  ]
}
