{
  "accessors": [
    {
      "bufferView": 2,
      "componentType": 5126,
      "count": 18816,
      "max": [
        0.08101499825716019,
        2.0254459381103516,
        2.8683290481567383
      ],
      "min": [
        -0.7700750231742859,
        -2.010068893432617,
        -0.007493999786674976
      ],
      "type": "VEC3"
    },
    {
      "bufferView": 2,
      "byteOffset": 225792,
      "componentType": 5126,
      "count": 18816,
      "max": [
        1.0,
        1.0,
        0.9999874830245972
      ],
      "min": [
        -1.0,
        -1.0,
        -1.0
      ],
      "type": "VEC3"
    },
    {
      "bufferView": 3,
      "componentType": 5126,
      "count": 18816,
      "max": [
        0.9999425411224365,
        1.0,
        0.9996588230133057,
        1.0
      ],
      "min": [
        -0.9999480247497559,
        -0.9999999403953552,
        -0.9999914169311523,
        -1.0
      ],
      "type": "VEC4"
    },
    {
      "bufferView": 1,
      "componentType": 5126,
      "count": 18816,
      "max": [
        0.9942839741706848,
        0.9840149879455566
      ],
      "min": [
        0.004224000032991171,
        0.004995000082999468
      ],
      "type": "VEC2"
    },
    {
      "bufferView": 0,
      "componentType": 5125,
      "count": 110832,
      "type": "SCALAR"
    }
  ],
  "asset": {
    "extras": {
      "author": "Albert Gregl (https://sketchfab.com/AlbertGregl)",
      "license": "CC-BY-4.0 (http://creativecommons.org/licenses/by/4.0/)",
      "source": "https://sketchfab.com/3d-models/the-gate-of-the-sun-d577a51cf9dc41fe8c4483f7f9f9f752",
      "title": "The Gate of the Sun"
    },
    "generator": "Sketchfab-12.67.0",
    "version": "2.0"
  },
  "bufferViews": [
    {
      "buffer": 0,
      "byteLength": 443328,
      "name": "floatBufferViews",
      "target": 34963
    },
    {
      "buffer": 0,
      "byteLength": 150528,
      "byteOffset": 443328,
      "byteStride": 8,
      "name": "floatBufferViews",
      "target": 34962
    },
    {
      "buffer": 0,
      "byteLength": 451584,
      "byteOffset": 593856,
      "byteStride": 12,
      "name": "floatBufferViews",
      "target": 34962
    },
    {
      "buffer": 0,
      "byteLength": 301056,
      "byteOffset": 1045440,
      "byteStride": 16,
      "name": "floatBufferViews",
      "target": 34962
    }
  ],
  "buffers": [
    {
      "byteLength": 1346496,
      "uri": "scene.bin"
    }
  ],
  "images": [
    {
      "uri": "textures/SunGate_baseColor.png"
    },
    {
      "uri": "textures/SunGate_metallicRoughness.png"
    },
    {
      "uri": "textures/SunGate_normal.png"
    }
  ],
  "materials": [
    {
      "doubleSided": true,
      "name": "SunGate",
      "normalTexture": {
        "index": 2
      },
      "occlusionTexture": {
        "index": 1
      },
      "pbrMetallicRoughness": {
        "baseColorTexture": {
          "index": 0
        },
        "metallicFactor": 0.0,
        "metallicRoughnessTexture": {
          "index": 1
        }
      }
    }
  ],
  "meshes": [
    {
      "name": "Object_0",
      "primitives": [
        {
          "attributes": {
            "NORMAL": 1,
            "POSITION": 0,
            "TANGENT": 2,
            "TEXCOORD_0": 3
          },
          "indices": 4,
          "material": 0,
          "mode": 4
        }
      ]
    }
  ],
  "nodes": [
    {
      "children": [
        1
      ],
      "matrix": [
        -0.9999821186065674,
        1.3287305134338631e-18,
        -0.005984070245176554,
        0.0,
        -0.005984070245176554,
        -2.2204063445809105e-16,
        0.9999821186065674,
        0.0,
        0.0,
        1.0,
        2.220446049250313e-16,
        0.0,
        -0.6828104257583618,
        -4.5699998449953224e-08,
        -0.009958416223526001,
        1.0
      ],
      "name": "Sketchfab_model"
    },
    {
      "children": [
        2
      ],
      "name": "SunGate.obj.cleaner.materialmerger.gles"
    },
    {
      "mesh": 0,
      "name": "Object_2"
    }
  ],
  "samplers": [
    {
      "magFilter": 9729,
      "minFilter": 9987,
      "wrapS": 10497,
      "wrapT": 10497
    }
  ],
  "scene": 0,
  "scenes": [
    {
      "name": "Sketchfab_Scene",
      "nodes": [
        0
      ]
    }
  ],
  "textures": [
    {
      "sampler": 0,
      "source": 0
    },
    {
      "sampler": 0,
      "source": 1
    },
    {
      "sampler": 0,
      "source": 2
    }
  ]
}
