{
  "accessors": [
    {
      "bufferView": 2,
      "componentType": 5126,
      "count": 1332,
      "max": [
        7.015385150909424,
        1.9044920206069946,
        45.691444396972656
      ],
      "min": [
        -12.824234008789063,
        -3.6749958992004395,
        0.19680100679397583
      ],
      "type": "VEC3"
    },
    {
      "bufferView": 2,
      "byteOffset": 15984,
      "componentType": 5126,
      "count": 1332,
      "max": [
        0.9997757077217102,
        0.9998018145561218,
        0.9993581771850586
      ],
      "min": [
        -0.9978317618370056,
        -0.9996330142021179,
        -0.9988818764686584
      ],
      "type": "VEC3"
    },
    {
      "bufferView": 1,
      "componentType": 5126,
      "count": 1332,
      "max": [
        0.9921870231628418,
        0.9966999888420105
      ],
      "min": [
        0.008086999878287315,
        0.2519260048866272
      ],
      "type": "VEC2"
    },
    {
      "bufferView": 0,
      "componentType": 5125,
      "count": 6198,
      "type": "SCALAR"
    },
    {
      "bufferView": 2,
      "byteOffset": 31968,
      "componentType": 5126,
      "count": 586,
      "max": [
        5.80562686920166,
        2.2798409461975098,
        5.7739081382751465
      ],
      "min": [
        -5.894958019256592,
        -3.9723761081695557,
        0.04188600182533264
      ],
      "type": "VEC3"
    },
    {
      "bufferView": 2,
      "byteOffset": 39000,
      "componentType": 5126,
      "count": 586,
      "max": [
        0.9971869587898254,
        0.9852968454360962,
        0.9976797699928284
      ],
      "min": [
        -0.9984723925590515,
        -0.9835456013679504,
        -0.999984860420227
      ],
      "type": "VEC3"
    },
    {
      "bufferView": 1,
      "byteOffset": 10656,
      "componentType": 5126,
      "count": 586,
      "max": [
        0.9971920251846313,
        0.9864040017127991
      ],
      "min": [
        0.01648000068962574,
        0.01434400025755167
      ],
      "type": "VEC2"
    },
    {
      "bufferView": 0,
      "byteOffset": 24792,
      "componentType": 5125,
      "count": 2004,
      "type": "SCALAR"
    },
    {
      "bufferView": 2,
      "byteOffset": 46032,
      "componentType": 5126,
      "count": 313,
      "max": [
        5.1170477867126465,
        2.8278369903564453,
        29.14375877380371
      ],
      "min": [
        -5.075148105621338,
        -3.1447529792785645,
        4.715281963348389
      ],
      "type": "VEC3"
    },
    {
      "bufferView": 2,
      "byteOffset": 49788,
      "componentType": 5126,
      "count": 313,
      "max": [
        0.997795820236206,
        0.9986993074417114,
        0.9908439517021179
      ],
      "min": [
        -0.9998034834861755,
        -0.9997555613517761,
        -0.999923586845398
      ],
      "type": "VEC3"
    },
    {
      "bufferView": 1,
      "byteOffset": 15344,
      "componentType": 5126,
      "count": 313,
      "max": [
        0.9821469783782959,
        0.984604001045227
      ],
      "min": [
        0.022644000127911568,
        0.016464000567793846
      ],
      "type": "VEC2"
    },
    {
      "bufferView": 0,
      "byteOffset": 32808,
      "componentType": 5125,
      "count": 1482,
      "type": "SCALAR"
    },
    {
      "bufferView": 2,
      "byteOffset": 53544,
      "componentType": 5126,
      "count": 1992,
      "max": [
        12.75951862335205,
        3.2078969478607178,
        40.37020492553711
      ],
      "min": [
        -12.945025444030762,
        -4.008142948150635,
        22.878156661987305
      ],
      "type": "VEC3"
    },
    {
      "bufferView": 2,
      "byteOffset": 77448,
      "componentType": 5126,
      "count": 1992,
      "max": [
        0.9995607733726501,
        0.9999340772628784,
        0.9961985945701599
      ],
      "min": [
        -0.9997496008872986,
        -0.9999330043792725,
        -0.9998002648353577
      ],
      "type": "VEC3"
    },
    {
      "bufferView": 1,
      "byteOffset": 17848,
      "componentType": 5126,
      "count": 1992,
      "max": [
        0.9999390244483948,
        0.9910889863967896
      ],
      "min": [
        0.008255000226199627,
        0.006577000021934509
      ],
      "type": "VEC2"
    },
    {
      "bufferView": 0,
      "byteOffset": 38736,
      "componentType": 5125,
      "count": 8487,
      "type": "SCALAR"
    },
    {
      "bufferView": 2,
      "byteOffset": 101352,
      "componentType": 5126,
      "count": 374,
      "max": [
        1.8672970533370972,
        0.32013100385665894,
        43.204124450683594
      ],
      "min": [
        -1.8512459993362427,
        -3.004154920578003,
        41.97911071777344
      ],
      "type": "VEC3"
    },
    {
      "bufferView": 2,
      "byteOffset": 105840,
      "componentType": 5126,
      "count": 374,
      "max": [
        0.893984317779541,
        0.9203433394432068,
        0.9420002102851868
      ],
      "min": [
        -0.9052078723907471,
        -0.9347696304321289,
        -0.9421889781951904
      ],
      "type": "VEC3"
    },
    {
      "bufferView": 1,
      "byteOffset": 33784,
      "componentType": 5126,
      "count": 374,
      "max": [
        0.9873960018157959,
        0.9893029928207397
      ],
      "min": [
        0.0173799991607666,
        0.4966660141944885
      ],
      "type": "VEC2"
    },
    {
      "bufferView": 0,
      "byteOffset": 72684,
      "componentType": 5125,
      "count": 948,
      "type": "SCALAR"
    },
    {
      "bufferView": 2,
      "byteOffset": 110328,
      "componentType": 5126,
      "count": 1150,
      "max": [
        2.3040130138397217,
        8.298742294311523,
        46.405845642089844
      ],
      "min": [
        -2.6032629013061523,
        -3.216125965118408,
        34.110591888427734
      ],
      "type": "VEC3"
    },
    {
      "bufferView": 2,
      "byteOffset": 124128,
      "componentType": 5126,
      "count": 1150,
      "max": [
        0.999580442905426,
        0.9974157810211182,
        0.9964399337768555
      ],
      "min": [
        -0.9997202754020691,
        -0.9953743815422058,
        -0.9871664643287659
      ],
      "type": "VEC3"
    },
    {
      "bufferView": 1,
      "byteOffset": 36776,
      "componentType": 5126,
      "count": 1150,
      "max": [
        0.995635986328125,
        0.9928439855575562
      ],
      "min": [
        0.16443100571632385,
        0.007019000127911568
      ],
      "type": "VEC2"
    },
    {
      "bufferView": 0,
      "byteOffset": 76476,
      "componentType": 5125,
      "count": 3825,
      "type": "SCALAR"
    },
    {
      "bufferView": 2,
      "byteOffset": 137928,
      "componentType": 5126,
      "count": 60,
      "max": [
        1.5432579517364502,
        -2.720928907394409,
        42.69919967651367
      ],
      "min": [
        -1.664823055267334,
        -2.9577701091766357,
        42.010677337646484
      ],
      "type": "VEC3"
    },
    {
      "bufferView": 2,
      "byteOffset": 138648,
      "componentType": 5126,
      "count": 60,
      "max": [
        0.2378002554178238,
        0.9577244520187378,
        0.327600359916687
      ],
      "min": [
        -0.24309141933918,
        -0.9572417736053467,
        -0.3322065770626068
      ],
      "type": "VEC3"
    },
    {
      "bufferView": 1,
      "byteOffset": 45976,
      "componentType": 5126,
      "count": 60,
      "max": [
        0.9845269918441772,
        0.5692229866981506
      ],
      "min": [
        0.3658500015735626,
        0.020248999819159508
      ],
      "type": "VEC2"
    },
    {
      "bufferView": 0,
      "byteOffset": 91776,
      "componentType": 5125,
      "count": 156,
      "type": "SCALAR"
    }
  ],
  "asset": {
    "extras": {
      "author": "PACE GAMING FF (https://sketchfab.com/MDARBAZ_.OR___-PACEGAMINGFF)",
      "license": "CC-BY-4.0 (http://creativecommons.org/licenses/by/4.0/)",
      "source": "https://sketchfab.com/3d-models/freefire-new-3d-female-model-by-pace-gaming-3462cabf35894b4babd6e7d8ccd420f5",
      "title": "freefire new 3d female model by pace gaming"
    },
    "generator": "Sketchfab-14.36.1",
    "version": "2.0"
  },
  "bufferViews": [
    {
      "buffer": 0,
      "byteLength": 92400,
      "name": "floatBufferViews",
      "target": 34963
    },
    {
      "buffer": 0,
      "byteLength": 46456,
      "byteOffset": 92400,
      "byteStride": 8,
      "name": "floatBufferViews",
      "target": 34962
    },
    {
      "buffer": 0,
      "byteLength": 139368,
      "byteOffset": 138856,
      "byteStride": 12,
      "name": "floatBufferViews",
      "target": 34962
    }
  ],
  "buffers": [
    {
      "byteLength": 278224,
      "uri": "scene.bin"
    }
  ],
  "images": [
    {
      "uri": "textures/mat0.022_baseColor.png"
    },
    {
      "uri": "textures/mat0.023_baseColor.png"
    },
    {
      "uri": "textures/mat0.024_baseColor.png"
    },
    {
      "uri": "textures/mat0.025_baseColor.png"
    },
    {
      "uri": "textures/mat0.026_baseColor.png"
    },
    {
      "uri": "textures/mat0.027_baseColor.png"
    }
  ],
  "materials": [
    {
      "doubleSided": true,
      "name": "mat0.022",
      "pbrMetallicRoughness": {
        "baseColorTexture": {
          "index": 0
        },
        "metallicFactor": 0.0,
        "roughnessFactor": 0.6342256411356907
      }
    },
    {
      "doubleSided": true,
      "name": "mat0.023",
      "pbrMetallicRoughness": {
        "baseColorTexture": {
          "index": 1
        },
        "metallicFactor": 0.0,
        "roughnessFactor": 0.6342256411356907
      }
    },
    {
      "doubleSided": true,
      "name": "mat0.024",
      "pbrMetallicRoughness": {
        "baseColorTexture": {
          "index": 2
        },
        "metallicFactor": 0.0,
        "roughnessFactor": 0.6342256411356907
      }
    },
    {
      "doubleSided": true,
      "name": "mat0.025",
      "pbrMetallicRoughness": {
        "baseColorTexture": {
          "index": 3
        },
        "metallicFactor": 0.0,
        "roughnessFactor": 0.6342256411356907
      }
    },
    {
      "doubleSided": true,
      "name": "mat0.026",
      "pbrMetallicRoughness": {
        "baseColorTexture": {
          "index": 4
        },
        "metallicFactor": 0.0,
        "roughnessFactor": 0.6342256411356907
      }
    },
    {
      "doubleSided": true,
      "name": "mat0.027",
      "pbrMetallicRoughness": {
        "baseColorTexture": {
          "index": 5
        },
        "metallicFactor": 0.0,
        "roughnessFactor": 0.6342256411356907
      }
    },
    {
      "doubleSided": true,
      "name": "mat0.028",
      "pbrMetallicRoughness": {
        "baseColorTexture": {
          "index": 4
        },
        "metallicFactor": 0.0,
        "roughnessFactor": 0.6342256411356907
      }
    }
  ],
  "meshes": [
    {
      "name": "Object_0",
      "primitives": [
        {
          "attributes": {
            "NORMAL": 1,
            "POSITION": 0,
            "TEXCOORD_0": 2
          },
          "indices": 3,
          "material": 0,
          "mode": 4
        }
      ]
    },
    {
      "name": "Object_1",
      "primitives": [
        {
          "attributes": {
            "NORMAL": 5,
            "POSITION": 4,
            "TEXCOORD_0": 6
          },
          "indices": 7,
          "material": 1,
          "mode": 4
        }
      ]
    },
    {
      "name": "Object_2",
      "primitives": [
        {
          "attributes": {
            "NORMAL": 9,
            "POSITION": 8,
            "TEXCOORD_0": 10
          },
          "indices": 11,
          "material": 2,
          "mode": 4
        }
      ]
    },
    {
      "name": "Object_3",
      "primitives": [
        {
          "attributes": {
            "NORMAL": 13,
            "POSITION": 12,
            "TEXCOORD_0": 14
          },
          "indices": 15,
          "material": 3,
          "mode": 4
        }
      ]
    },
    {
      "name": "Object_4",
      "primitives": [
        {
          "attributes": {
            "NORMAL": 17,
            "POSITION": 16,
            "TEXCOORD_0": 18
          },
          "indices": 19,
          "material": 4,
          "mode": 4
        }
      ]
    },
    {
      "name": "Object_5",
      "primitives": [
        {
          "attributes": {
            "NORMAL": 21,
            "POSITION": 20,
            "TEXCOORD_0": 22
          },
          "indices": 23,
          "material": 5,
          "mode": 4
        }
      ]
    },
    {
      "name": "Object_6",
      "primitives": [
        {
          "attributes": {
            "NORMAL": 25,
            "POSITION": 24,
            "TEXCOORD_0": 26
          },
          "indices": 27,
          "material": 6,
          "mode": 4
        }
      ]
    }
  ],
  "nodes": [
    {
      "children": [
        1
      ],
      "matrix": [
        1.0,
        0.0,
        0.0,
        0.0,
        0.0,
        2.220446049250313e-16,
        -1.0,
        0.0,
        0.0,
        1.0,
        2.220446049250313e-16,
        0.0,
        0.0,
        0.0,
        0.0,
        1.0
      ],
      "name": "Sketchfab_model"
    },
    {
      "children": [
        2,
        3,
        4,
        5,
        6,
        7,
        8
      ],
      "name": "52 DVG.obj.cleaner.materialmerger.gles"
    },
    {
      "mesh": 0,
      "name": "Object_2"
    },
    {
      "mesh": 1,
      "name": "Object_3"
    },
    {
      "mesh": 2,
      "name": "Object_4"
    },
    {
      "mesh": 3,
      "name": "Object_5"
    },
    {
      "mesh": 4,
      "name": "Object_6"
    },
    {
      "mesh": 5,
      "name": "Object_7"
    },
    {
      "mesh": 6,
      "name": "Object_8"
    }
  ],
  "samplers": [
    {
      "magFilter": 9729,
      "minFilter": 9987,
      "wrapS": 10497,
      "wrapT": 10497
    }
  ],
  "scene": 0,
  "scenes": [
    {
      "name": "Sketchfab_Scene",
      "nodes": [
        0
      ]
    }
  ],
  "textures": [
    {
      "sampler": 0,
      "source": 0
    },
    {
      "sampler": 0,
      "source": 1
    },
    {
      "sampler": 0,
      "source": 2
    },
    {
      "sampler": 0,
      "source": 3
    },
    {
      "sampler": 0,
      "source": 4
    },
    {
      "sampler": 0,
      "source": 5
    }
  ]
}
