{
  "accessors": [
    {
      "bufferView": 2,
      "componentType": 5126,
      "count": 2469,
      "max": [
        0.13141800463199615,
        0.0764179527759552,
        0.5258258581161499
      ],
      "min": [
        -0.1245570033788681,
        -0.07006600499153137,
        0.0014059969689697027
      ],
      "type": "VEC3"
    },
    {
      "bufferView": 2,
      "byteOffset": 29628,
      "componentType": 5126,
      "count": 2469,
      "max": [
        0.9998561143875122,
        0.9999999403953552,
        0.9998260140419006
      ],
      "min": [
        -0.999849796295166,
        -1.0,
        -0.9995980858802795
      ],
      "type": "VEC3"
    },
    {
      "bufferView": 1,
      "componentType": 5126,
      "count": 2469,
      "max": [
        0.9984440207481384,
        -0.0035099999513477087
      ],
      "min": [
        0.0035099999513477087,
        -0.9964289665222168
      ],
      "type": "VEC2"
    },
    {
      "bufferView": 0,
      "componentType": 5125,
      "count": 7578,
      "type": "SCALAR"
    },
    {
      "bufferView": 2,
      "byteOffset": 59256,
      "componentType": 5126,
      "count": 4683,
      "max": [
        0.28734999895095825,
        0.08072595298290253,
        0.799735963344574
      ],
      "min": [
        -0.2874940037727356,
        -0.07829002290964127,
        0.4499329626560211
      ],
      "type": "VEC3"
    },
    {
      "bufferView": 2,
      "byteOffset": 115452,
      "componentType": 5126,
      "count": 4683,
      "max": [
        0.998843252658844,
        0.9999814629554749,
        0.9999629259109497
      ],
      "min": [
        -0.9995337724685669,
        -1.0,
        -1.0
      ],
      "type": "VEC3"
    },
    {
      "bufferView": 1,
      "byteOffset": 19752,
      "componentType": 5126,
      "count": 4683,
      "max": [
        0.9944300055503845,
        -0.0021970300003886223
      ],
      "min": [
        0.003753999015316367,
        -0.9959869384765625
      ],
      "type": "VEC2"
    },
    {
      "bufferView": 0,
      "byteOffset": 30312,
      "componentType": 5125,
      "count": 13758,
      "type": "SCALAR"
    },
    {
      "bufferView": 2,
      "byteOffset": 171648,
      "componentType": 5126,
      "count": 792,
      "max": [
        0.12908199429512024,
        0.056836988776922226,
        0.7945718765258789
      ],
      "min": [
        -0.12919899821281433,
        -0.07506498694419861,
        -0.0005709999823011458
      ],
      "type": "VEC3"
    },
    {
      "bufferView": 2,
      "byteOffset": 181152,
      "componentType": 5126,
      "count": 792,
      "max": [
        0.9998031854629517,
        0.9995376467704773,
        0.990166425704956
      ],
      "min": [
        -0.9998024106025696,
        -0.9817697405815125,
        -0.999984860420227
      ],
      "type": "VEC3"
    },
    {
      "bufferView": 1,
      "byteOffset": 57216,
      "componentType": 5126,
      "count": 792,
      "max": [
        0.9944760203361511,
        -0.007979989983141422
      ],
      "min": [
        0.004883000161498785,
        -0.9925379753112793
      ],
      "type": "VEC2"
    },
    {
      "bufferView": 0,
      "byteOffset": 85344,
      "componentType": 5125,
      "count": 2268,
      "type": "SCALAR"
    },
    {
      "bufferView": 2,
      "byteOffset": 190656,
      "componentType": 5126,
      "count": 1837,
      "max": [
        0.2935830056667328,
        0.06555894762277603,
        0.8637368679046631
      ],
      "min": [
        -0.29367101192474365,
        -0.05511202663183212,
        0.4263729453086853
      ],
      "type": "VEC3"
    },
    {
      "bufferView": 2,
      "byteOffset": 212700,
      "componentType": 5126,
      "count": 1837,
      "max": [
        0.9987636208534241,
        0.9966402053833008,
        0.9994514584541321
      ],
      "min": [
        -0.9992249608039856,
        -0.9999997019767761,
        -0.9999876618385315
      ],
      "type": "VEC3"
    },
    {
      "bufferView": 1,
      "byteOffset": 63552,
      "componentType": 5126,
      "count": 1837,
      "max": [
        0.9936519861221313,
        -0.0178910493850708
      ],
      "min": [
        0.008057000115513802,
        -0.996161937713623
      ],
      "type": "VEC2"
    },
    {
      "bufferView": 0,
      "byteOffset": 94416,
      "componentType": 5125,
      "count": 6957,
      "type": "SCALAR"
    },
    {
      "bufferView": 2,
      "byteOffset": 234744,
      "componentType": 5126,
      "count": 1154,
      "max": [
        0.021025000140070915,
        0.06634093821048737,
        0.9092779159545898
      ],
      "min": [
        -0.019711000844836235,
        -0.051222044974565506,
        0.8050099611282349
      ],
      "type": "VEC3"
    },
    {
      "bufferView": 2,
      "byteOffset": 248592,
      "componentType": 5126,
      "count": 1154,
      "max": [
        0.9995303153991699,
        0.9995733499526978,
        0.9935166239738464
      ],
      "min": [
        -0.9976015686988831,
        -0.9983720779418945,
        -0.999893069267273
      ],
      "type": "VEC3"
    },
    {
      "bufferView": 1,
      "byteOffset": 78248,
      "componentType": 5126,
      "count": 1154,
      "max": [
        0.9805290102958679,
        -0.03228795900940895
      ],
      "min": [
        0.00228899996727705,
        -0.9803769588470459
      ],
      "type": "VEC2"
    },
    {
      "bufferView": 0,
      "byteOffset": 122244,
      "componentType": 5125,
      "count": 2778,
      "type": "SCALAR"
    }
  ],
  "asset": {
    "extras": {
      "author": "FFXN (https://sketchfab.com/anuginethuka)",
      "license": "CC-BY-4.0 (http://creativecommons.org/licenses/by/4.0/)",
      "source": "https://sketchfab.com/3d-models/crocodarer-bundle-free-fire-s02-booyah-pass-d8dc1ed09d33498399434019575eb149",
      "title": "CROCODARER BUNDLE FREE FIRE S02 BOOYAH PASS"
    },
    "generator": "Sketchfab-15.0.0",
    "version": "2.0"
  },
  "bufferViews": [
    {
      "buffer": 0,
      "byteLength": 133356,
      "name": "floatBufferViews",
      "target": 34963
    },
    {
      "buffer": 0,
      "byteLength": 87480,
      "byteOffset": 133356,
      "byteStride": 8,
      "name": "floatBufferViews",
      "target": 34962
    },
    {
      "buffer": 0,
      "byteLength": 262440,
      "byteOffset": 220836,
      "byteStride": 12,
      "name": "floatBufferViews",
      "target": 34962
    }
  ],
  "buffers": [
    {
      "byteLength": 483276,
      "uri": ".bin"
    }
  ],
  "extensionsUsed": [
    "KHR_materials_specular"
  ],
  "images": [
    {
      "uri": "textures/mat0_Mesh_3086.rip_baseColor.png"
    },
    {
      "uri": "textures/mat0_Mesh_3087.rip_baseColor.png"
    },
    {
      "uri": "textures/mat0_Mesh_3089.rip_baseColor.png"
    },
    {
      "uri": "textures/mat0_Mesh_3091.rip_baseColor.png"
    },
    {
      "uri": "textures/mat0_Mesh_3096.rip_baseColor.png"
    }
  ],
  "materials": [
    {
      "doubleSided": true,
      "extensions": {
        "KHR_materials_specular": {
          "specularColorFactor": [
            1.0,
            1.0,
            1.0
          ],
          "specularFactor": 0.0
        }
      },
      "name": "mat0_Mesh_3086.rip",
      "pbrMetallicRoughness": {
        "baseColorTexture": {
          "index": 0
        },
        "metallicFactor": 0.0,
        "roughnessFactor": 0.6
      }
    },
    {
      "doubleSided": true,
      "extensions": {
        "KHR_materials_specular": {
          "specularColorFactor": [
            1.0,
            1.0,
            1.0
          ],
          "specularFactor": 0.0
        }
      },
      "name": "mat0_Mesh_3087.rip",
      "pbrMetallicRoughness": {
        "baseColorTexture": {
          "index": 1
        },
        "metallicFactor": 0.0,
        "roughnessFactor": 0.6
      }
    },
    {
      "doubleSided": true,
      "extensions": {
        "KHR_materials_specular": {
          "specularColorFactor": [
            1.0,
            1.0,
            1.0
          ],
          "specularFactor": 0.0
        }
      },
      "name": "mat0_Mesh_3089.rip",
      "pbrMetallicRoughness": {
        "baseColorTexture": {
          "index": 2
        },
        "metallicFactor": 0.0,
        "roughnessFactor": 0.6
      }
    },
    {
      "doubleSided": true,
      "extensions": {
        "KHR_materials_specular": {
          "specularColorFactor": [
            1.0,
            1.0,
            1.0
          ],
          "specularFactor": 0.0
        }
      },
      "name": "mat0_Mesh_3091.rip",
      "pbrMetallicRoughness": {
        "baseColorTexture": {
          "index": 3
        },
        "metallicFactor": 0.0,
        "roughnessFactor": 0.6
      }
    },
    {
      "doubleSided": true,
      "extensions": {
        "KHR_materials_specular": {
          "specularColorFactor": [
            1.0,
            1.0,
            1.0
          ],
          "specularFactor": 0.0
        }
      },
      "name": "mat0_Mesh_3096.rip",
      "pbrMetallicRoughness": {
        "baseColorTexture": {
          "index": 4
        },
        "metallicFactor": 0.0,
        "roughnessFactor": 0.6
      }
    }
  ],
  "meshes": [
    {
      "name": "Object_0",
      "primitives": [
        {
          "attributes": {
            "NORMAL": 1,
            "POSITION": 0,
            "TEXCOORD_0": 2
          },
          "indices": 3,
          "material": 0,
          "mode": 4
        }
      ]
    },
    {
      "name": "Object_1",
      "primitives": [
        {
          "attributes": {
            "NORMAL": 5,
            "POSITION": 4,
            "TEXCOORD_0": 6
          },
          "indices": 7,
          "material": 1,
          "mode": 4
        }
      ]
    },
    {
      "name": "Object_2",
      "primitives": [
        {
          "attributes": {
            "NORMAL": 9,
            "POSITION": 8,
            "TEXCOORD_0": 10
          },
          "indices": 11,
          "material": 2,
          "mode": 4
        }
      ]
    },
    {
      "name": "Object_3",
      "primitives": [
        {
          "attributes": {
            "NORMAL": 13,
            "POSITION": 12,
            "TEXCOORD_0": 14
          },
          "indices": 15,
          "material": 3,
          "mode": 4
        }
      ]
    },
    {
      "name": "Object_4",
      "primitives": [
        {
          "attributes": {
            "NORMAL": 17,
            "POSITION": 16,
            "TEXCOORD_0": 18
          },
          "indices": 19,
          "material": 4,
          "mode": 4
        }
      ]
    }
  ],
  "nodes": [
    {
      "children": [
        1
      ],
      "matrix": [
        1.0,
        0.0,
        0.0,
        0.0,
        0.0,
        2.220446049250313e-16,
        -1.0,
        0.0,
        0.0,
        1.0,
        2.220446049250313e-16,
        0.0,
        0.0,
        0.0,
        0.0,
        1.0
      ],
      "name": "Sketchfab_model"
    },
    {
      "children": [
        2,
        3,
        4,
        5,
        6
      ],
      "name": "Crocodarer Bundle Basic.obj.cleaner.materialmerger.gles"
    },
    {
      "mesh": 0,
      "name": "Object_2"
    },
    {
      "mesh": 1,
      "name": "Object_3"
    },
    {
      "mesh": 2,
      "name": "Object_4"
    },
    {
      "mesh": 3,
      "name": "Object_5"
    },
    {
      "mesh": 4,
      "name": "Object_6"
    }
  ],
  "samplers": [
    {
      "magFilter": 9729,
      "minFilter": 9987,
      "wrapS": 10497,
      "wrapT": 10497
    }
  ],
  "scene": 0,
  "scenes": [
    {
      "name": "Sketchfab_Scene",
      "nodes": [
        0
      ]
    }
  ],
  "textures": [
    {
      "sampler": 0,
      "source": 0
    },
    {
      "sampler": 0,
      "source": 1
    },
    {
      "sampler": 0,
      "source": 2
    },
    {
      "sampler": 0,
      "source": 3
    },
    {
      "sampler": 0,
      "source": 4
    }
  ]
}
