{
  "accessors": [
    {
      "bufferView": 2,
      "componentType": 5126,
      "count": 546,
      "max": [
        0.09426899999380112,
        0.04596700146794319,
        0.04477899894118309
      ],
      "min": [
        -0.09443400055170059,
        -0.03811100125312805,
        -0.002104999963194132
      ],
      "type": "VEC3"
    },
    {
      "bufferView": 2,
      "byteOffset": 6552,
      "componentType": 5126,
      "count": 546,
      "max": [
        0.9916582703590393,
        0.9994783997535706,
        0.982313334941864
      ],
      "min": [
        -0.9987576007843018,
        -0.9943292737007141,
        -0.9982709884643555
      ],
      "type": "VEC3"
    },
    {
      "bufferView": 1,
      "componentType": 5126,
      "count": 546,
      "max": [
        0.9926909804344177,
        0.9998319745063782
      ],
      "min": [
        0.008011000230908394,
        0.007323999889194965
      ],
      "type": "VEC2"
    },
    {
      "bufferView": 0,
      "componentType": 5125,
      "count": 2412,
      "type": "SCALAR"
    },
    {
      "bufferView": 2,
      "byteOffset": 13104,
      "componentType": 5126,
      "count": 295,
      "max": [
        0.024140000343322754,
        0.004019999876618385,
        0.43234801292419434
      ],
      "min": [
        -0.023584000766277313,
        -0.02931799925863743,
        0.3840149939060211
      ],
      "type": "VEC3"
    },
    {
      "bufferView": 2,
      "byteOffset": 16644,
      "componentType": 5126,
      "count": 295,
      "max": [
        0.9929391741752625,
        0.9941760301589966,
        0.95402592420578
      ],
      "min": [
        -0.9986539483070374,
        -0.9909347295761108,
        -0.998174786567688
      ],
      "type": "VEC3"
    },
    {
      "bufferView": 1,
      "byteOffset": 4368,
      "componentType": 5126,
      "count": 295,
      "max": [
        0.995697021484375,
        0.9628139734268188
      ],
      "min": [
        0.023788999766111374,
        0.019210999831557274
      ],
      "type": "VEC2"
    },
    {
      "bufferView": 0,
      "byteOffset": 9648,
      "componentType": 5125,
      "count": 1293,
      "type": "SCALAR"
    },
    {
      "bufferView": 2,
      "byteOffset": 20184,
      "componentType": 5126,
      "count": 265,
      "max": [
        0.02266700007021427,
        0.04092499986290932,
        0.46474000811576843
      ],
      "min": [
        -0.022112000733613968,
        -0.028669999912381172,
        0.4137769937515259
      ],
      "type": "VEC3"
    },
    {
      "bufferView": 2,
      "byteOffset": 23364,
      "componentType": 5126,
      "count": 265,
      "max": [
        0.9997231364250183,
        0.9983038306236267,
        0.9954663515090942
      ],
      "min": [
        -0.9954612255096436,
        -0.9967675805091858,
        -0.9893723130226135
      ],
      "type": "VEC3"
    },
    {
      "bufferView": 1,
      "byteOffset": 6728,
      "componentType": 5126,
      "count": 265,
      "max": [
        0.9640039801597595,
        0.9703519940376282
      ],
      "min": [
        0.010300000198185444,
        0.015685999765992165
      ],
      "type": "VEC2"
    },
    {
      "bufferView": 0,
      "byteOffset": 14820,
      "componentType": 5125,
      "count": 1224,
      "type": "SCALAR"
    },
    {
      "bufferView": 2,
      "byteOffset": 26544,
      "componentType": 5126,
      "count": 1470,
      "max": [
        0.06718099862337112,
        0.037641000002622604,
        0.27312201261520386
      ],
      "min": [
        -0.07034800201654434,
        -0.0376489982008934,
        0.029462000355124474
      ],
      "type": "VEC3"
    },
    {
      "bufferView": 2,
      "byteOffset": 44184,
      "componentType": 5126,
      "count": 1470,
      "max": [
        0.9955482482910156,
        0.9998979568481445,
        0.9998200535774231
      ],
      "min": [
        -0.9999697208404541,
        -0.999444842338562,
        -0.9998244643211365
      ],
      "type": "VEC3"
    },
    {
      "bufferView": 1,
      "byteOffset": 8848,
      "componentType": 5126,
      "count": 1470,
      "max": [
        0.9947199821472168,
        0.9929500222206116
      ],
      "min": [
        0.017105000093579292,
        0.014298000372946262
      ],
      "type": "VEC2"
    },
    {
      "bufferView": 0,
      "byteOffset": 19716,
      "componentType": 5125,
      "count": 5208,
      "type": "SCALAR"
    },
    {
      "bufferView": 2,
      "byteOffset": 61824,
      "componentType": 5126,
      "count": 824,
      "max": [
        0.09904299676418304,
        0.04634200036525726,
        0.3999919891357422
      ],
      "min": [
        -0.08031199872493744,
        -0.032586000859737396,
        0.25672999024391174
      ],
      "type": "VEC3"
    },
    {
      "bufferView": 2,
      "byteOffset": 71712,
      "componentType": 5126,
      "count": 824,
      "max": [
        0.9999334812164307,
        0.9979990720748901,
        0.9962608814239502
      ],
      "min": [
        -0.9998877048492432,
        -0.9986884593963623,
        -0.9996530413627625
      ],
      "type": "VEC3"
    },
    {
      "bufferView": 1,
      "byteOffset": 20608,
      "componentType": 5126,
      "count": 824,
      "max": [
        0.9925990104675293,
        0.9842529892921448
      ],
      "min": [
        0.00926200021058321,
        0.009491000324487686
      ],
      "type": "VEC2"
    },
    {
      "bufferView": 0,
      "byteOffset": 40548,
      "componentType": 5125,
      "count": 3693,
      "type": "SCALAR"
    },
    {
      "bufferView": 2,
      "byteOffset": 81600,
      "componentType": 5126,
      "count": 260,
      "max": [
        0.021107999607920647,
        0.010091000236570835,
        0.4361479878425598
      ],
      "min": [
        -0.01976200006902218,
        -0.030077999457716942,
        0.4184029996395111
      ],
      "type": "VEC3"
    },
    {
      "bufferView": 2,
      "byteOffset": 84720,
      "componentType": 5126,
      "count": 260,
      "max": [
        0.9998509883880615,
        0.9876767992973328,
        0.996408224105835
      ],
      "min": [
        -0.9997531771659851,
        -0.9861767888069153,
        -0.9951213598251343
      ],
      "type": "VEC3"
    },
    {
      "bufferView": 1,
      "byteOffset": 27200,
      "componentType": 5126,
      "count": 260,
      "max": [
        0.9778900146484375,
        0.9933009743690491
      ],
      "min": [
        0.020690999925136566,
        0.01750200055539608
      ],
      "type": "VEC2"
    },
    {
      "bufferView": 0,
      "byteOffset": 55320,
      "componentType": 5125,
      "count": 660,
      "type": "SCALAR"
    },
    {
      "bufferView": 2,
      "byteOffset": 87840,
      "componentType": 5126,
      "count": 82,
      "max": [
        0.01065099984407425,
        -0.01660499908030033,
        0.4572080075740814
      ],
      "min": [
        -0.009390000253915787,
        -0.026971999555826187,
        0.4414849877357483
      ],
      "type": "VEC3"
    },
    {
      "bufferView": 2,
      "byteOffset": 88824,
      "componentType": 5126,
      "count": 82,
      "max": [
        0.5669288039207458,
        -0.1430005580186844,
        0.8916727304458618
      ],
      "min": [
        -0.7030057311058044,
        -0.9986695647239685,
        -0.4061034321784973
      ],
      "type": "VEC3"
    },
    {
      "bufferView": 1,
      "byteOffset": 29280,
      "componentType": 5126,
      "count": 82,
      "max": [
        0.9997860193252563,
        0.775937020778656
      ],
      "min": [
        0.26564401388168335,
        0.03695699945092201
      ],
      "type": "VEC2"
    },
    {
      "bufferView": 0,
      "byteOffset": 57960,
      "componentType": 5125,
      "count": 198,
      "type": "SCALAR"
    },
    {
      "bufferView": 2,
      "byteOffset": 89808,
      "componentType": 5126,
      "count": 1979,
      "max": [
        0.09826000034809113,
        0.04140700027346611,
        0.4595470130443573
      ],
      "min": [
        -0.09065300226211548,
        -0.029985999688506126,
        0.0029249999206513166
      ],
      "type": "VEC3"
    },
    {
      "bufferView": 2,
      "byteOffset": 113556,
      "componentType": 5126,
      "count": 1979,
      "max": [
        0.9997456669807434,
        0.9997180104255676,
        0.9934907555580139
      ],
      "min": [
        -0.9990657567977905,
        -0.9996545910835266,
        -0.999881386756897
      ],
      "type": "VEC3"
    },
    {
      "bufferView": 1,
      "byteOffset": 29936,
      "componentType": 5126,
      "count": 1979,
      "max": [
        0.9935910105705261,
        0.9959560036659241
      ],
      "min": [
        0.00599699979647994,
        0.0038530000019818544
      ],
      "type": "VEC2"
    },
    {
      "bufferView": 0,
      "byteOffset": 58752,
      "componentType": 5125,
      "count": 9630,
      "type": "SCALAR"
    }
  ],
  "asset": {
    "extras": {
      "author": "PACE GAMING FF (https://sketchfab.com/MDARBAZ_.OR___-PACEGAMINGFF)",
      "license": "CC-BY-4.0 (http://creativecommons.org/licenses/by/4.0/)",
      "source": "https://sketchfab.com/3d-models/freefire-new-rugby-model-by-pace-gaming-4d9b843352994798aac92455fab062ce",
      "title": "freefire new rugby model by pace gaming"
    },
    "generator": "Sketchfab-13.1.0",
    "version": "2.0"
  },
  "bufferViews": [
    {
      "buffer": 0,
      "byteLength": 97272,
      "name": "floatBufferViews",
      "target": 34963
    },
    {
      "buffer": 0,
      "byteLength": 45768,
      "byteOffset": 97272,
      "byteStride": 8,
      "name": "floatBufferViews",
      "target": 34962
    },
    {
      "buffer": 0,
      "byteLength": 137304,
      "byteOffset": 143040,
      "byteStride": 12,
      "name": "floatBufferViews",
      "target": 34962
    }
  ],
  "buffers": [
    {
      "byteLength": 280344,
      "uri": "scene.bin"
    }
  ],
  "images": [
    {
      "uri": "textures/mat0.007_baseColor.png"
    },
    {
      "uri": "textures/mat0.008_baseColor.png"
    },
    {
      "uri": "textures/mat0.009_baseColor.png"
    },
    {
      "uri": "textures/mat0.010_baseColor.png"
    },
    {
      "uri": "textures/mat0.011_baseColor.png"
    },
    {
      "uri": "textures/mat0.013_baseColor.png"
    },
    {
      "uri": "textures/mat0.014_baseColor.png"
    }
  ],
  "materials": [
    {
      "doubleSided": true,
      "name": "mat0.007",
      "pbrMetallicRoughness": {
        "baseColorTexture": {
          "index": 0
        },
        "metallicFactor": 0.0,
        "roughnessFactor": 0.6342256411356907
      }
    },
    {
      "doubleSided": true,
      "name": "mat0.008",
      "pbrMetallicRoughness": {
        "baseColorTexture": {
          "index": 1
        },
        "metallicFactor": 0.0,
        "roughnessFactor": 0.6342256411356907
      }
    },
    {
      "doubleSided": true,
      "name": "mat0.009",
      "pbrMetallicRoughness": {
        "baseColorTexture": {
          "index": 2
        },
        "metallicFactor": 0.0,
        "roughnessFactor": 0.6342256411356907
      }
    },
    {
      "doubleSided": true,
      "name": "mat0.010",
      "pbrMetallicRoughness": {
        "baseColorTexture": {
          "index": 3
        },
        "metallicFactor": 0.0,
        "roughnessFactor": 0.6342256411356907
      }
    },
    {
      "doubleSided": true,
      "name": "mat0.011",
      "pbrMetallicRoughness": {
        "baseColorTexture": {
          "index": 4
        },
        "metallicFactor": 0.0,
        "roughnessFactor": 0.6342256411356907
      }
    },
    {
      "doubleSided": true,
      "name": "mat0.012",
      "pbrMetallicRoughness": {
        "baseColorTexture": {
          "index": 1
        },
        "metallicFactor": 0.0,
        "roughnessFactor": 0.6342256411356907
      }
    },
    {
      "doubleSided": true,
      "name": "mat0.013",
      "pbrMetallicRoughness": {
        "baseColorTexture": {
          "index": 5
        },
        "metallicFactor": 0.0,
        "roughnessFactor": 0.6342256411356907
      }
    },
    {
      "doubleSided": true,
      "name": "mat0.014",
      "pbrMetallicRoughness": {
        "baseColorTexture": {
          "index": 6
        },
        "metallicFactor": 0.0,
        "roughnessFactor": 0.6342256411356907
      }
    }
  ],
  "meshes": [
    {
      "name": "Object_0",
      "primitives": [
        {
          "attributes": {
            "NORMAL": 1,
            "POSITION": 0,
            "TEXCOORD_0": 2
          },
          "indices": 3,
          "material": 0,
          "mode": 4
        }
      ]
    },
    {
      "name": "Object_1",
      "primitives": [
        {
          "attributes": {
            "NORMAL": 5,
            "POSITION": 4,
            "TEXCOORD_0": 6
          },
          "indices": 7,
          "material": 1,
          "mode": 4
        }
      ]
    },
    {
      "name": "Object_2",
      "primitives": [
        {
          "attributes": {
            "NORMAL": 9,
            "POSITION": 8,
            "TEXCOORD_0": 10
          },
          "indices": 11,
          "material": 2,
          "mode": 4
        }
      ]
    },
    {
      "name": "Object_3",
      "primitives": [
        {
          "attributes": {
            "NORMAL": 13,
            "POSITION": 12,
            "TEXCOORD_0": 14
          },
          "indices": 15,
          "material": 3,
          "mode": 4
        }
      ]
    },
    {
      "name": "Object_4",
      "primitives": [
        {
          "attributes": {
            "NORMAL": 17,
            "POSITION": 16,
            "TEXCOORD_0": 18
          },
          "indices": 19,
          "material": 4,
          "mode": 4
        }
      ]
    },
    {
      "name": "Object_5",
      "primitives": [
        {
          "attributes": {
            "NORMAL": 21,
            "POSITION": 20,
            "TEXCOORD_0": 22
          },
          "indices": 23,
          "material": 5,
          "mode": 4
        }
      ]
    },
    {
      "name": "Object_6",
      "primitives": [
        {
          "attributes": {
            "NORMAL": 25,
            "POSITION": 24,
            "TEXCOORD_0": 26
          },
          "indices": 27,
          "material": 6,
          "mode": 4
        }
      ]
    },
    {
      "name": "Object_7",
      "primitives": [
        {
          "attributes": {
            "NORMAL": 29,
            "POSITION": 28,
            "TEXCOORD_0": 30
          },
          "indices": 31,
          "material": 7,
          "mode": 4
        }
      ]
    }
  ],
  "nodes": [
    {
      "children": [
        1
      ],
      "matrix": [
        1.0,
        0.0,
        0.0,
        0.0,
        0.0,
        2.220446049250313e-16,
        -1.0,
        0.0,
        0.0,
        1.0,
        2.220446049250313e-16,
        0.0,
        0.0,
        0.0,
        0.0,
        1.0
      ],
      "name": "Sketchfab_model"
    },
    {
      "children": [
        2,
        3,
        4,
        5,
        6,
        7,
        8,
        9
      ],
      "name": "NG 2 UNSTOP.obj.cleaner.materialmerger.gles"
    },
    {
      "mesh": 0,
      "name": "Object_2"
    },
    {
      "mesh": 1,
      "name": "Object_3"
    },
    {
      "mesh": 2,
      "name": "Object_4"
    },
    {
      "mesh": 3,
      "name": "Object_5"
    },
    {
      "mesh": 4,
      "name": "Object_6"
    },
    {
      "mesh": 5,
      "name": "Object_7"
    },
    {
      "mesh": 6,
      "name": "Object_8"
    },
    {
      "mesh": 7,
      "name": "Object_9"
    }
  ],
  "samplers": [
    {
      "magFilter": 9729,
      "minFilter": 9987,
      "wrapS": 10497,
      "wrapT": 10497
    }
  ],
  "scene": 0,
  "scenes": [
    {
      "name": "Sketchfab_Scene",
      "nodes": [
        0
      ]
    }
  ],
  "textures": [
    {
      "sampler": 0,
      "source": 0
    },
    {
      "sampler": 0,
      "source": 1
    },
    {
      "sampler": 0,
      "source": 2
    },
    {
      "sampler": 0,
      "source": 3
    },
    {
      "sampler": 0,
      "source": 4
    },
    {
      "sampler": 0,
      "source": 5
    },
    {
      "sampler": 0,
      "source": 6
    }
  ]
}
