{
  "accessors": [
    {
      "bufferView": 2,
      "componentType": 5126,
      "count": 2946,
      "max": [
        2.2167980670928955,
        0.8177670240402222,
        6.018130779266357
      ],
      "min": [
        -2.2107629776000977,
        -0.6477149724960327,
        3.069338083267212
      ],
      "type": "VEC3"
    },
    {
      "bufferView": 2,
      "byteOffset": 35352,
      "componentType": 5126,
      "count": 2946,
      "max": [
        0.9999151229858398,
        0.9999202489852905,
        0.9995474219322205
      ],
      "min": [
        -0.9995947480201721,
        -0.9999204874038696,
        -0.9971703886985779
      ],
      "type": "VEC3"
    },
    {
      "bufferView": 1,
      "componentType": 5126,
      "count": 2946,
      "max": [
        0.9981539845466614,
        0.9956210255622864
      ],
      "min": [
        0.005936000030487776,
        0.00042699999175965786
      ],
      "type": "VEC2"
    },
    {
      "bufferView": 0,
      "componentType": 5125,
      "count": 10800,
      "type": "SCALAR"
    },
    {
      "bufferView": 2,
      "byteOffset": 70704,
      "componentType": 5126,
      "count": 1472,
      "max": [
        2.288032054901123,
        0.4413500130176544,
        6.71095609664917
      ],
      "min": [
        -2.2800750732421875,
        -0.5460489988327026,
        0.010087000206112862
      ],
      "type": "VEC3"
    },
    {
      "bufferView": 2,
      "byteOffset": 88368,
      "componentType": 5126,
      "count": 1472,
      "max": [
        0.9998001456260681,
        0.999808132648468,
        0.9989861845970154
      ],
      "min": [
        -0.9998156428337097,
        -0.9996017813682556,
        -0.9997387528419495
      ],
      "type": "VEC3"
    },
    {
      "bufferView": 1,
      "byteOffset": 23568,
      "componentType": 5126,
      "count": 1472,
      "max": [
        0.9935910105705261,
        0.9976770281791687
      ],
      "min": [
        0.008086999878287315,
        0.2519260048866272
      ],
      "type": "VEC2"
    },
    {
      "bufferView": 0,
      "byteOffset": 43200,
      "componentType": 5125,
      "count": 7134,
      "type": "SCALAR"
    },
    {
      "bufferView": 2,
      "byteOffset": 106032,
      "componentType": 5126,
      "count": 788,
      "max": [
        0.9845830202102661,
        0.46978700160980225,
        0.6306830048561096
      ],
      "min": [
        -1.0063140392303467,
        -0.6552640199661255,
        -0.0305160004645586
      ],
      "type": "VEC3"
    },
    {
      "bufferView": 2,
      "byteOffset": 115488,
      "componentType": 5126,
      "count": 788,
      "max": [
        0.9999818801879883,
        0.9923718571662903,
        0.9988640546798706
      ],
      "min": [
        -0.9986807107925415,
        -0.9974382519721985,
        -0.999984860420227
      ],
      "type": "VEC3"
    },
    {
      "bufferView": 1,
      "byteOffset": 35344,
      "componentType": 5126,
      "count": 788,
      "max": [
        0.998885989189148,
        0.9952089786529541
      ],
      "min": [
        0.020188000053167343,
        0.008803999982774258
      ],
      "type": "VEC2"
    },
    {
      "bufferView": 0,
      "byteOffset": 71736,
      "componentType": 5125,
      "count": 2832,
      "type": "SCALAR"
    },
    {
      "bufferView": 2,
      "byteOffset": 124944,
      "componentType": 5126,
      "count": 1085,
      "max": [
        0.8913030028343201,
        0.5432389974594116,
        4.010750770568848
      ],
      "min": [
        -0.8975679874420166,
        -0.5065820217132568,
        1.0115000009536743
      ],
      "type": "VEC3"
    },
    {
      "bufferView": 2,
      "byteOffset": 137964,
      "componentType": 5126,
      "count": 1085,
      "max": [
        0.9959609508514404,
        0.994303822517395,
        0.9992169141769409
      ],
      "min": [
        -0.9997298121452332,
        -0.9997548460960388,
        -0.9942189455032349
      ],
      "type": "VEC3"
    },
    {
      "bufferView": 1,
      "byteOffset": 41648,
      "componentType": 5126,
      "count": 1085,
      "max": [
        0.9940950274467468,
        0.9937130212783813
      ],
      "min": [
        0.005890000145882368,
        0.005814000032842159
      ],
      "type": "VEC2"
    },
    {
      "bufferView": 0,
      "byteOffset": 83064,
      "componentType": 5125,
      "count": 5058,
      "type": "SCALAR"
    },
    {
      "bufferView": 2,
      "byteOffset": 150984,
      "componentType": 5126,
      "count": 203,
      "max": [
        0.30498000979423523,
        0.34154900908470154,
        6.234397888183594
      ],
      "min": [
        -0.31117698550224304,
        -0.47525399923324585,
        5.109039783477783
      ],
      "type": "VEC3"
    },
    {
      "bufferView": 2,
      "byteOffset": 153420,
      "componentType": 5126,
      "count": 203,
      "max": [
        0.9928788542747498,
        0.9994082450866699,
        0.6414151191711426
      ],
      "min": [
        -0.9992706775665283,
        -0.9976622462272644,
        -0.9821311235427856
      ],
      "type": "VEC3"
    },
    {
      "bufferView": 1,
      "byteOffset": 50328,
      "componentType": 5126,
      "count": 203,
      "max": [
        0.9879000186920166,
        0.8302590250968933
      ],
      "min": [
        0.007934999652206898,
        0.0890209972858429
      ],
      "type": "VEC2"
    },
    {
      "bufferView": 0,
      "byteOffset": 103296,
      "componentType": 5125,
      "count": 864,
      "type": "SCALAR"
    },
    {
      "bufferView": 2,
      "byteOffset": 155856,
      "componentType": 5126,
      "count": 1099,
      "max": [
        0.3241409957408905,
        0.8253229856491089,
        6.970249176025391
      ],
      "min": [
        -0.3108699917793274,
        -0.34929800033569336,
        6.02539587020874
      ],
      "type": "VEC3"
    },
    {
      "bufferView": 2,
      "byteOffset": 169044,
      "componentType": 5126,
      "count": 1099,
      "max": [
        0.9997958540916443,
        0.9999282360076904,
        0.998198926448822
      ],
      "min": [
        -0.9968398213386536,
        -0.9984703660011292,
        -0.9700518846511841
      ],
      "type": "VEC3"
    },
    {
      "bufferView": 1,
      "byteOffset": 51952,
      "componentType": 5126,
      "count": 1099,
      "max": [
        0.8960250020027161,
        0.7204390168190002
      ],
      "min": [
        0.051743000745773315,
        0.02160700038075447
      ],
      "type": "VEC2"
    },
    {
      "bufferView": 0,
      "byteOffset": 106752,
      "componentType": 5125,
      "count": 3777,
      "type": "SCALAR"
    }
  ],
  "asset": {
    "extras": {
      "author": "PACE GAMING FF (https://sketchfab.com/MDARBAZ_.OR___-PACEGAMINGFF)",
      "license": "CC-BY-4.0 (http://creativecommons.org/licenses/by/4.0/)",
      "source": "https://sketchfab.com/3d-models/freefire-3d-model-by-pace-gaming-1803719a84ec45a9a1e7f1bfddcbf4b7",
      "title": "freefire 3d model by pace gaming"
    },
    "generator": "Sketchfab-13.83.0",
    "version": "2.0"
  },
  "bufferViews": [
    {
      "buffer": 0,
      "byteLength": 121860,
      "name": "floatBufferViews",
      "target": 34963
    },
    {
      "buffer": 0,
      "byteLength": 60744,
      "byteOffset": 121860,
      "byteStride": 8,
      "name": "floatBufferViews",
      "target": 34962
    },
    {
      "buffer": 0,
      "byteLength": 182232,
      "byteOffset": 182604,
      "byteStride": 12,
      "name": "floatBufferViews",
      "target": 34962
    }
  ],
  "buffers": [
    {
      "byteLength": 364836,
      "uri": "scene.bin"
    }
  ],
  "images": [
    {
      "uri": "textures/mat0_baseColor.png"
    },
    {
      "uri": "textures/mat0.001_baseColor.png"
    },
    {
      "uri": "textures/mat0.002_baseColor.png"
    },
    {
      "uri": "textures/mat0.003_baseColor.png"
    },
    {
      "uri": "textures/mat0.004_baseColor.png"
    },
    {
      "uri": "textures/mat0.005_baseColor.png"
    }
  ],
  "materials": [
    {
      "doubleSided": true,
      "name": "mat0",
      "pbrMetallicRoughness": {
        "baseColorTexture": {
          "index": 0
        },
        "metallicFactor": 0.0,
        "roughnessFactor": 0.6342256411356907
      }
    },
    {
      "doubleSided": true,
      "name": "mat0.001",
      "pbrMetallicRoughness": {
        "baseColorTexture": {
          "index": 1
        },
        "metallicFactor": 0.0,
        "roughnessFactor": 0.6342256411356907
      }
    },
    {
      "doubleSided": true,
      "name": "mat0.002",
      "pbrMetallicRoughness": {
        "baseColorTexture": {
          "index": 2
        },
        "metallicFactor": 0.0,
        "roughnessFactor": 0.6342256411356907
      }
    },
    {
      "doubleSided": true,
      "name": "mat0.003",
      "pbrMetallicRoughness": {
        "baseColorTexture": {
          "index": 3
        },
        "metallicFactor": 0.0,
        "roughnessFactor": 0.6342256411356907
      }
    },
    {
      "doubleSided": true,
      "name": "mat0.004",
      "pbrMetallicRoughness": {
        "baseColorTexture": {
          "index": 4
        },
        "metallicFactor": 0.0,
        "roughnessFactor": 0.6342256411356907
      }
    },
    {
      "doubleSided": true,
      "name": "mat0.005",
      "pbrMetallicRoughness": {
        "baseColorTexture": {
          "index": 5
        },
        "metallicFactor": 0.0,
        "roughnessFactor": 0.6342256411356907
      }
    }
  ],
  "meshes": [
    {
      "name": "Object_0",
      "primitives": [
        {
          "attributes": {
            "NORMAL": 1,
            "POSITION": 0,
            "TEXCOORD_0": 2
          },
          "indices": 3,
          "material": 0,
          "mode": 4
        }
      ]
    },
    {
      "name": "Object_1",
      "primitives": [
        {
          "attributes": {
            "NORMAL": 5,
            "POSITION": 4,
            "TEXCOORD_0": 6
          },
          "indices": 7,
          "material": 1,
          "mode": 4
        }
      ]
    },
    {
      "name": "Object_2",
      "primitives": [
        {
          "attributes": {
            "NORMAL": 9,
            "POSITION": 8,
            "TEXCOORD_0": 10
          },
          "indices": 11,
          "material": 2,
          "mode": 4
        }
      ]
    },
    {
      "name": "Object_3",
      "primitives": [
        {
          "attributes": {
            "NORMAL": 13,
            "POSITION": 12,
            "TEXCOORD_0": 14
          },
          "indices": 15,
          "material": 3,
          "mode": 4
        }
      ]
    },
    {
      "name": "Object_4",
      "primitives": [
        {
          "attributes": {
            "NORMAL": 17,
            "POSITION": 16,
            "TEXCOORD_0": 18
          },
          "indices": 19,
          "material": 4,
          "mode": 4
        }
      ]
    },
    {
      "name": "Object_5",
      "primitives": [
        {
          "attributes": {
            "NORMAL": 21,
            "POSITION": 20,
            "TEXCOORD_0": 22
          },
          "indices": 23,
          "material": 5,
          "mode": 4
        }
      ]
    }
  ],
  "nodes": [
    {
      "children": [
        1
      ],
      "matrix": [
        1.0,
        0.0,
        0.0,
        0.0,
        0.0,
        2.220446049250313e-16,
        -1.0,
        0.0,
        0.0,
        1.0,
        2.220446049250313e-16,
        0.0,
        0.0,
        0.0,
        0.0,
        1.0
      ],
      "name": "Sketchfab_model"
    },
    {
      "children": [
        2,
        3,
        4,
        5,
        6,
        7
      ],
      "name": "11dvg.obj.cleaner.materialmerger.gles"
    },
    {
      "mesh": 0,
      "name": "Object_2"
    },
    {
      "mesh": 1,
      "name": "Object_3"
    },
    {
      "mesh": 2,
      "name": "Object_4"
    },
    {
      "mesh": 3,
      "name": "Object_5"
    },
    {
      "mesh": 4,
      "name": "Object_6"
    },
    {
      "mesh": 5,
      "name": "Object_7"
    }
  ],
  "samplers": [
    {
      "magFilter": 9729,
      "minFilter": 9987,
      "wrapS": 10497,
      "wrapT": 10497
    }
  ],
  "scene": 0,
  "scenes": [
    {
      "name": "Sketchfab_Scene",
      "nodes": [
        0
      ]
    }
  ],
  "textures": [
    {
      "sampler": 0,
      "source": 0
    },
    {
      "sampler": 0,
      "source": 1
    },
    {
      "sampler": 0,
      "source": 2
    },
    {
      "sampler": 0,
      "source": 3
    },
    {
      "sampler": 0,
      "source": 4
    },
    {
      "sampler": 0,
      "source": 5
    }
  ]
}
