{
  "accessors": [
    {
      "bufferView": 2,
      "componentType": 5126,
      "count": 1561,
      "max": [
        1.4391930103302002,
        0.21975600719451904,
        5.130183219909668
      ],
      "min": [
        -1.4268670082092285,
        -0.3651759922504425,
        0.022081000730395317
      ],
      "type": "VEC3"
    },
    {
      "bufferView": 2,
      "byteOffset": 18732,
      "componentType": 5126,
      "count": 1561,
      "max": [
        0.9992194175720215,
        0.9998388886451721,
        0.9999219179153442
      ],
      "min": [
        -0.9999755620956421,
        -0.9999755620956421,
        -0.9982059597969055
      ],
      "type": "VEC3"
    },
    {
      "bufferView": 1,
      "componentType": 5126,
      "count": 1561,
      "max": [
        0.9921720027923584,
        0.9936220049858093
      ],
      "min": [
        0.008057000115513802,
        0.0038449999410659075
      ],
      "type": "VEC2"
    },
    {
      "bufferView": 0,
      "componentType": 5125,
      "count": 7428,
      "type": "SCALAR"
    },
    {
      "bufferView": 2,
      "byteOffset": 37464,
      "componentType": 5126,
      "count": 591,
      "max": [
        0.7171540260314941,
        0.2692759931087494,
        0.41059398651123047
      ],
      "min": [
        -0.6922330260276794,
        -0.529570996761322,
        0.0005029999883845448
      ],
      "type": "VEC3"
    },
    {
      "bufferView": 2,
      "byteOffset": 44556,
      "componentType": 5126,
      "count": 591,
      "max": [
        0.9984481930732727,
        0.9870571494102478,
        0.9951465129852295
      ],
      "min": [
        -0.9937683343887329,
        -0.9998999834060669,
        -0.9999852180480957
      ],
      "type": "VEC3"
    },
    {
      "bufferView": 1,
      "byteOffset": 12488,
      "componentType": 5126,
      "count": 591,
      "max": [
        0.9845269918441772,
        0.9859009981155396
      ],
      "min": [
        0.020736999809741974,
        0.016419000923633575
      ],
      "type": "VEC2"
    },
    {
      "bufferView": 0,
      "byteOffset": 29712,
      "componentType": 5125,
      "count": 2250,
      "type": "SCALAR"
    },
    {
      "bufferView": 2,
      "byteOffset": 51648,
      "componentType": 5126,
      "count": 884,
      "max": [
        0.5971400141716003,
        0.3320949971675873,
        3.3465800285339355
      ],
      "min": [
        -0.5881230235099792,
        -0.4067400097846985,
        0.6333640217781067
      ],
      "type": "VEC3"
    },
    {
      "bufferView": 2,
      "byteOffset": 62256,
      "componentType": 5126,
      "count": 884,
      "max": [
        0.9987813830375671,
        0.9999734163284302,
        0.9899830222129822
      ],
      "min": [
        -0.9999903440475464,
        -0.9999434947967529,
        -0.9990125298500061
      ],
      "type": "VEC3"
    },
    {
      "bufferView": 1,
      "byteOffset": 17216,
      "componentType": 5126,
      "count": 884,
      "max": [
        0.9801790118217468,
        0.9862970113754272
      ],
      "min": [
        0.011795000173151493,
        0.011215000413358212
      ],
      "type": "VEC2"
    },
    {
      "bufferView": 0,
      "byteOffset": 38712,
      "componentType": 5125,
      "count": 4290,
      "type": "SCALAR"
    },
    {
      "bufferView": 2,
      "byteOffset": 72864,
      "componentType": 5126,
      "count": 927,
      "max": [
        1.286573052406311,
        0.28272300958633423,
        4.641229152679443
      ],
      "min": [
        -1.278743028640747,
        -0.4308669865131378,
        2.9989359378814697
      ],
      "type": "VEC3"
    },
    {
      "bufferView": 2,
      "byteOffset": 83988,
      "componentType": 5126,
      "count": 927,
      "max": [
        0.9951556324958801,
        0.9998045563697815,
        0.9241014122962952
      ],
      "min": [
        -0.9979985952377319,
        -0.9999284744262695,
        -0.9999843835830688
      ],
      "type": "VEC3"
    },
    {
      "bufferView": 1,
      "byteOffset": 24288,
      "componentType": 5126,
      "count": 927,
      "max": [
        0.9942929744720459,
        0.9962310194969177
      ],
      "min": [
        0.010085999965667725,
        0.007400999777019024
      ],
      "type": "VEC2"
    },
    {
      "bufferView": 0,
      "byteOffset": 55872,
      "componentType": 5125,
      "count": 4512,
      "type": "SCALAR"
    },
    {
      "bufferView": 2,
      "byteOffset": 95112,
      "componentType": 5126,
      "count": 404,
      "max": [
        0.20352299511432648,
        0.09173599630594254,
        4.852712154388428
      ],
      "min": [
        -0.19170600175857544,
        -0.3317590057849884,
        4.703676223754883
      ],
      "type": "VEC3"
    },
    {
      "bufferView": 2,
      "byteOffset": 99960,
      "componentType": 5126,
      "count": 404,
      "max": [
        0.9999905824661255,
        0.991707444190979,
        0.9841693639755249
      ],
      "min": [
        -0.9999903440475464,
        -0.9687067866325378,
        -0.9883168935775757
      ],
      "type": "VEC3"
    },
    {
      "bufferView": 1,
      "byteOffset": 31704,
      "componentType": 5126,
      "count": 404,
      "max": [
        0.9948269724845886,
        0.558633029460907
      ],
      "min": [
        0.008422999642789364,
        0.008071999996900558
      ],
      "type": "VEC2"
    },
    {
      "bufferView": 0,
      "byteOffset": 73920,
      "componentType": 5125,
      "count": 1482,
      "type": "SCALAR"
    },
    {
      "bufferView": 2,
      "byteOffset": 104808,
      "componentType": 5126,
      "count": 314,
      "max": [
        0.3450680077075958,
        0.06229199841618538,
        5.361300945281982
      ],
      "min": [
        -0.2988770008087158,
        -0.10690700262784958,
        4.694340229034424
      ],
      "type": "VEC3"
    },
    {
      "bufferView": 2,
      "byteOffset": 108576,
      "componentType": 5126,
      "count": 314,
      "max": [
        0.9993746280670166,
        0.9996668696403503,
        0.9977450370788574
      ],
      "min": [
        -0.9999755620956421,
        -0.9992499947547913,
        -0.9986966848373413
      ],
      "type": "VEC3"
    },
    {
      "bufferView": 1,
      "byteOffset": 34936,
      "componentType": 5126,
      "count": 314,
      "max": [
        0.991500973701477,
        0.9928280115127563
      ],
      "min": [
        0.006209999788552523,
        0.005584999918937683
      ],
      "type": "VEC2"
    },
    {
      "bufferView": 0,
      "byteOffset": 79848,
      "componentType": 5125,
      "count": 1014,
      "type": "SCALAR"
    },
    {
      "bufferView": 2,
      "byteOffset": 112344,
      "componentType": 5126,
      "count": 1475,
      "max": [
        0.30843499302864075,
        0.4846319854259491,
        5.200997829437256
      ],
      "min": [
        -0.3472819924354553,
        -0.35643500089645386,
        4.014120101928711
      ],
      "type": "VEC3"
    },
    {
      "bufferView": 2,
      "byteOffset": 130044,
      "componentType": 5126,
      "count": 1475,
      "max": [
        0.9999734163284302,
        0.9999731779098511,
        0.9996092915534973
      ],
      "min": [
        -0.9997634291648865,
        -0.9999434947967529,
        -0.6498688459396362
      ],
      "type": "VEC3"
    },
    {
      "bufferView": 1,
      "byteOffset": 37448,
      "componentType": 5126,
      "count": 1475,
      "max": [
        0.9643549919128418,
        0.9588770270347595
      ],
      "min": [
        0.02462800033390522,
        0.0017089999746531248
      ],
      "type": "VEC2"
    },
    {
      "bufferView": 0,
      "byteOffset": 83904,
      "componentType": 5125,
      "count": 4635,
      "type": "SCALAR"
    }
  ],
  "asset": {
    "extras": {
      "author": "PACE GAMING FF (https://sketchfab.com/MDARBAZ_.OR___-PACEGAMINGFF)",
      "license": "CC-BY-4.0 (http://creativecommons.org/licenses/by/4.0/)",
      "source": "https://sketchfab.com/3d-models/freefire-new-girl-3d-model-by-pace-gaming-237848838ea04d1da98c79afdb9bc72e",
      "title": "freefire new girl 3d model by pace gaming"
    },
    "generator": "Sketchfab-13.74.0",
    "version": "2.0"
  },
  "bufferViews": [
    {
      "buffer": 0,
      "byteLength": 102444,
      "name": "floatBufferViews",
      "target": 34963
    },
    {
      "buffer": 0,
      "byteLength": 49248,
      "byteOffset": 102444,
      "byteStride": 8,
      "name": "floatBufferViews",
      "target": 34962
    },
    {
      "buffer": 0,
      "byteLength": 147744,
      "byteOffset": 151692,
      "byteStride": 12,
      "name": "floatBufferViews",
      "target": 34962
    }
  ],
  "buffers": [
    {
      "byteLength": 299436,
      "uri": "scene.bin"
    }
  ],
  "images": [
    {
      "uri": "textures/mat0_baseColor.png"
    },
    {
      "uri": "textures/mat0.001_baseColor.png"
    },
    {
      "uri": "textures/mat0.002_baseColor.png"
    },
    {
      "uri": "textures/mat0.003_baseColor.png"
    },
    {
      "uri": "textures/mat0.004_baseColor.png"
    },
    {
      "uri": "textures/mat0.005_baseColor.png"
    },
    {
      "uri": "textures/mat0.006_baseColor.png"
    }
  ],
  "materials": [
    {
      "doubleSided": true,
      "name": "mat0",
      "pbrMetallicRoughness": {
        "baseColorTexture": {
          "index": 0
        },
        "metallicFactor": 0.0,
        "roughnessFactor": 0.6342256411356907
      }
    },
    {
      "doubleSided": true,
      "name": "mat0.001",
      "pbrMetallicRoughness": {
        "baseColorTexture": {
          "index": 1
        },
        "metallicFactor": 0.0,
        "roughnessFactor": 0.6342256411356907
      }
    },
    {
      "doubleSided": true,
      "name": "mat0.002",
      "pbrMetallicRoughness": {
        "baseColorTexture": {
          "index": 2
        },
        "metallicFactor": 0.0,
        "roughnessFactor": 0.6342256411356907
      }
    },
    {
      "doubleSided": true,
      "name": "mat0.003",
      "pbrMetallicRoughness": {
        "baseColorTexture": {
          "index": 3
        },
        "metallicFactor": 0.0,
        "roughnessFactor": 0.6342256411356907
      }
    },
    {
      "doubleSided": true,
      "name": "mat0.004",
      "pbrMetallicRoughness": {
        "baseColorTexture": {
          "index": 4
        },
        "metallicFactor": 0.0,
        "roughnessFactor": 0.6342256411356907
      }
    },
    {
      "doubleSided": true,
      "name": "mat0.005",
      "pbrMetallicRoughness": {
        "baseColorTexture": {
          "index": 5
        },
        "metallicFactor": 0.0,
        "roughnessFactor": 0.6342256411356907
      }
    },
    {
      "doubleSided": true,
      "name": "mat0.006",
      "pbrMetallicRoughness": {
        "baseColorTexture": {
          "index": 6
        },
        "metallicFactor": 0.0,
        "roughnessFactor": 0.6342256411356907
      }
    }
  ],
  "meshes": [
    {
      "name": "Object_0",
      "primitives": [
        {
          "attributes": {
            "NORMAL": 1,
            "POSITION": 0,
            "TEXCOORD_0": 2
          },
          "indices": 3,
          "material": 0,
          "mode": 4
        }
      ]
    },
    {
      "name": "Object_1",
      "primitives": [
        {
          "attributes": {
            "NORMAL": 5,
            "POSITION": 4,
            "TEXCOORD_0": 6
          },
          "indices": 7,
          "material": 1,
          "mode": 4
        }
      ]
    },
    {
      "name": "Object_2",
      "primitives": [
        {
          "attributes": {
            "NORMAL": 9,
            "POSITION": 8,
            "TEXCOORD_0": 10
          },
          "indices": 11,
          "material": 2,
          "mode": 4
        }
      ]
    },
    {
      "name": "Object_3",
      "primitives": [
        {
          "attributes": {
            "NORMAL": 13,
            "POSITION": 12,
            "TEXCOORD_0": 14
          },
          "indices": 15,
          "material": 3,
          "mode": 4
        }
      ]
    },
    {
      "name": "Object_4",
      "primitives": [
        {
          "attributes": {
            "NORMAL": 17,
            "POSITION": 16,
            "TEXCOORD_0": 18
          },
          "indices": 19,
          "material": 4,
          "mode": 4
        }
      ]
    },
    {
      "name": "Object_5",
      "primitives": [
        {
          "attributes": {
            "NORMAL": 21,
            "POSITION": 20,
            "TEXCOORD_0": 22
          },
          "indices": 23,
          "material": 5,
          "mode": 4
        }
      ]
    },
    {
      "name": "Object_6",
      "primitives": [
        {
          "attributes": {
            "NORMAL": 25,
            "POSITION": 24,
            "TEXCOORD_0": 26
          },
          "indices": 27,
          "material": 6,
          "mode": 4
        }
      ]
    }
  ],
  "nodes": [
    {
      "children": [
        1
      ],
      "matrix": [
        1.0,
        0.0,
        0.0,
        0.0,
        0.0,
        2.220446049250313e-16,
        -1.0,
        0.0,
        0.0,
        1.0,
        2.220446049250313e-16,
        0.0,
        0.0,
        0.0,
        0.0,
        1.0
      ],
      "name": "Sketchfab_model"
    },
    {
      "children": [
        2,
        3,
        4,
        5,
        6,
        7,
        8
      ],
      "name": "2 dg.obj.cleaner.materialmerger.gles"
    },
    {
      "mesh": 0,
      "name": "Object_2"
    },
    {
      "mesh": 1,
      "name": "Object_3"
    },
    {
      "mesh": 2,
      "name": "Object_4"
    },
    {
      "mesh": 3,
      "name": "Object_5"
    },
    {
      "mesh": 4,
      "name": "Object_6"
    },
    {
      "mesh": 5,
      "name": "Object_7"
    },
    {
      "mesh": 6,
      "name": "Object_8"
    }
  ],
  "samplers": [
    {
      "magFilter": 9729,
      "minFilter": 9987,
      "wrapS": 10497,
      "wrapT": 10497
    }
  ],
  "scene": 0,
  "scenes": [
    {
      "name": "Sketchfab_Scene",
      "nodes": [
        0
      ]
    }
  ],
  "textures": [
    {
      "sampler": 0,
      "source": 0
    },
    {
      "sampler": 0,
      "source": 1
    },
    {
      "sampler": 0,
      "source": 2
    },
    {
      "sampler": 0,
      "source": 3
    },
    {
      "sampler": 0,
      "source": 4
    },
    {
      "sampler": 0,
      "source": 5
    },
    {
      "sampler": 0,
      "source": 6
    }
  ]
}
