{
  "accessors": [
    {
      "bufferView": 2,
      "componentType": 5126,
      "count": 6728,
      "max": [
        1.2238367795944214,
        0.25135353207588196,
        3.498032569885254
      ],
      "min": [
        -1.2028785943984985,
        -0.25135350227355957,
        -0.952820897102356
      ],
      "type": "VEC3"
    },
    {
      "bufferView": 2,
      "byteOffset": 80736,
      "componentType": 5126,
      "count": 6728,
      "max": [
        0.9997949004173279,
        1.0,
        1.0
      ],
      "min": [
        -0.9997949004173279,
        -1.0,
        -1.0
      ],
      "type": "VEC3"
    },
    {
      "bufferView": 1,
      "componentType": 5126,
      "count": 6728,
      "max": [
        0.9889093637466431,
        1.0
      ],
      "min": [
        0.0,
        0.0
      ],
      "type": "VEC2"
    },
    {
      "bufferView": 0,
      "componentType": 5125,
      "count": 8760,
      "type": "SCALAR"
    }
  ],
  "asset": {
    "extras": {
      "author": "Liberi Arcano (https://sketchfab.com/LiberiArcano)",
      "license": "CC-BY-4.0 (http://creativecommons.org/licenses/by/4.0/)",
      "source": "https://sketchfab.com/3d-models/swordtember-2022-day-28-b-ancient-fragments-b08508bcb47a43c6986c7a60e15c8996",
      "title": "Swordtember 2022 Day 28-B: Ancient Fragments"
    },
    "generator": "Sketchfab-14.8.0",
    "version": "2.0"
  },
  "bufferViews": [
    {
      "buffer": 0,
      "byteLength": 35040,
      "name": "floatBufferViews",
      "target": 34963
    },
    {
      "buffer": 0,
      "byteLength": 53824,
      "byteOffset": 35040,
      "byteStride": 8,
      "name": "floatBufferViews",
      "target": 34962
    },
    {
      "buffer": 0,
      "byteLength": 161472,
      "byteOffset": 88864,
      "byteStride": 12,
      "name": "floatBufferViews",
      "target": 34962
    }
  ],
  "buffers": [
    {
      "byteLength": 250336,
      "uri": "scene.bin"
    }
  ],
  "materials": [
    {
      "doubleSided": true,
      "name": "Sword_Relic",
      "pbrMetallicRoughness": {
        "baseColorFactor": [
          0.025427238081887054,
          0.00480447063212135,
          0.005708807722503562,
          1.0
        ],
        "metallicFactor": 0.6008043172733523,
        "roughnessFactor": 0.2835978900360787
      }
    }
  ],
  "meshes": [
    {
      "name": "Cube_Sword_Relic_0",
      "primitives": [
        {
          "attributes": {
            "NORMAL": 1,
            "POSITION": 0,
            "TEXCOORD_0": 2
          },
          "indices": 3,
          "material": 0,
          "mode": 4
        }
      ]
    }
  ],
  "nodes": [
    {
      "children": [
        1
      ],
      "matrix": [
        1.0,
        0.0,
        0.0,
        0.0,
        0.0,
        2.220446049250313e-16,
        -1.0,
        0.0,
        0.0,
        1.0,
        2.220446049250313e-16,
        0.0,
        0.0,
        0.0,
        0.0,
        1.0
      ],
      "name": "Sketchfab_model"
    },
    {
      "children": [
        2
      ],
      "matrix": [
        0.009999999776482582,
        0.0,
        0.0,
        0.0,
        0.0,
        0.0,
        0.009999999776482582,
        0.0,
        0.0,
        -0.009999999776482582,
        0.0,
        0.0,
        0.0,
        0.0,
        0.0,
        1.0
      ],
      "name": "e1e16739c9a0435ebaca7f44baf7d345.fbx"
    },
    {
      "children": [
        3
      ],
      "name": "RootNode"
    },
    {
      "children": [
        4
      ],
      "matrix": [
        70.71068618270486,
        -70.7106808441968,
        -1.1681584946856942e-05,
        0.0,
        -1.9780358900822748e-05,
        -3.2601051858094365e-06,
        -99.999999999998,
        0.0,
        70.710680844195,
        70.71068618270577,
        -1.6292069204373744e-05,
        0.0,
        0.0,
        0.0,
        0.0,
        1.0
      ],
      "name": "Cube"
    },
    {
      "mesh": 0,
      "name": "Cube_Sword_Relic_0"
    }
  ],
  "scene": 0,
  "scenes": [
    {
      "name": "Sketchfab_Scene",
      "nodes": [
        0
      ]
    }
  ]
}
