{
  "accessors": [
    {
      "bufferView": 2,
      "componentType": 5126,
      "count": 929,
      "max": [
        0.9572039842605591,
        0.4195590019226074,
        6.610422134399414
      ],
      "min": [
        -0.9483050107955933,
        -0.5309680104255676,
        0.009929000400006771
      ],
      "type": "VEC3"
    },
    {
      "bufferView": 2,
      "byteOffset": 11148,
      "componentType": 5126,
      "count": 929,
      "max": [
        0.9993653297424316,
        0.9956996440887451,
        0.9982399940490723
      ],
      "min": [
        -0.9998010993003845,
        -0.9998642206192017,
        -0.9997389912605286
      ],
      "type": "VEC3"
    },
    {
      "bufferView": 1,
      "componentType": 5126,
      "count": 929,
      "max": [
        0.9921720027923584,
        0.8289009928703308
      ],
      "min": [
        0.008057000115513802,
        0.0038449999410659075
      ],
      "type": "VEC2"
    },
    {
      "bufferView": 0,
      "componentType": 5125,
      "count": 4917,
      "type": "SCALAR"
    },
    {
      "bufferView": 2,
      "byteOffset": 22296,
      "componentType": 5126,
      "count": 578,
      "max": [
        1.005087971687317,
        0.4603469967842102,
        0.5384439826011658
      ],
      "min": [
        -0.9910889863967896,
        -0.6768580079078674,
        0.0010930000571534038
      ],
      "type": "VEC3"
    },
    {
      "bufferView": 2,
      "byteOffset": 29232,
      "componentType": 5126,
      "count": 578,
      "max": [
        0.9977586269378662,
        0.9982504844665527,
        0.9957002401351929
      ],
      "min": [
        -0.9987459778785706,
        -0.9993106126785278,
        -0.9999843835830688
      ],
      "type": "VEC3"
    },
    {
      "bufferView": 1,
      "byteOffset": 7432,
      "componentType": 5126,
      "count": 578,
      "max": [
        0.9845269918441772,
        0.9859009981155396
      ],
      "min": [
        0.020736999809741974,
        0.016419000923633575
      ],
      "type": "VEC2"
    },
    {
      "bufferView": 0,
      "byteOffset": 19668,
      "componentType": 5125,
      "count": 2202,
      "type": "SCALAR"
    },
    {
      "bufferView": 2,
      "byteOffset": 36168,
      "componentType": 5126,
      "count": 783,
      "max": [
        0.8957229852676392,
        0.490882009267807,
        3.9835469722747803
      ],
      "min": [
        -0.9170100092887878,
        -0.4309850037097931,
        0.35119301080703735
      ],
      "type": "VEC3"
    },
    {
      "bufferView": 2,
      "byteOffset": 45564,
      "componentType": 5126,
      "count": 783,
      "max": [
        0.9995521903038025,
        0.9993624687194824,
        0.9740225076675415
      ],
      "min": [
        -0.9998062252998352,
        -0.9983125329017639,
        -0.9889646768569946
      ],
      "type": "VEC3"
    },
    {
      "bufferView": 1,
      "byteOffset": 12056,
      "componentType": 5126,
      "count": 783,
      "max": [
        0.9978939890861511,
        0.9889370203018188
      ],
      "min": [
        0.0027920000720769167,
        0.004211000166833401
      ],
      "type": "VEC2"
    },
    {
      "bufferView": 0,
      "byteOffset": 28476,
      "componentType": 5125,
      "count": 3858,
      "type": "SCALAR"
    },
    {
      "bufferView": 2,
      "byteOffset": 54960,
      "componentType": 5126,
      "count": 2901,
      "max": [
        2.27777099609375,
        0.7620019912719727,
        5.957780838012695
      ],
      "min": [
        -2.2525219917297363,
        -0.8039569854736328,
        3.25463604927063
      ],
      "type": "VEC3"
    },
    {
      "bufferView": 2,
      "byteOffset": 89772,
      "componentType": 5126,
      "count": 2901,
      "max": [
        0.9990541934967041,
        0.9997370839118958,
        0.9973095655441284
      ],
      "min": [
        -0.9997417330741882,
        -0.9999204874038696,
        -0.9942553043365479
      ],
      "type": "VEC3"
    },
    {
      "bufferView": 1,
      "byteOffset": 18320,
      "componentType": 5126,
      "count": 2901,
      "max": [
        0.9955289959907532,
        0.9933170080184937
      ],
      "min": [
        0.0042570000514388084,
        0.004027999937534332
      ],
      "type": "VEC2"
    },
    {
      "bufferView": 0,
      "byteOffset": 43908,
      "componentType": 5125,
      "count": 11385,
      "type": "SCALAR"
    },
    {
      "bufferView": 2,
      "byteOffset": 124584,
      "componentType": 5126,
      "count": 113,
      "max": [
        0.30784299969673157,
        0.3709149956703186,
        6.109262943267822
      ],
      "min": [
        -0.30649301409721375,
        -0.46970999240875244,
        5.717088222503662
      ],
      "type": "VEC3"
    },
    {
      "bufferView": 2,
      "byteOffset": 125940,
      "componentType": 5126,
      "count": 113,
      "max": [
        0.9743980169296265,
        0.9958893060684204,
        0.3553208112716675
      ],
      "min": [
        -0.9488471746444702,
        -0.9916704297065735,
        -0.9993702173233032
      ],
      "type": "VEC3"
    },
    {
      "bufferView": 1,
      "byteOffset": 41528,
      "componentType": 5126,
      "count": 113,
      "max": [
        0.24896599352359772,
        0.9843140244483948
      ],
      "min": [
        0.019759999588131905,
        0.01422099955379963
      ],
      "type": "VEC2"
    },
    {
      "bufferView": 0,
      "byteOffset": 89448,
      "componentType": 5125,
      "count": 558,
      "type": "SCALAR"
    },
    {
      "bufferView": 2,
      "byteOffset": 127296,
      "componentType": 5126,
      "count": 208,
      "max": [
        0.43606799840927124,
        0.16338999569416046,
        6.705101013183594
      ],
      "min": [
        -0.4350639879703522,
        -0.17046399414539337,
        6.005328178405762
      ],
      "type": "VEC3"
    },
    {
      "bufferView": 2,
      "byteOffset": 129792,
      "componentType": 5126,
      "count": 208,
      "max": [
        0.9986112117767334,
        0.9760375618934631,
        0.9743279218673706
      ],
      "min": [
        -0.9986315369606018,
        -0.9832470417022705,
        -0.9896338582038879
      ],
      "type": "VEC3"
    },
    {
      "bufferView": 1,
      "byteOffset": 42432,
      "componentType": 5126,
      "count": 208,
      "max": [
        0.8970019817352295,
        0.6131839752197266
      ],
      "min": [
        0.15228499472141266,
        0.009049000218510628
      ],
      "type": "VEC2"
    },
    {
      "bufferView": 0,
      "byteOffset": 91680,
      "componentType": 5125,
      "count": 732,
      "type": "SCALAR"
    },
    {
      "bufferView": 2,
      "byteOffset": 132288,
      "componentType": 5126,
      "count": 970,
      "max": [
        0.3711389899253845,
        0.4696410000324249,
        6.865841865539551
      ],
      "min": [
        -0.34208598732948303,
        -0.5714110136032104,
        5.844165802001953
      ],
      "type": "VEC3"
    },
    {
      "bufferView": 2,
      "byteOffset": 143928,
      "componentType": 5126,
      "count": 970,
      "max": [
        0.9999852180480957,
        0.9976205825805664,
        0.9996098875999451
      ],
      "min": [
        -0.9998642206192017,
        -0.9823640584945679,
        -0.9089428186416626
      ],
      "type": "VEC3"
    },
    {
      "bufferView": 1,
      "byteOffset": 44096,
      "componentType": 5126,
      "count": 970,
      "max": [
        0.9995880126953125,
        0.9942169785499573
      ],
      "min": [
        0.0014799999771639705,
        0.007782000117003918
      ],
      "type": "VEC2"
    },
    {
      "bufferView": 0,
      "byteOffset": 94608,
      "componentType": 5125,
      "count": 1845,
      "type": "SCALAR"
    }
  ],
  "asset": {
    "extras": {
      "author": "PACE GAMING FF (https://sketchfab.com/MDARBAZ_.OR___-PACEGAMINGFF)",
      "license": "CC-BY-4.0 (http://creativecommons.org/licenses/by/4.0/)",
      "source": "https://sketchfab.com/3d-models/freefire-new-season-8-model-by-pace-gaming-e75c1a9c1c8d40fb8335db24ee0a0091",
      "title": "FREEFIRE NEW SEASON 8 MODEL BY PACE GAMING"
    },
    "generator": "Sketchfab-13.74.0",
    "version": "2.0"
  },
  "bufferViews": [
    {
      "buffer": 0,
      "byteLength": 101988,
      "name": "floatBufferViews",
      "target": 34963
    },
    {
      "buffer": 0,
      "byteLength": 51856,
      "byteOffset": 101988,
      "byteStride": 8,
      "name": "floatBufferViews",
      "target": 34962
    },
    {
      "buffer": 0,
      "byteLength": 155568,
      "byteOffset": 153844,
      "byteStride": 12,
      "name": "floatBufferViews",
      "target": 34962
    }
  ],
  "buffers": [
    {
      "byteLength": 309412,
      "uri": "scene.bin"
    }
  ],
  "images": [
    {
      "uri": "textures/mat0_baseColor.png"
    },
    {
      "uri": "textures/mat0.001_baseColor.png"
    },
    {
      "uri": "textures/mat0.002_baseColor.png"
    },
    {
      "uri": "textures/mat0.003_baseColor.png"
    },
    {
      "uri": "textures/mat0.004_baseColor.png"
    },
    {
      "uri": "textures/mat0.005_baseColor.png"
    },
    {
      "uri": "textures/mat0.006_baseColor.png"
    }
  ],
  "materials": [
    {
      "doubleSided": true,
      "name": "mat0",
      "pbrMetallicRoughness": {
        "baseColorTexture": {
          "index": 0
        },
        "metallicFactor": 0.0,
        "roughnessFactor": 0.6342256411356907
      }
    },
    {
      "doubleSided": true,
      "name": "mat0.001",
      "pbrMetallicRoughness": {
        "baseColorTexture": {
          "index": 1
        },
        "metallicFactor": 0.0,
        "roughnessFactor": 0.6342256411356907
      }
    },
    {
      "doubleSided": true,
      "name": "mat0.002",
      "pbrMetallicRoughness": {
        "baseColorTexture": {
          "index": 2
        },
        "metallicFactor": 0.0,
        "roughnessFactor": 0.6342256411356907
      }
    },
    {
      "doubleSided": true,
      "name": "mat0.003",
      "pbrMetallicRoughness": {
        "baseColorTexture": {
          "index": 3
        },
        "metallicFactor": 0.0,
        "roughnessFactor": 0.6342256411356907
      }
    },
    {
      "doubleSided": true,
      "name": "mat0.004",
      "pbrMetallicRoughness": {
        "baseColorTexture": {
          "index": 4
        },
        "metallicFactor": 0.0,
        "roughnessFactor": 0.6342256411356907
      }
    },
    {
      "doubleSided": true,
      "name": "mat0.005",
      "pbrMetallicRoughness": {
        "baseColorTexture": {
          "index": 5
        },
        "metallicFactor": 0.0,
        "roughnessFactor": 0.6342256411356907
      }
    },
    {
      "doubleSided": true,
      "name": "mat0.006",
      "pbrMetallicRoughness": {
        "baseColorTexture": {
          "index": 6
        },
        "metallicFactor": 0.0,
        "roughnessFactor": 0.6342256411356907
      }
    }
  ],
  "meshes": [
    {
      "name": "Object_0",
      "primitives": [
        {
          "attributes": {
            "NORMAL": 1,
            "POSITION": 0,
            "TEXCOORD_0": 2
          },
          "indices": 3,
          "material": 0,
          "mode": 4
        }
      ]
    },
    {
      "name": "Object_1",
      "primitives": [
        {
          "attributes": {
            "NORMAL": 5,
            "POSITION": 4,
            "TEXCOORD_0": 6
          },
          "indices": 7,
          "material": 1,
          "mode": 4
        }
      ]
    },
    {
      "name": "Object_2",
      "primitives": [
        {
          "attributes": {
            "NORMAL": 9,
            "POSITION": 8,
            "TEXCOORD_0": 10
          },
          "indices": 11,
          "material": 2,
          "mode": 4
        }
      ]
    },
    {
      "name": "Object_3",
      "primitives": [
        {
          "attributes": {
            "NORMAL": 13,
            "POSITION": 12,
            "TEXCOORD_0": 14
          },
          "indices": 15,
          "material": 3,
          "mode": 4
        }
      ]
    },
    {
      "name": "Object_4",
      "primitives": [
        {
          "attributes": {
            "NORMAL": 17,
            "POSITION": 16,
            "TEXCOORD_0": 18
          },
          "indices": 19,
          "material": 4,
          "mode": 4
        }
      ]
    },
    {
      "name": "Object_5",
      "primitives": [
        {
          "attributes": {
            "NORMAL": 21,
            "POSITION": 20,
            "TEXCOORD_0": 22
          },
          "indices": 23,
          "material": 5,
          "mode": 4
        }
      ]
    },
    {
      "name": "Object_6",
      "primitives": [
        {
          "attributes": {
            "NORMAL": 25,
            "POSITION": 24,
            "TEXCOORD_0": 26
          },
          "indices": 27,
          "material": 6,
          "mode": 4
        }
      ]
    }
  ],
  "nodes": [
    {
      "children": [
        1
      ],
      "matrix": [
        1.0,
        0.0,
        0.0,
        0.0,
        0.0,
        2.220446049250313e-16,
        -1.0,
        0.0,
        0.0,
        1.0,
        2.220446049250313e-16,
        0.0,
        0.0,
        0.0,
        0.0,
        1.0
      ],
      "name": "Sketchfab_model"
    },
    {
      "children": [
        2,
        3,
        4,
        5,
        6,
        7,
        8
      ],
      "name": "FAHIM.obj.cleaner.materialmerger.gles"
    },
    {
      "mesh": 0,
      "name": "Object_2"
    },
    {
      "mesh": 1,
      "name": "Object_3"
    },
    {
      "mesh": 2,
      "name": "Object_4"
    },
    {
      "mesh": 3,
      "name": "Object_5"
    },
    {
      "mesh": 4,
      "name": "Object_6"
    },
    {
      "mesh": 5,
      "name": "Object_7"
    },
    {
      "mesh": 6,
      "name": "Object_8"
    }
  ],
  "samplers": [
    {
      "magFilter": 9729,
      "minFilter": 9987,
      "wrapS": 10497,
      "wrapT": 10497
    }
  ],
  "scene": 0,
  "scenes": [
    {
      "name": "Sketchfab_Scene",
      "nodes": [
        0
      ]
    }
  ],
  "textures": [
    {
      "sampler": 0,
      "source": 0
    },
    {
      "sampler": 0,
      "source": 1
    },
    {
      "sampler": 0,
      "source": 2
    },
    {
      "sampler": 0,
      "source": 3
    },
    {
      "sampler": 0,
      "source": 4
    },
    {
      "sampler": 0,
      "source": 5
    },
    {
      "sampler": 0,
      "source": 6
    }
  ]
}
