{
  "accessors": [
    {
      "bufferView": 2,
      "componentType": 5126,
      "count": 700,
      "max": [
        0.5648109912872314,
        0.8136680126190186,
        3.6549999713897705
      ],
      "min": [
        -0.5004940032958984,
        -0.8270260095596313,
        0.21477699279785156
      ],
      "type": "VEC3"
    },
    {
      "bufferView": 2,
      "byteOffset": 8400,
      "componentType": 5126,
      "count": 700,
      "max": [
        0.9989672899246216,
        0.9990534782409668,
        0.9977266192436218
      ],
      "min": [
        -0.9987456202507019,
        -0.9990397691726685,
        -0.9984027147293091
      ],
      "type": "VEC3"
    },
    {
      "bufferView": 1,
      "componentType": 5126,
      "count": 700,
      "max": [
        0.990697979927063,
        0.9839900135993958
      ],
      "min": [
        0.011373000219464302,
        0.010413999669253826
      ],
      "type": "VEC2"
    },
    {
      "bufferView": 0,
      "componentType": 5125,
      "count": 3666,
      "type": "SCALAR"
    },
    {
      "bufferView": 2,
      "byteOffset": 16800,
      "componentType": 5126,
      "count": 362,
      "max": [
        0.6187289953231812,
        0.5224429965019226,
        6.01658296585083
      ],
      "min": [
        -0.16598500311374664,
        -0.1785389930009842,
        5.495473861694336
      ],
      "type": "VEC3"
    },
    {
      "bufferView": 2,
      "byteOffset": 21144,
      "componentType": 5126,
      "count": 362,
      "max": [
        0.9985260367393494,
        0.9967166185379028,
        0.985752522945404
      ],
      "min": [
        -0.9972386360168457,
        -0.996096670627594,
        -0.984347403049469
      ],
      "type": "VEC3"
    },
    {
      "bufferView": 1,
      "byteOffset": 5600,
      "componentType": 5126,
      "count": 362,
      "max": [
        1.988266944885254,
        0.9897289872169495
      ],
      "min": [
        0.01338099967688322,
        0.029782000929117203
      ],
      "type": "VEC2"
    },
    {
      "bufferView": 0,
      "byteOffset": 14664,
      "componentType": 5125,
      "count": 1692,
      "type": "SCALAR"
    },
    {
      "bufferView": 2,
      "byteOffset": 25488,
      "componentType": 5126,
      "count": 2070,
      "max": [
        0.5048080086708069,
        0.5650950074195862,
        6.4893951416015625
      ],
      "min": [
        -0.32354098558425903,
        -0.1932850033044815,
        5.500274181365967
      ],
      "type": "VEC3"
    },
    {
      "bufferView": 2,
      "byteOffset": 50328,
      "componentType": 5126,
      "count": 2070,
      "max": [
        0.9989047646522522,
        0.9988897442817688,
        0.9936840534210205
      ],
      "min": [
        -0.9995916485786438,
        -0.999037504196167,
        -0.999455988407135
      ],
      "type": "VEC3"
    },
    {
      "bufferView": 1,
      "byteOffset": 8496,
      "componentType": 5126,
      "count": 2070,
      "max": [
        0.9915109872817993,
        1.0008000135421753
      ],
      "min": [
        0.0,
        0.020533999428153038
      ],
      "type": "VEC2"
    },
    {
      "bufferView": 0,
      "byteOffset": 21432,
      "componentType": 5125,
      "count": 6210,
      "type": "SCALAR"
    },
    {
      "bufferView": 2,
      "byteOffset": 75168,
      "componentType": 5126,
      "count": 636,
      "max": [
        0.5830709934234619,
        0.47783800959587097,
        6.113310813903809
      ],
      "min": [
        -0.14353899657726288,
        -0.14241300523281097,
        5.313952922821045
      ],
      "type": "VEC3"
    },
    {
      "bufferView": 2,
      "byteOffset": 82800,
      "componentType": 5126,
      "count": 636,
      "max": [
        0.9988768696784973,
        0.9990425109863281,
        0.9991158843040466
      ],
      "min": [
        -0.9955726861953735,
        -0.9998448491096497,
        -0.9972920417785645
      ],
      "type": "VEC3"
    },
    {
      "bufferView": 1,
      "byteOffset": 25056,
      "componentType": 5126,
      "count": 636,
      "max": [
        0.9923269748687744,
        0.9923269748687744
      ],
      "min": [
        0.008066999725997448,
        0.01095299981534481
      ],
      "type": "VEC2"
    },
    {
      "bufferView": 0,
      "byteOffset": 46272,
      "componentType": 5125,
      "count": 3600,
      "type": "SCALAR"
    },
    {
      "bufferView": 2,
      "byteOffset": 90432,
      "componentType": 5126,
      "count": 4506,
      "max": [
        0.6549109816551208,
        2.1955668926239014,
        5.564348220825195
      ],
      "min": [
        -0.7917850017547607,
        -2.0890400409698486,
        1.7102299928665161
      ],
      "type": "VEC3"
    },
    {
      "bufferView": 2,
      "byteOffset": 144504,
      "componentType": 5126,
      "count": 4506,
      "max": [
        0.9989936947822571,
        0.999000608921051,
        0.9930810332298279
      ],
      "min": [
        -0.9996210932731628,
        -0.9995205998420715,
        -0.9989926218986511
      ],
      "type": "VEC3"
    },
    {
      "bufferView": 1,
      "byteOffset": 30144,
      "componentType": 5126,
      "count": 4506,
      "max": [
        1.9931000471115112,
        0.9932900071144104
      ],
      "min": [
        0.00901199970394373,
        0.006099999882280827
      ],
      "type": "VEC2"
    },
    {
      "bufferView": 0,
      "byteOffset": 60672,
      "componentType": 5125,
      "count": 19926,
      "type": "SCALAR"
    },
    {
      "bufferView": 2,
      "byteOffset": 198576,
      "componentType": 5126,
      "count": 426,
      "max": [
        0.5622519850730896,
        0.9235169887542725,
        0.5095639824867249
      ],
      "min": [
        -0.5467600226402283,
        -1.1015089750289917,
        -0.19500300288200378
      ],
      "type": "VEC3"
    },
    {
      "bufferView": 2,
      "byteOffset": 203688,
      "componentType": 5126,
      "count": 426,
      "max": [
        0.9897240996360779,
        0.9989681243896484,
        0.9999558925628662
      ],
      "min": [
        -0.9998656511306763,
        -0.9989681243896484,
        -0.9985695481300354
      ],
      "type": "VEC3"
    },
    {
      "bufferView": 1,
      "byteOffset": 66192,
      "componentType": 5126,
      "count": 426,
      "max": [
        1.9785000085830688,
        0.9759740233421326
      ],
      "min": [
        0.025252999737858772,
        0.014700000174343586
      ],
      "type": "VEC2"
    },
    {
      "bufferView": 0,
      "byteOffset": 140376,
      "componentType": 5125,
      "count": 1860,
      "type": "SCALAR"
    },
    {
      "bufferView": 2,
      "byteOffset": 208800,
      "componentType": 5126,
      "count": 308,
      "max": [
        0.6308509707450867,
        1.9651470184326172,
        4.4037652015686035
      ],
      "min": [
        -0.7061480283737183,
        -1.7666529417037964,
        2.2633540630340576
      ],
      "type": "VEC3"
    },
    {
      "bufferView": 2,
      "byteOffset": 212496,
      "componentType": 5126,
      "count": 308,
      "max": [
        0.992158830165863,
        0.9854082465171814,
        0.7436444163322449
      ],
      "min": [
        -0.9909480810165405,
        -0.985130250453949,
        -0.7432795763015747
      ],
      "type": "VEC3"
    },
    {
      "bufferView": 1,
      "byteOffset": 69600,
      "componentType": 5126,
      "count": 308,
      "max": [
        1.9649499654769897,
        0.989408016204834
      ],
      "min": [
        0.745764970779419,
        0.2274170070886612
      ],
      "type": "VEC2"
    },
    {
      "bufferView": 0,
      "byteOffset": 147816,
      "componentType": 5125,
      "count": 1158,
      "type": "SCALAR"
    },
    {
      "bufferView": 2,
      "byteOffset": 216192,
      "componentType": 5126,
      "count": 192,
      "max": [
        0.427825003862381,
        0.834077000617981,
        5.497834205627441
      ],
      "min": [
        -0.4662339985370636,
        -1.0067429542541504,
        -0.1637669950723648
      ],
      "type": "VEC3"
    },
    {
      "bufferView": 2,
      "byteOffset": 218496,
      "componentType": 5126,
      "count": 192,
      "max": [
        0.9985260367393494,
        0.9986353516578674,
        0.8930643796920776
      ],
      "min": [
        -0.9970162510871887,
        -0.9995205998420715,
        -0.76212477684021
      ],
      "type": "VEC3"
    },
    {
      "bufferView": 1,
      "byteOffset": 72064,
      "componentType": 5126,
      "count": 192,
      "max": [
        0.7496479749679565,
        0.6224870085716248
      ],
      "min": [
        0.046828001737594604,
        0.34484198689460754
      ],
      "type": "VEC2"
    },
    {
      "bufferView": 0,
      "byteOffset": 152448,
      "componentType": 5125,
      "count": 804,
      "type": "SCALAR"
    }
  ],
  "asset": {
    "extras": {
      "author": "Phoenix... (https://sketchfab.com/projectend0005)",
      "license": "CC-BY-4.0 (http://creativecommons.org/licenses/by/4.0/)",
      "source": "https://sketchfab.com/3d-models/wildfire-bolt-free-fire-2a9446d9460e47318bbb1be99b2d92da",
      "title": "WILDFIRE BOLT free fire"
    },
    "generator": "Sketchfab-12.65.0",
    "version": "2.0"
  },
  "bufferViews": [
    {
      "buffer": 0,
      "byteLength": 155664,
      "name": "floatBufferViews",
      "target": 34963
    },
    {
      "buffer": 0,
      "byteLength": 73600,
      "byteOffset": 155664,
      "byteStride": 8,
      "name": "floatBufferViews",
      "target": 34962
    },
    {
      "buffer": 0,
      "byteLength": 220800,
      "byteOffset": 229264,
      "byteStride": 12,
      "name": "floatBufferViews",
      "target": 34962
    }
  ],
  "buffers": [
    {
      "byteLength": 450064,
      "uri": "scene.bin"
    }
  ],
  "images": [
    {
      "uri": "textures/Male_Accessory_Cos_Electronic_Red_baseColor.png"
    },
    {
      "uri": "textures/Male_Body_Cos_Electronic_Red_baseColor.png"
    },
    {
      "uri": "textures/Male_Bottom_Cos_Electronic_Red_baseColor.png"
    },
    {
      "uri": "textures/Male_Hair_Cos_Electronic_Red_baseColor.png"
    },
    {
      "uri": "textures/Male_Head_Cos_Electronic_Red_baseColor.png"
    },
    {
      "uri": "textures/Male_Shoe_Cos_Electronic_Red_baseColor.png"
    },
    {
      "uri": "textures/Male_Top_Cos_Electronic_Red_baseColor.png"
    }
  ],
  "materials": [
    {
      "doubleSided": true,
      "name": "Male_Accessory_Cos_Electronic_Red",
      "pbrMetallicRoughness": {
        "baseColorTexture": {
          "index": 0
        },
        "metallicFactor": 0.0,
        "roughnessFactor": 0.6
      }
    },
    {
      "doubleSided": true,
      "name": "Male_Body_Cos_Electronic_Red",
      "pbrMetallicRoughness": {
        "baseColorTexture": {
          "index": 1
        },
        "metallicFactor": 0.0,
        "roughnessFactor": 0.6
      }
    },
    {
      "doubleSided": true,
      "name": "Male_Bottom_Cos_Electronic_Red",
      "pbrMetallicRoughness": {
        "baseColorTexture": {
          "index": 2
        },
        "metallicFactor": 0.0,
        "roughnessFactor": 0.6
      }
    },
    {
      "doubleSided": true,
      "name": "Male_Hair_Cos_Electronic_Red",
      "pbrMetallicRoughness": {
        "baseColorTexture": {
          "index": 3
        },
        "metallicFactor": 0.0,
        "roughnessFactor": 0.6
      }
    },
    {
      "doubleSided": true,
      "name": "Male_Head_Cos_Electronic_Red",
      "pbrMetallicRoughness": {
        "baseColorTexture": {
          "index": 4
        },
        "metallicFactor": 0.0,
        "roughnessFactor": 0.6
      }
    },
    {
      "doubleSided": true,
      "name": "Male_Shoe_Cos_Electronic_Red",
      "pbrMetallicRoughness": {
        "baseColorTexture": {
          "index": 5
        },
        "metallicFactor": 0.0,
        "roughnessFactor": 0.6
      }
    },
    {
      "doubleSided": true,
      "name": "Male_Top_Cos_Electronic_Red",
      "pbrMetallicRoughness": {
        "baseColorTexture": {
          "index": 6
        },
        "metallicFactor": 0.0,
        "roughnessFactor": 0.6
      }
    },
    {
      "doubleSided": true,
      "name": "Male_Top_Cos_Electronic_Red_Glass",
      "pbrMetallicRoughness": {
        "baseColorFactor": [
          0.828292110066717,
          0.7873967922869329,
          0.7873967922869329,
          1.0
        ],
        "metallicFactor": 0.7678118672819803,
        "roughnessFactor": 0.6
      }
    }
  ],
  "meshes": [
    {
      "name": "Object_0",
      "primitives": [
        {
          "attributes": {
            "NORMAL": 1,
            "POSITION": 0,
            "TEXCOORD_0": 2
          },
          "indices": 3,
          "material": 2,
          "mode": 4
        }
      ]
    },
    {
      "name": "Object_1",
      "primitives": [
        {
          "attributes": {
            "NORMAL": 5,
            "POSITION": 4,
            "TEXCOORD_0": 6
          },
          "indices": 7,
          "material": 0,
          "mode": 4
        }
      ]
    },
    {
      "name": "Object_2",
      "primitives": [
        {
          "attributes": {
            "NORMAL": 9,
            "POSITION": 8,
            "TEXCOORD_0": 10
          },
          "indices": 11,
          "material": 3,
          "mode": 4
        }
      ]
    },
    {
      "name": "Object_3",
      "primitives": [
        {
          "attributes": {
            "NORMAL": 13,
            "POSITION": 12,
            "TEXCOORD_0": 14
          },
          "indices": 15,
          "material": 4,
          "mode": 4
        }
      ]
    },
    {
      "name": "Object_4",
      "primitives": [
        {
          "attributes": {
            "NORMAL": 17,
            "POSITION": 16,
            "TEXCOORD_0": 18
          },
          "indices": 19,
          "material": 6,
          "mode": 4
        }
      ]
    },
    {
      "name": "Object_5",
      "primitives": [
        {
          "attributes": {
            "NORMAL": 21,
            "POSITION": 20,
            "TEXCOORD_0": 22
          },
          "indices": 23,
          "material": 5,
          "mode": 4
        }
      ]
    },
    {
      "name": "Object_6",
      "primitives": [
        {
          "attributes": {
            "NORMAL": 25,
            "POSITION": 24,
            "TEXCOORD_0": 26
          },
          "indices": 27,
          "material": 7,
          "mode": 4
        }
      ]
    },
    {
      "name": "Object_7",
      "primitives": [
        {
          "attributes": {
            "NORMAL": 29,
            "POSITION": 28,
            "TEXCOORD_0": 30
          },
          "indices": 31,
          "material": 1,
          "mode": 4
        }
      ]
    }
  ],
  "nodes": [
    {
      "children": [
        1
      ],
      "matrix": [
        2.220446049250313e-16,
        -2.220446049250313e-16,
        1.0,
        0.0,
        1.0,
        4.930380657631324e-32,
        -2.220446049250313e-16,
        0.0,
        0.0,
        1.0,
        2.220446049250313e-16,
        0.0,
        -0.12170350551605225,
        -3.3685706218915474e-18,
        0.015170693397521973,
        1.0
      ],
      "name": "Sketchfab_model"
    },
    {
      "children": [
        2,
        3,
        4,
        5,
        6,
        7,
        8,
        9
      ],
      "name": "WILDFIRE BOLT.obj.cleaner.materialmerger.gles"
    },
    {
      "mesh": 0,
      "name": "Object_2"
    },
    {
      "mesh": 1,
      "name": "Object_3"
    },
    {
      "mesh": 2,
      "name": "Object_4"
    },
    {
      "mesh": 3,
      "name": "Object_5"
    },
    {
      "mesh": 4,
      "name": "Object_6"
    },
    {
      "mesh": 5,
      "name": "Object_7"
    },
    {
      "mesh": 6,
      "name": "Object_8"
    },
    {
      "mesh": 7,
      "name": "Object_9"
    }
  ],
  "samplers": [
    {
      "magFilter": 9729,
      "minFilter": 9987,
      "wrapS": 10497,
      "wrapT": 10497
    }
  ],
  "scene": 0,
  "scenes": [
    {
      "name": "Sketchfab_Scene",
      "nodes": [
        0
      ]
    }
  ],
  "textures": [
    {
      "sampler": 0,
      "source": 0
    },
    {
      "sampler": 0,
      "source": 1
    },
    {
      "sampler": 0,
      "source": 2
    },
    {
      "sampler": 0,
      "source": 3
    },
    {
      "sampler": 0,
      "source": 4
    },
    {
      "sampler": 0,
      "source": 5
    },
    {
      "sampler": 0,
      "source": 6
    }
  ]
}
