{
  "accessors": [
    {
      "bufferView": 2,
      "componentType": 5126,
      "count": 559,
      "max": [
        1.0729800462722778,
        0.6794480085372925,
        6.243513107299805
      ],
      "min": [
        -1.0863770246505737,
        -0.706911027431488,
        0.6460610032081604
      ],
      "type": "VEC3"
    },
    {
      "bufferView": 2,
      "byteOffset": 6708,
      "componentType": 5126,
      "count": 559,
      "max": [
        0.9992220401763916,
        0.9999740123748779,
        0.9981793165206909
      ],
      "min": [
        -0.9999912977218628,
        -0.9999725818634033,
        -0.9999847412109375
      ],
      "type": "VEC3"
    },
    {
      "bufferView": 1,
      "componentType": 5126,
      "count": 559,
      "max": [
        0.9966890215873718,
        0.9942020177841187
      ],
      "min": [
        0.0038610000628978014,
        0.004288000054657459
      ],
      "type": "VEC2"
    },
    {
      "bufferView": 0,
      "componentType": 5125,
      "count": 2802,
      "type": "SCALAR"
    },
    {
      "bufferView": 2,
      "byteOffset": 13416,
      "componentType": 5126,
      "count": 999,
      "max": [
        2.4744930267333984,
        0.7063300013542175,
        8.53359317779541
      ],
      "min": [
        -2.46867299079895,
        -0.9069629907608032,
        5.48760986328125
      ],
      "type": "VEC3"
    },
    {
      "bufferView": 2,
      "byteOffset": 25404,
      "componentType": 5126,
      "count": 999,
      "max": [
        0.9974507689476013,
        0.9995223879814148,
        0.9867144823074341
      ],
      "min": [
        -0.9987645149230957,
        -0.9993370771408081,
        -0.98711097240448
      ],
      "type": "VEC3"
    },
    {
      "bufferView": 1,
      "byteOffset": 4472,
      "componentType": 5126,
      "count": 999,
      "max": [
        0.9979090094566345,
        0.9937589764595032
      ],
      "min": [
        0.003020999953150749,
        0.006699000019580126
      ],
      "type": "VEC2"
    },
    {
      "bufferView": 0,
      "byteOffset": 11208,
      "componentType": 5125,
      "count": 4659,
      "type": "SCALAR"
    },
    {
      "bufferView": 2,
      "byteOffset": 37392,
      "componentType": 5126,
      "count": 1386,
      "max": [
        2.7449119091033936,
        0.42770299315452576,
        8.77858829498291
      ],
      "min": [
        -2.710984945297241,
        -0.7272099852561951,
        0.042024001479148865
      ],
      "type": "VEC3"
    },
    {
      "bufferView": 2,
      "byteOffset": 54024,
      "componentType": 5126,
      "count": 1386,
      "max": [
        0.9998039603233337,
        0.9998340010643005,
        0.9867303371429443
      ],
      "min": [
        -0.9999492168426514,
        -0.9995482563972473,
        -0.9558476805686951
      ],
      "type": "VEC3"
    },
    {
      "bufferView": 1,
      "byteOffset": 12464,
      "componentType": 5126,
      "count": 1386,
      "max": [
        0.9914849996566772,
        0.9864349961280823
      ],
      "min": [
        0.13389800488948822,
        0.017867999151349068
      ],
      "type": "VEC2"
    },
    {
      "bufferView": 0,
      "byteOffset": 29844,
      "componentType": 5125,
      "count": 6315,
      "type": "SCALAR"
    },
    {
      "bufferView": 2,
      "byteOffset": 70656,
      "componentType": 5126,
      "count": 3284,
      "max": [
        0.43926000595092773,
        0.368835985660553,
        9.741535186767578
      ],
      "min": [
        -0.4394800066947937,
        -0.6405230164527893,
        8.593497276306152
      ],
      "type": "VEC3"
    },
    {
      "bufferView": 2,
      "byteOffset": 110064,
      "componentType": 5126,
      "count": 3284,
      "max": [
        0.9981971383094788,
        0.9994862675666809,
        0.9994235038757324
      ],
      "min": [
        -0.9985885620117188,
        -0.999895453453064,
        -0.9999847412109375
      ],
      "type": "VEC3"
    },
    {
      "bufferView": 1,
      "byteOffset": 23552,
      "componentType": 5126,
      "count": 3284,
      "max": [
        0.9996950030326843,
        0.9998170137405396
      ],
      "min": [
        0.0007929999846965075,
        0.00752299977466464
      ],
      "type": "VEC2"
    },
    {
      "bufferView": 0,
      "byteOffset": 55104,
      "componentType": 5125,
      "count": 18153,
      "type": "SCALAR"
    },
    {
      "bufferView": 2,
      "byteOffset": 149472,
      "componentType": 5126,
      "count": 496,
      "max": [
        1.2556250095367432,
        0.44262000918388367,
        0.7324420213699341
      ],
      "min": [
        -1.2151089906692505,
        -0.8290299773216248,
        -0.012497999705374241
      ],
      "type": "VEC3"
    },
    {
      "bufferView": 2,
      "byteOffset": 155424,
      "componentType": 5126,
      "count": 496,
      "max": [
        0.9980213046073914,
        0.9836962223052979,
        0.9925670027732849
      ],
      "min": [
        -0.9989171624183655,
        -0.9982805252075195,
        -0.9999852180480957
      ],
      "type": "VEC3"
    },
    {
      "bufferView": 1,
      "byteOffset": 49824,
      "componentType": 5126,
      "count": 496,
      "max": [
        0.9873960018157959,
        0.978302001953125
      ],
      "min": [
        0.022384999319911003,
        0.02420100010931492
      ],
      "type": "VEC2"
    },
    {
      "bufferView": 0,
      "byteOffset": 127716,
      "componentType": 5125,
      "count": 1644,
      "type": "SCALAR"
    },
    {
      "bufferView": 2,
      "byteOffset": 161376,
      "componentType": 5126,
      "count": 3850,
      "max": [
        0.7639229893684387,
        0.7894909977912903,
        9.971264839172363
      ],
      "min": [
        -0.7725430130958557,
        -0.7401530146598816,
        7.847947120666504
      ],
      "type": "VEC3"
    },
    {
      "bufferView": 2,
      "byteOffset": 207576,
      "componentType": 5126,
      "count": 3850,
      "max": [
        0.9998958110809326,
        0.9999743700027466,
        0.9990477561950684
      ],
      "min": [
        -0.9999725818634033,
        -0.9995482563972473,
        -0.9927475452423096
      ],
      "type": "VEC3"
    },
    {
      "bufferView": 1,
      "byteOffset": 53792,
      "componentType": 5126,
      "count": 3850,
      "max": [
        0.9857789874076843,
        0.9918059706687927
      ],
      "min": [
        0.008194000460207462,
        0.0006559999892488122
      ],
      "type": "VEC2"
    },
    {
      "bufferView": 0,
      "byteOffset": 134292,
      "componentType": 5125,
      "count": 14436,
      "type": "SCALAR"
    }
  ],
  "asset": {
    "extras": {
      "author": "PACE GAMING FF (https://sketchfab.com/MDARBAZ_.OR___-PACEGAMINGFF)",
      "license": "CC-BY-4.0 (http://creativecommons.org/licenses/by/4.0/)",
      "source": "https://sketchfab.com/3d-models/freefire-new-female-3d-model-by-pace-gaming-9951625d777244abb3971a3379b08687",
      "title": "freefire new female 3d model by pace gaming"
    },
    "generator": "Sketchfab-14.87.0",
    "version": "2.0"
  },
  "bufferViews": [
    {
      "buffer": 0,
      "byteLength": 192036,
      "name": "floatBufferViews",
      "target": 34963
    },
    {
      "buffer": 0,
      "byteLength": 84592,
      "byteOffset": 192036,
      "byteStride": 8,
      "name": "floatBufferViews",
      "target": 34962
    },
    {
      "buffer": 0,
      "byteLength": 253776,
      "byteOffset": 276628,
      "byteStride": 12,
      "name": "floatBufferViews",
      "target": 34962
    }
  ],
  "buffers": [
    {
      "byteLength": 530404,
      "uri": "scene.bin"
    }
  ],
  "images": [
    {
      "uri": "textures/mat0.012_baseColor.png"
    },
    {
      "uri": "textures/mat0.013_baseColor.png"
    },
    {
      "uri": "textures/mat0.014_baseColor.png"
    },
    {
      "uri": "textures/mat0.015_baseColor.png"
    },
    {
      "uri": "textures/mat0.016_baseColor.png"
    },
    {
      "uri": "textures/mat0.018_baseColor.png"
    }
  ],
  "materials": [
    {
      "doubleSided": true,
      "name": "mat0.012",
      "pbrMetallicRoughness": {
        "baseColorTexture": {
          "index": 0
        },
        "metallicFactor": 0.0,
        "roughnessFactor": 0.6342256411356907
      }
    },
    {
      "doubleSided": true,
      "name": "mat0.013",
      "pbrMetallicRoughness": {
        "baseColorTexture": {
          "index": 1
        },
        "metallicFactor": 0.0,
        "roughnessFactor": 0.6342256411356907
      }
    },
    {
      "doubleSided": true,
      "name": "mat0.014",
      "pbrMetallicRoughness": {
        "baseColorTexture": {
          "index": 2
        },
        "metallicFactor": 0.0,
        "roughnessFactor": 0.6342256411356907
      }
    },
    {
      "doubleSided": true,
      "name": "mat0.015",
      "pbrMetallicRoughness": {
        "baseColorTexture": {
          "index": 3
        },
        "metallicFactor": 0.0,
        "roughnessFactor": 0.6342256411356907
      }
    },
    {
      "doubleSided": true,
      "name": "mat0.016",
      "pbrMetallicRoughness": {
        "baseColorTexture": {
          "index": 4
        },
        "metallicFactor": 0.0,
        "roughnessFactor": 0.6342256411356907
      }
    },
    {
      "doubleSided": true,
      "name": "mat0.018",
      "pbrMetallicRoughness": {
        "baseColorTexture": {
          "index": 5
        },
        "metallicFactor": 0.0,
        "roughnessFactor": 0.6342256411356907
      }
    }
  ],
  "meshes": [
    {
      "name": "Object_0",
      "primitives": [
        {
          "attributes": {
            "NORMAL": 1,
            "POSITION": 0,
            "TEXCOORD_0": 2
          },
          "indices": 3,
          "material": 0,
          "mode": 4
        }
      ]
    },
    {
      "name": "Object_1",
      "primitives": [
        {
          "attributes": {
            "NORMAL": 5,
            "POSITION": 4,
            "TEXCOORD_0": 6
          },
          "indices": 7,
          "material": 1,
          "mode": 4
        }
      ]
    },
    {
      "name": "Object_2",
      "primitives": [
        {
          "attributes": {
            "NORMAL": 9,
            "POSITION": 8,
            "TEXCOORD_0": 10
          },
          "indices": 11,
          "material": 2,
          "mode": 4
        }
      ]
    },
    {
      "name": "Object_3",
      "primitives": [
        {
          "attributes": {
            "NORMAL": 13,
            "POSITION": 12,
            "TEXCOORD_0": 14
          },
          "indices": 15,
          "material": 3,
          "mode": 4
        }
      ]
    },
    {
      "name": "Object_4",
      "primitives": [
        {
          "attributes": {
            "NORMAL": 17,
            "POSITION": 16,
            "TEXCOORD_0": 18
          },
          "indices": 19,
          "material": 4,
          "mode": 4
        }
      ]
    },
    {
      "name": "Object_5",
      "primitives": [
        {
          "attributes": {
            "NORMAL": 21,
            "POSITION": 20,
            "TEXCOORD_0": 22
          },
          "indices": 23,
          "material": 5,
          "mode": 4
        }
      ]
    }
  ],
  "nodes": [
    {
      "children": [
        1
      ],
      "matrix": [
        1.0,
        0.0,
        0.0,
        0.0,
        0.0,
        2.220446049250313e-16,
        -1.0,
        0.0,
        0.0,
        1.0,
        2.220446049250313e-16,
        0.0,
        0.0,
        0.0,
        0.0,
        1.0
      ],
      "name": "Sketchfab_model"
    },
    {
      "children": [
        2,
        3,
        4,
        5,
        6,
        7
      ],
      "name": "11.obj.cleaner.materialmerger.gles"
    },
    {
      "mesh": 0,
      "name": "Object_2"
    },
    {
      "mesh": 1,
      "name": "Object_3"
    },
    {
      "mesh": 2,
      "name": "Object_4"
    },
    {
      "mesh": 3,
      "name": "Object_5"
    },
    {
      "mesh": 4,
      "name": "Object_6"
    },
    {
      "mesh": 5,
      "name": "Object_7"
    }
  ],
  "samplers": [
    {
      "magFilter": 9729,
      "minFilter": 9987,
      "wrapS": 10497,
      "wrapT": 10497
    }
  ],
  "scene": 0,
  "scenes": [
    {
      "name": "Sketchfab_Scene",
      "nodes": [
        0
      ]
    }
  ],
  "textures": [
    {
      "sampler": 0,
      "source": 0
    },
    {
      "sampler": 0,
      "source": 1
    },
    {
      "sampler": 0,
      "source": 2
    },
    {
      "sampler": 0,
      "source": 3
    },
    {
      "sampler": 0,
      "source": 4
    },
    {
      "sampler": 0,
      "source": 5
    }
  ]
}
